%TF.GenerationSoftware,KiCad,Pcbnew,7.0.5*%
%TF.CreationDate,2023-09-05T15:51:42-07:00*%
%TF.ProjectId,esp32_basic_led_controller,65737033-325f-4626-9173-69635f6c6564,v01 Rev1.0*%
%TF.SameCoordinates,Original*%
%TF.FileFunction,Copper,L1,Top*%
%TF.FilePolarity,Positive*%
%FSLAX46Y46*%
G04 Gerber Fmt 4.6, Leading zero omitted, Abs format (unit mm)*
G04 Created by KiCad (PCBNEW 7.0.5) date 2023-09-05 15:51:43*
%MOMM*%
%LPD*%
G01*
G04 APERTURE LIST*
G04 Aperture macros list*
%AMRoundRect*
0 Rectangle with rounded corners*
0 $1 Rounding radius*
0 $2 $3 $4 $5 $6 $7 $8 $9 X,Y pos of 4 corners*
0 Add a 4 corners polygon primitive as box body*
4,1,4,$2,$3,$4,$5,$6,$7,$8,$9,$2,$3,0*
0 Add four circle primitives for the rounded corners*
1,1,$1+$1,$2,$3*
1,1,$1+$1,$4,$5*
1,1,$1+$1,$6,$7*
1,1,$1+$1,$8,$9*
0 Add four rect primitives between the rounded corners*
20,1,$1+$1,$2,$3,$4,$5,0*
20,1,$1+$1,$4,$5,$6,$7,0*
20,1,$1+$1,$6,$7,$8,$9,0*
20,1,$1+$1,$8,$9,$2,$3,0*%
%AMFreePoly0*
4,1,6,0.725000,-0.725000,-0.725000,-0.725000,-0.725000,0.125000,-0.125000,0.725000,0.725000,0.725000,0.725000,-0.725000,0.725000,-0.725000,$1*%
G04 Aperture macros list end*
%TA.AperFunction,SMDPad,CuDef*%
%ADD10RoundRect,0.275000X-0.725000X-0.275000X0.725000X-0.275000X0.725000X0.275000X-0.725000X0.275000X0*%
%TD*%
%TA.AperFunction,SMDPad,CuDef*%
%ADD11RoundRect,0.275000X0.725000X0.275000X-0.725000X0.275000X-0.725000X-0.275000X0.725000X-0.275000X0*%
%TD*%
%TA.AperFunction,ComponentPad*%
%ADD12R,1.000000X1.000000*%
%TD*%
%TA.AperFunction,ComponentPad*%
%ADD13O,1.000000X1.000000*%
%TD*%
%TA.AperFunction,SMDPad,CuDef*%
%ADD14RoundRect,0.237500X-0.237500X0.250000X-0.237500X-0.250000X0.237500X-0.250000X0.237500X0.250000X0*%
%TD*%
%TA.AperFunction,SMDPad,CuDef*%
%ADD15RoundRect,0.237500X0.237500X-0.300000X0.237500X0.300000X-0.237500X0.300000X-0.237500X-0.300000X0*%
%TD*%
%TA.AperFunction,SMDPad,CuDef*%
%ADD16RoundRect,0.250000X-0.475000X0.337500X-0.475000X-0.337500X0.475000X-0.337500X0.475000X0.337500X0*%
%TD*%
%TA.AperFunction,ComponentPad*%
%ADD17RoundRect,0.875000X0.875000X-0.875000X0.875000X0.875000X-0.875000X0.875000X-0.875000X-0.875000X0*%
%TD*%
%TA.AperFunction,ComponentPad*%
%ADD18RoundRect,0.750000X1.000000X-0.750000X1.000000X0.750000X-1.000000X0.750000X-1.000000X-0.750000X0*%
%TD*%
%TA.AperFunction,ComponentPad*%
%ADD19R,3.500000X3.500000*%
%TD*%
%TA.AperFunction,SMDPad,CuDef*%
%ADD20R,2.000000X1.500000*%
%TD*%
%TA.AperFunction,SMDPad,CuDef*%
%ADD21R,2.000000X3.800000*%
%TD*%
%TA.AperFunction,SMDPad,CuDef*%
%ADD22R,0.700000X0.700000*%
%TD*%
%TA.AperFunction,SMDPad,CuDef*%
%ADD23R,1.450000X1.450000*%
%TD*%
%TA.AperFunction,SMDPad,CuDef*%
%ADD24FreePoly0,0.000000*%
%TD*%
%TA.AperFunction,SMDPad,CuDef*%
%ADD25R,0.400000X0.800000*%
%TD*%
%TA.AperFunction,SMDPad,CuDef*%
%ADD26R,0.800000X0.400000*%
%TD*%
%TA.AperFunction,SMDPad,CuDef*%
%ADD27RoundRect,0.150000X-0.825000X-0.150000X0.825000X-0.150000X0.825000X0.150000X-0.825000X0.150000X0*%
%TD*%
%TA.AperFunction,ComponentPad*%
%ADD28R,2.600000X2.600000*%
%TD*%
%TA.AperFunction,ComponentPad*%
%ADD29C,2.600000*%
%TD*%
%TA.AperFunction,SMDPad,CuDef*%
%ADD30RoundRect,0.237500X-0.237500X0.287500X-0.237500X-0.287500X0.237500X-0.287500X0.237500X0.287500X0*%
%TD*%
%TA.AperFunction,ViaPad*%
%ADD31C,0.800000*%
%TD*%
%TA.AperFunction,Conductor*%
%ADD32C,0.250000*%
%TD*%
%TA.AperFunction,Conductor*%
%ADD33C,1.500124*%
%TD*%
G04 APERTURE END LIST*
D10*
%TO.P,SW2,1,A*%
%TO.N,GND*%
X137700000Y-85150000D03*
%TO.P,SW2,2,B*%
%TO.N,/GPIO9*%
X137700000Y-89650000D03*
%TD*%
D11*
%TO.P,SW1,1,A*%
%TO.N,GND*%
X109300000Y-101450000D03*
%TO.P,SW1,2,B*%
%TO.N,/RESET*%
X109300000Y-96950000D03*
%TD*%
D12*
%TO.P,U3,1,VIN*%
%TO.N,+3.3V*%
X120396000Y-98298000D03*
D13*
%TO.P,U3,2,GND*%
%TO.N,GND*%
X120396000Y-99568000D03*
%TO.P,U3,3,SCL*%
%TO.N,/RX*%
X120396000Y-100838000D03*
%TO.P,U3,4,SDA*%
%TO.N,/TX*%
X120396000Y-102108000D03*
%TD*%
D14*
%TO.P,R5,1*%
%TO.N,/GPIO1*%
X119300000Y-94362500D03*
%TO.P,R5,2*%
%TO.N,Net-(D1-A)*%
X119300000Y-96187500D03*
%TD*%
D15*
%TO.P,C2,1*%
%TO.N,+12V*%
X117000000Y-106462500D03*
%TO.P,C2,2*%
%TO.N,GND*%
X117000000Y-104737500D03*
%TD*%
D16*
%TO.P,C3,1*%
%TO.N,+3.3V*%
X117000000Y-109800000D03*
%TO.P,C3,2*%
%TO.N,GND*%
X117000000Y-111875000D03*
%TD*%
D14*
%TO.P,R4,1*%
%TO.N,+3.3V*%
X117094000Y-97131500D03*
%TO.P,R4,2*%
%TO.N,/RX*%
X117094000Y-98956500D03*
%TD*%
D15*
%TO.P,C1,1*%
%TO.N,/RESET*%
X113800000Y-91462500D03*
%TO.P,C1,2*%
%TO.N,GND*%
X113800000Y-89737500D03*
%TD*%
D14*
%TO.P,R1,1*%
%TO.N,/GPIO8*%
X128400000Y-97887500D03*
%TO.P,R1,2*%
%TO.N,Net-(Q1-G)*%
X128400000Y-99712500D03*
%TD*%
D17*
%TO.P,J1,3*%
%TO.N,GND*%
X128016000Y-109220000D03*
D18*
%TO.P,J1,2*%
X123316000Y-112220000D03*
D19*
%TO.P,J1,1*%
%TO.N,+12V*%
X123316000Y-106220000D03*
%TD*%
D20*
%TO.P,U1,1,GND*%
%TO.N,GND*%
X112800000Y-111100000D03*
%TO.P,U1,2,VO*%
%TO.N,+3.3V*%
X112800000Y-108800000D03*
D21*
X106500000Y-108800000D03*
D20*
%TO.P,U1,3,VI*%
%TO.N,+12V*%
X112800000Y-106500000D03*
%TD*%
D14*
%TO.P,R3,1*%
%TO.N,+3.3V*%
X117094000Y-100687500D03*
%TO.P,R3,2*%
%TO.N,/TX*%
X117094000Y-102512500D03*
%TD*%
D22*
%TO.P,U2,53,GND*%
%TO.N,GND*%
X116910000Y-82500000D03*
%TO.P,U2,52,GND*%
X116910000Y-92400000D03*
%TO.P,U2,51,GND*%
X128810000Y-92400000D03*
%TO.P,U2,50,GND*%
X128810000Y-82500000D03*
D23*
%TO.P,U2,49,GND*%
X124835000Y-89425000D03*
X124835000Y-87450000D03*
X124835000Y-85475000D03*
X122860000Y-89425000D03*
X122860000Y-87450000D03*
X122860000Y-85475000D03*
X120885000Y-89425000D03*
X120885000Y-87450000D03*
D24*
X120885000Y-85475000D03*
D25*
%TO.P,U2,48,GND*%
X118060000Y-82550000D03*
%TO.P,U2,47,GND*%
X118860000Y-82550000D03*
%TO.P,U2,46,GND*%
X119660000Y-82550000D03*
%TO.P,U2,45,GND*%
X120460000Y-82550000D03*
%TO.P,U2,44,GND*%
X121260000Y-82550000D03*
%TO.P,U2,43,GND*%
X122060000Y-82550000D03*
%TO.P,U2,42,GND*%
X122860000Y-82550000D03*
%TO.P,U2,41,GND*%
X123660000Y-82550000D03*
%TO.P,U2,40,GND*%
X124460000Y-82550000D03*
%TO.P,U2,39,GND*%
X125260000Y-82550000D03*
%TO.P,U2,38,GND*%
X126060000Y-82550000D03*
%TO.P,U2,37,GND*%
X126860000Y-82550000D03*
%TO.P,U2,36,GND*%
X127660000Y-82550000D03*
D26*
%TO.P,U2,35,NC*%
%TO.N,unconnected-(U2-NC-Pad35)*%
X128760000Y-83450000D03*
%TO.P,U2,34,NC*%
%TO.N,unconnected-(U2-NC-Pad34)*%
X128760000Y-84250000D03*
%TO.P,U2,33,NC*%
%TO.N,unconnected-(U2-NC-Pad33)*%
X128760000Y-85050000D03*
%TO.P,U2,32,NC*%
%TO.N,unconnected-(U2-NC-Pad32)*%
X128760000Y-85850000D03*
%TO.P,U2,31,GPIO21/U0TXD*%
%TO.N,/TX*%
X128760000Y-86650000D03*
%TO.P,U2,30,GPIO20/U0RXD*%
%TO.N,/RX*%
X128760000Y-87450000D03*
%TO.P,U2,29,NC*%
%TO.N,unconnected-(U2-NC-Pad29)*%
X128760000Y-88250000D03*
%TO.P,U2,28,NC*%
%TO.N,unconnected-(U2-NC-Pad28)*%
X128760000Y-89050000D03*
%TO.P,U2,27,GPIO19/USB_D+*%
%TO.N,/D+*%
X128760000Y-89850000D03*
%TO.P,U2,26,GPIO18/USB_D-*%
%TO.N,/D-*%
X128760000Y-90650000D03*
%TO.P,U2,25,NC*%
%TO.N,unconnected-(U2-NC-Pad25)*%
X128760000Y-91450000D03*
D25*
%TO.P,U2,24,NC*%
%TO.N,unconnected-(U2-NC-Pad24)*%
X127660000Y-92350000D03*
%TO.P,U2,23,GPIO9*%
%TO.N,/GPIO9*%
X126860000Y-92350000D03*
%TO.P,U2,22,GPIO8*%
%TO.N,/GPIO8*%
X126060000Y-92350000D03*
%TO.P,U2,21,GPIO7*%
%TO.N,/GPIO7*%
X125260000Y-92350000D03*
%TO.P,U2,20,GPIO6*%
%TO.N,/GPIO6*%
X124460000Y-92350000D03*
%TO.P,U2,19,GPIO5/ADC2_CH0*%
%TO.N,/GPIO5*%
X123660000Y-92350000D03*
%TO.P,U2,18,GPIO4/ADC1_CH4*%
%TO.N,/GPIO4*%
X122860000Y-92350000D03*
%TO.P,U2,17,NC*%
%TO.N,unconnected-(U2-NC-Pad17)*%
X122060000Y-92350000D03*
%TO.P,U2,16,GPIO10*%
%TO.N,/GPIO10*%
X121260000Y-92350000D03*
%TO.P,U2,15,NC*%
%TO.N,unconnected-(U2-NC-Pad15)*%
X120460000Y-92350000D03*
%TO.P,U2,14,GND*%
%TO.N,GND*%
X119660000Y-92350000D03*
%TO.P,U2,13,GPIO1/ADC1_CH1/XTAL_32K_N*%
%TO.N,/GPIO1*%
X118860000Y-92350000D03*
%TO.P,U2,12,GPIO0/ADC1_CH0/XTAL_32K_P*%
%TO.N,/GPIO0*%
X118060000Y-92350000D03*
D26*
%TO.P,U2,11,GND*%
%TO.N,GND*%
X116960000Y-91450000D03*
%TO.P,U2,10,NC*%
%TO.N,unconnected-(U2-NC-Pad10)*%
X116960000Y-90650000D03*
%TO.P,U2,9,NC*%
%TO.N,unconnected-(U2-NC-Pad9)*%
X116960000Y-89850000D03*
%TO.P,U2,8,EN/CHIP_PU*%
%TO.N,/RESET*%
X116960000Y-89050000D03*
%TO.P,U2,7,NC*%
%TO.N,unconnected-(U2-NC-Pad7)*%
X116960000Y-88250000D03*
%TO.P,U2,6,GPIO3/ADC1_CH3*%
%TO.N,/GPIO3*%
X116960000Y-87450000D03*
%TO.P,U2,5,GPIO2/ADC1_CH2*%
%TO.N,/GPIO2*%
X116960000Y-86650000D03*
%TO.P,U2,4,NC*%
%TO.N,unconnected-(U2-NC-Pad4)*%
X116960000Y-85850000D03*
%TO.P,U2,3,3V3*%
%TO.N,+3.3V*%
X116960000Y-85050000D03*
%TO.P,U2,2,GND*%
%TO.N,GND*%
X116960000Y-84250000D03*
%TO.P,U2,1,GND*%
X116960000Y-83450000D03*
%TD*%
D12*
%TO.P,J3,1,Pin_1*%
%TO.N,+3.3V*%
X124206000Y-98298000D03*
D13*
%TO.P,J3,2,Pin_2*%
%TO.N,GND*%
X124206000Y-99568000D03*
%TO.P,J3,3,Pin_3*%
%TO.N,/RX*%
X124206000Y-100838000D03*
%TO.P,J3,4,Pin_4*%
%TO.N,/TX*%
X124206000Y-102108000D03*
%TD*%
D27*
%TO.P,Q1,8,D*%
%TO.N,Net-(J2-Pin_2)*%
X137275000Y-95895000D03*
%TO.P,Q1,7,D*%
X137275000Y-97165000D03*
%TO.P,Q1,6,D*%
X137275000Y-98435000D03*
%TO.P,Q1,5,D*%
X137275000Y-99705000D03*
%TO.P,Q1,4,G*%
%TO.N,Net-(Q1-G)*%
X132325000Y-99705000D03*
%TO.P,Q1,3,S*%
%TO.N,GND*%
X132325000Y-98435000D03*
%TO.P,Q1,2,S*%
X132325000Y-97165000D03*
%TO.P,Q1,1,S*%
X132325000Y-95895000D03*
%TD*%
D14*
%TO.P,R2,2*%
%TO.N,/RESET*%
X113800000Y-87912500D03*
%TO.P,R2,1*%
%TO.N,+3.3V*%
X113800000Y-86087500D03*
%TD*%
D28*
%TO.P,J2,1,Pin_1*%
%TO.N,+12V*%
X139505000Y-110345000D03*
D29*
%TO.P,J2,2,Pin_2*%
%TO.N,Net-(J2-Pin_2)*%
X139505000Y-105265000D03*
%TD*%
D30*
%TO.P,D1,1,K*%
%TO.N,GND*%
X121125000Y-94425000D03*
%TO.P,D1,2,A*%
%TO.N,Net-(D1-A)*%
X121125000Y-96175000D03*
%TD*%
D31*
%TO.N,+3.3V*%
X119100000Y-85675000D03*
X117125000Y-94925000D03*
%TO.N,/TX*%
X126600000Y-86800000D03*
%TO.N,+3.3V*%
X115600000Y-107812062D03*
X115600000Y-101200000D03*
%TO.N,/RX*%
X126496299Y-88142299D03*
%TD*%
D32*
%TO.N,+3.3V*%
X117125000Y-97100500D02*
X117094000Y-97131500D01*
X117125000Y-94925000D02*
X117125000Y-97100500D01*
X118475000Y-85050000D02*
X119100000Y-85675000D01*
X116960000Y-85050000D02*
X118475000Y-85050000D01*
%TO.N,Net-(D1-A)*%
X121112500Y-96187500D02*
X121125000Y-96175000D01*
X119300000Y-96187500D02*
X121112500Y-96187500D01*
%TO.N,/GPIO1*%
X118860000Y-93922500D02*
X118860000Y-92350000D01*
X119300000Y-94362500D02*
X118860000Y-93922500D01*
%TO.N,/TX*%
X126750000Y-86650000D02*
X126600000Y-86800000D01*
X128760000Y-86650000D02*
X126750000Y-86650000D01*
X120396000Y-102108000D02*
X124206000Y-102108000D01*
X117498500Y-102108000D02*
X120396000Y-102108000D01*
X117094000Y-102512500D02*
X117498500Y-102108000D01*
%TO.N,/GPIO9*%
X126860000Y-92860000D02*
X126860000Y-92350000D01*
X127800000Y-93800000D02*
X126860000Y-92860000D01*
X133550000Y-93800000D02*
X127800000Y-93800000D01*
X137700000Y-89650000D02*
X133550000Y-93800000D01*
%TO.N,+3.3V*%
X112800000Y-108800000D02*
X106500000Y-108800000D01*
X115600000Y-107812062D02*
X115600000Y-108600000D01*
X115800000Y-108800000D02*
X116000000Y-108800000D01*
X112800000Y-108800000D02*
X115800000Y-108800000D01*
X115600000Y-108600000D02*
X115800000Y-108800000D01*
X116112500Y-100687500D02*
X115600000Y-101200000D01*
X117094000Y-100687500D02*
X116112500Y-100687500D01*
D33*
%TO.N,Net-(J2-Pin_2)*%
X137275000Y-99705000D02*
X137275000Y-95895000D01*
X139505000Y-101935000D02*
X137275000Y-99705000D01*
X139505000Y-105265000D02*
X139505000Y-101935000D01*
D32*
%TO.N,Net-(Q1-G)*%
X132317500Y-99712500D02*
X132325000Y-99705000D01*
X128400000Y-99712500D02*
X132317500Y-99712500D01*
%TO.N,/GPIO8*%
X126060000Y-95547500D02*
X128400000Y-97887500D01*
X126060000Y-92350000D02*
X126060000Y-95547500D01*
%TO.N,/RESET*%
X109350000Y-97000000D02*
X109300000Y-96950000D01*
X112600000Y-97000000D02*
X109350000Y-97000000D01*
X113800000Y-95800000D02*
X112600000Y-97000000D01*
X113800000Y-91462500D02*
X113800000Y-95800000D01*
X114937500Y-89050000D02*
X116960000Y-89050000D01*
X113800000Y-87912500D02*
X114937500Y-89050000D01*
X113000000Y-88712500D02*
X113800000Y-87912500D01*
X113000000Y-90662500D02*
X113000000Y-88712500D01*
X113800000Y-91462500D02*
X113000000Y-90662500D01*
%TO.N,+3.3V*%
X114837500Y-85050000D02*
X116960000Y-85050000D01*
X113800000Y-86087500D02*
X114837500Y-85050000D01*
X116000000Y-108800000D02*
X117000000Y-109800000D01*
D33*
%TO.N,+12V*%
X112837500Y-106462500D02*
X112800000Y-106500000D01*
X117000000Y-106462500D02*
X112837500Y-106462500D01*
X123073500Y-106462500D02*
X117000000Y-106462500D01*
X123316000Y-106220000D02*
X123073500Y-106462500D01*
D32*
%TO.N,+3.3V*%
X117094000Y-97131500D02*
X118260500Y-98298000D01*
X120396000Y-98298000D02*
X124206000Y-98298000D01*
X116294000Y-97931500D02*
X117094000Y-97131500D01*
X117094000Y-100687500D02*
X116294000Y-99887500D01*
X118260500Y-98298000D02*
X120396000Y-98298000D01*
X116294000Y-99887500D02*
X116294000Y-97931500D01*
%TO.N,/RX*%
X118975500Y-100838000D02*
X120396000Y-100838000D01*
X127188598Y-87450000D02*
X126496299Y-88142299D01*
X117094000Y-98956500D02*
X118975500Y-100838000D01*
X120396000Y-100838000D02*
X124206000Y-100838000D01*
X128760000Y-87450000D02*
X127188598Y-87450000D01*
%TD*%
%TA.AperFunction,Conductor*%
%TO.N,GND*%
G36*
X118022714Y-98594526D02*
G01*
X118032539Y-98601541D01*
X118034610Y-98603084D01*
X118052272Y-98616832D01*
X118077380Y-98636375D01*
X118084376Y-98640160D01*
X118091518Y-98643652D01*
X118091519Y-98643652D01*
X118091520Y-98643653D01*
X118143430Y-98659107D01*
X118145887Y-98659893D01*
X118197173Y-98677500D01*
X118197174Y-98677500D01*
X118197177Y-98677501D01*
X118204995Y-98678805D01*
X118212910Y-98679792D01*
X118267024Y-98677553D01*
X118269619Y-98677500D01*
X119515501Y-98677500D01*
X119583622Y-98697502D01*
X119630115Y-98751158D01*
X119641501Y-98803500D01*
X119641501Y-98823063D01*
X119641502Y-98823077D01*
X119641944Y-98825299D01*
X119641837Y-98826484D01*
X119642108Y-98829229D01*
X119641587Y-98829280D01*
X119635610Y-98896012D01*
X119615763Y-98929801D01*
X119553825Y-99005273D01*
X119553823Y-99005277D01*
X119460224Y-99180387D01*
X119460223Y-99180389D01*
X119419692Y-99313999D01*
X119419693Y-99314000D01*
X120154101Y-99314000D01*
X120098940Y-99373921D01*
X120052018Y-99480892D01*
X120042372Y-99597302D01*
X120071047Y-99710538D01*
X120134936Y-99808327D01*
X120152503Y-99822000D01*
X119419693Y-99822000D01*
X119460223Y-99955610D01*
X119460224Y-99955612D01*
X119553824Y-100130724D01*
X119653818Y-100252566D01*
X119681572Y-100317913D01*
X119669590Y-100387891D01*
X119621678Y-100440283D01*
X119556419Y-100458500D01*
X119184884Y-100458500D01*
X119116763Y-100438498D01*
X119095789Y-100421595D01*
X117860404Y-99186210D01*
X117826378Y-99123898D01*
X117823499Y-99097115D01*
X117823499Y-98697071D01*
X117843501Y-98628950D01*
X117897157Y-98582457D01*
X117967431Y-98572353D01*
X118022714Y-98594526D01*
G37*
%TD.AperFunction*%
%TA.AperFunction,Conductor*%
G36*
X123393622Y-98697502D02*
G01*
X123440115Y-98751158D01*
X123451501Y-98803500D01*
X123451501Y-98823063D01*
X123451502Y-98823077D01*
X123451944Y-98825299D01*
X123451837Y-98826484D01*
X123452108Y-98829229D01*
X123451587Y-98829280D01*
X123445610Y-98896012D01*
X123425763Y-98929801D01*
X123363825Y-99005273D01*
X123363823Y-99005277D01*
X123270224Y-99180387D01*
X123270223Y-99180389D01*
X123229692Y-99313999D01*
X123229693Y-99314000D01*
X123995941Y-99314000D01*
X123993871Y-99315195D01*
X123920199Y-99402993D01*
X123881000Y-99510694D01*
X123881000Y-99625306D01*
X123920199Y-99733007D01*
X123993871Y-99820805D01*
X123995941Y-99822000D01*
X123229693Y-99822000D01*
X123270223Y-99955610D01*
X123270224Y-99955612D01*
X123363824Y-100130724D01*
X123463818Y-100252566D01*
X123491572Y-100317913D01*
X123479590Y-100387891D01*
X123431678Y-100440283D01*
X123366419Y-100458500D01*
X121235582Y-100458500D01*
X121167461Y-100438498D01*
X121120968Y-100384842D01*
X121110864Y-100314568D01*
X121138183Y-100252566D01*
X121238175Y-100130724D01*
X121331775Y-99955612D01*
X121331776Y-99955610D01*
X121372307Y-99822000D01*
X120637899Y-99822000D01*
X120693060Y-99762079D01*
X120739982Y-99655108D01*
X120749628Y-99538698D01*
X120720953Y-99425462D01*
X120657064Y-99327673D01*
X120639497Y-99314000D01*
X121372307Y-99314000D01*
X121372307Y-99313999D01*
X121331776Y-99180389D01*
X121331775Y-99180387D01*
X121238175Y-99005275D01*
X121176237Y-98929804D01*
X121148483Y-98864457D01*
X121149900Y-98829225D01*
X121149893Y-98829225D01*
X121149905Y-98829101D01*
X121150058Y-98825285D01*
X121150500Y-98823067D01*
X121150500Y-98803499D01*
X121170502Y-98735379D01*
X121224158Y-98688886D01*
X121276500Y-98677500D01*
X123325501Y-98677500D01*
X123393622Y-98697502D01*
G37*
%TD.AperFunction*%
%TA.AperFunction,Conductor*%
G36*
X116202121Y-76297902D02*
G01*
X116248614Y-76351558D01*
X116260000Y-76403900D01*
X116260000Y-81676935D01*
X116239998Y-81745056D01*
X116209511Y-81777802D01*
X116197094Y-81787097D01*
X116109555Y-81904034D01*
X116109555Y-81904035D01*
X116058505Y-82040906D01*
X116052000Y-82101402D01*
X116052000Y-82246000D01*
X117682000Y-82246000D01*
X117750121Y-82266002D01*
X117796614Y-82319658D01*
X117801884Y-82343885D01*
X117807999Y-82350000D01*
X127912001Y-82350000D01*
X127921144Y-82340856D01*
X127932002Y-82303879D01*
X127985658Y-82257386D01*
X128038000Y-82246000D01*
X129668000Y-82246000D01*
X129668000Y-82101414D01*
X129667999Y-82101402D01*
X129661494Y-82040906D01*
X129610444Y-81904035D01*
X129610444Y-81904034D01*
X129522905Y-81787097D01*
X129510489Y-81777802D01*
X129467943Y-81720965D01*
X129460000Y-81676935D01*
X129460000Y-80065294D01*
X138468779Y-80065294D01*
X138483699Y-80175436D01*
X138498438Y-80284252D01*
X138566719Y-80494393D01*
X138671416Y-80688954D01*
X138671425Y-80688968D01*
X138809181Y-80861706D01*
X138809187Y-80861712D01*
X138975577Y-81007084D01*
X139165242Y-81120403D01*
X139165249Y-81120406D01*
X139165255Y-81120410D01*
X139372120Y-81198048D01*
X139372122Y-81198048D01*
X139372124Y-81198049D01*
X139589520Y-81237500D01*
X139589523Y-81237500D01*
X139755127Y-81237500D01*
X139755133Y-81237500D01*
X139909828Y-81223577D01*
X139920066Y-81222656D01*
X139920066Y-81222655D01*
X140133056Y-81163874D01*
X140332129Y-81068006D01*
X140510884Y-80938132D01*
X140663578Y-80778427D01*
X140785301Y-80594025D01*
X140872141Y-80390852D01*
X140921308Y-80175437D01*
X140931221Y-79954706D01*
X140901562Y-79735751D01*
X140833283Y-79525612D01*
X140784131Y-79434272D01*
X140728583Y-79331045D01*
X140728574Y-79331031D01*
X140590818Y-79158293D01*
X140590812Y-79158287D01*
X140424422Y-79012915D01*
X140234757Y-78899596D01*
X140234747Y-78899591D01*
X140234746Y-78899590D01*
X140234745Y-78899590D01*
X140027880Y-78821952D01*
X140027875Y-78821950D01*
X139810480Y-78782500D01*
X139810477Y-78782500D01*
X139644867Y-78782500D01*
X139614157Y-78785263D01*
X139479933Y-78797343D01*
X139479933Y-78797344D01*
X139266952Y-78856123D01*
X139266938Y-78856128D01*
X139067877Y-78951990D01*
X139067870Y-78951994D01*
X138889115Y-79081868D01*
X138889114Y-79081869D01*
X138736421Y-79241573D01*
X138614701Y-79425970D01*
X138527860Y-79629144D01*
X138527857Y-79629152D01*
X138491524Y-79788341D01*
X138478692Y-79844563D01*
X138468779Y-80065294D01*
X129460000Y-80065294D01*
X129460000Y-76403900D01*
X129480002Y-76335779D01*
X129533658Y-76289286D01*
X129586000Y-76277900D01*
X138395102Y-76277900D01*
X138428819Y-76277900D01*
X138431175Y-76277944D01*
X138451387Y-76278700D01*
X138890772Y-76295140D01*
X138895428Y-76295489D01*
X139351310Y-76346854D01*
X139355935Y-76347552D01*
X139806681Y-76432838D01*
X139811228Y-76433875D01*
X140254367Y-76552614D01*
X140258827Y-76553989D01*
X140691832Y-76705504D01*
X140696207Y-76707221D01*
X141116658Y-76890663D01*
X141120904Y-76892707D01*
X141526473Y-77107057D01*
X141530538Y-77109403D01*
X141736980Y-77239119D01*
X141918956Y-77353463D01*
X141922840Y-77356110D01*
X142175439Y-77542536D01*
X142291931Y-77628511D01*
X142295602Y-77631438D01*
X142576926Y-77873537D01*
X142643312Y-77930667D01*
X142646753Y-77933859D01*
X142971139Y-78258245D01*
X142974332Y-78261687D01*
X143273558Y-78609394D01*
X143276488Y-78613068D01*
X143526626Y-78951994D01*
X143548882Y-78982149D01*
X143551536Y-78986043D01*
X143611748Y-79081869D01*
X143768307Y-79331031D01*
X143795586Y-79374444D01*
X143797942Y-79378526D01*
X144012292Y-79784095D01*
X144014336Y-79788341D01*
X144197778Y-80208792D01*
X144199500Y-80213180D01*
X144351004Y-80646156D01*
X144352388Y-80650643D01*
X144362655Y-80688960D01*
X144464220Y-81068005D01*
X144471118Y-81093746D01*
X144472165Y-81098338D01*
X144495688Y-81222656D01*
X144557444Y-81549045D01*
X144558147Y-81553706D01*
X144609508Y-82009547D01*
X144609860Y-82014247D01*
X144627056Y-82473824D01*
X144627100Y-82476180D01*
X144627100Y-114098818D01*
X144627056Y-114101174D01*
X144609860Y-114560752D01*
X144609508Y-114565452D01*
X144558147Y-115021293D01*
X144557444Y-115025954D01*
X144472166Y-115476658D01*
X144471118Y-115481253D01*
X144352388Y-115924356D01*
X144351001Y-115928851D01*
X144280182Y-116131242D01*
X144199500Y-116361819D01*
X144197778Y-116366207D01*
X144014336Y-116786658D01*
X144012292Y-116790904D01*
X143797942Y-117196473D01*
X143795586Y-117200555D01*
X143551536Y-117588956D01*
X143548882Y-117592850D01*
X143276488Y-117961931D01*
X143273550Y-117965616D01*
X142974332Y-118313312D01*
X142971127Y-118316767D01*
X142646767Y-118641127D01*
X142643312Y-118644332D01*
X142295616Y-118943550D01*
X142291931Y-118946488D01*
X141922850Y-119218882D01*
X141918956Y-119221536D01*
X141530555Y-119465586D01*
X141526473Y-119467942D01*
X141120904Y-119682292D01*
X141116658Y-119684336D01*
X140696207Y-119867778D01*
X140691819Y-119869500D01*
X140461242Y-119950182D01*
X140258851Y-120021001D01*
X140254356Y-120022388D01*
X139811253Y-120141118D01*
X139806658Y-120142166D01*
X139355954Y-120227444D01*
X139351293Y-120228147D01*
X138895452Y-120279508D01*
X138890752Y-120279860D01*
X138431175Y-120297056D01*
X138428819Y-120297100D01*
X107951181Y-120297100D01*
X107948825Y-120297056D01*
X107489247Y-120279860D01*
X107484547Y-120279508D01*
X107028706Y-120228147D01*
X107024045Y-120227444D01*
X106573341Y-120142166D01*
X106568752Y-120141119D01*
X106282746Y-120064484D01*
X106125643Y-120022388D01*
X106121156Y-120021004D01*
X105688181Y-119869500D01*
X105683792Y-119867778D01*
X105263341Y-119684336D01*
X105259095Y-119682292D01*
X104853526Y-119467942D01*
X104849452Y-119465591D01*
X104720544Y-119384592D01*
X104461043Y-119221536D01*
X104457149Y-119218882D01*
X104088068Y-118946488D01*
X104084394Y-118943558D01*
X103736687Y-118644332D01*
X103733245Y-118641139D01*
X103408859Y-118316753D01*
X103405667Y-118313312D01*
X103194127Y-118067499D01*
X103106438Y-117965602D01*
X103103511Y-117961931D01*
X103095003Y-117950403D01*
X102831110Y-117592840D01*
X102828463Y-117588956D01*
X102662223Y-117324388D01*
X102584403Y-117200538D01*
X102582057Y-117196473D01*
X102422879Y-116895294D01*
X105448779Y-116895294D01*
X105463699Y-117005436D01*
X105478438Y-117114252D01*
X105546719Y-117324393D01*
X105651416Y-117518954D01*
X105651425Y-117518968D01*
X105789181Y-117691706D01*
X105789187Y-117691712D01*
X105955577Y-117837084D01*
X106145242Y-117950403D01*
X106145249Y-117950406D01*
X106145255Y-117950410D01*
X106352120Y-118028048D01*
X106352122Y-118028048D01*
X106352124Y-118028049D01*
X106569520Y-118067500D01*
X106569523Y-118067500D01*
X106735127Y-118067500D01*
X106735133Y-118067500D01*
X106889828Y-118053577D01*
X106900066Y-118052656D01*
X106900066Y-118052655D01*
X107113056Y-117993874D01*
X107312129Y-117898006D01*
X107490884Y-117768132D01*
X107643578Y-117608427D01*
X107765301Y-117424025D01*
X107852141Y-117220852D01*
X107901308Y-117005437D01*
X107906255Y-116895294D01*
X138468779Y-116895294D01*
X138483699Y-117005436D01*
X138498438Y-117114252D01*
X138566719Y-117324393D01*
X138671416Y-117518954D01*
X138671425Y-117518968D01*
X138809181Y-117691706D01*
X138809187Y-117691712D01*
X138975577Y-117837084D01*
X139165242Y-117950403D01*
X139165249Y-117950406D01*
X139165255Y-117950410D01*
X139372120Y-118028048D01*
X139372122Y-118028048D01*
X139372124Y-118028049D01*
X139589520Y-118067500D01*
X139589523Y-118067500D01*
X139755127Y-118067500D01*
X139755133Y-118067500D01*
X139909828Y-118053577D01*
X139920066Y-118052656D01*
X139920066Y-118052655D01*
X140133056Y-117993874D01*
X140332129Y-117898006D01*
X140510884Y-117768132D01*
X140663578Y-117608427D01*
X140785301Y-117424025D01*
X140872141Y-117220852D01*
X140921308Y-117005437D01*
X140931221Y-116784706D01*
X140901562Y-116565751D01*
X140833283Y-116355612D01*
X140833280Y-116355606D01*
X140728583Y-116161045D01*
X140728574Y-116161031D01*
X140590818Y-115988293D01*
X140590812Y-115988287D01*
X140424422Y-115842915D01*
X140234757Y-115729596D01*
X140234747Y-115729591D01*
X140234746Y-115729590D01*
X140234745Y-115729590D01*
X140027880Y-115651952D01*
X140027875Y-115651950D01*
X139810480Y-115612500D01*
X139810477Y-115612500D01*
X139644867Y-115612500D01*
X139614157Y-115615263D01*
X139479933Y-115627343D01*
X139479933Y-115627344D01*
X139266952Y-115686123D01*
X139266938Y-115686128D01*
X139067877Y-115781990D01*
X139067870Y-115781994D01*
X138889115Y-115911868D01*
X138889114Y-115911869D01*
X138736421Y-116071573D01*
X138614701Y-116255970D01*
X138527860Y-116459144D01*
X138527857Y-116459152D01*
X138478692Y-116674561D01*
X138478692Y-116674563D01*
X138468779Y-116895294D01*
X107906255Y-116895294D01*
X107911221Y-116784706D01*
X107881562Y-116565751D01*
X107813283Y-116355612D01*
X107813280Y-116355606D01*
X107708583Y-116161045D01*
X107708574Y-116161031D01*
X107570818Y-115988293D01*
X107570812Y-115988287D01*
X107404422Y-115842915D01*
X107214757Y-115729596D01*
X107214747Y-115729591D01*
X107214746Y-115729590D01*
X107214745Y-115729590D01*
X107007880Y-115651952D01*
X107007875Y-115651950D01*
X106790480Y-115612500D01*
X106790477Y-115612500D01*
X106624867Y-115612500D01*
X106594157Y-115615263D01*
X106459933Y-115627343D01*
X106459933Y-115627344D01*
X106246952Y-115686123D01*
X106246938Y-115686128D01*
X106047877Y-115781990D01*
X106047870Y-115781994D01*
X105869115Y-115911868D01*
X105869114Y-115911869D01*
X105716421Y-116071573D01*
X105594701Y-116255970D01*
X105507860Y-116459144D01*
X105507857Y-116459152D01*
X105458692Y-116674561D01*
X105458692Y-116674563D01*
X105448779Y-116895294D01*
X102422879Y-116895294D01*
X102367707Y-116790904D01*
X102365663Y-116786658D01*
X102182221Y-116366207D01*
X102180504Y-116361832D01*
X102028989Y-115928827D01*
X102027611Y-115924356D01*
X101908875Y-115481228D01*
X101907838Y-115476681D01*
X101822552Y-115025935D01*
X101821854Y-115021310D01*
X101770489Y-114565428D01*
X101770140Y-114560772D01*
X101752944Y-114101174D01*
X101752900Y-114098818D01*
X101752900Y-113034606D01*
X121058000Y-113034606D01*
X121068467Y-113167594D01*
X121123794Y-113387167D01*
X121123797Y-113387176D01*
X121217441Y-113593340D01*
X121217444Y-113593346D01*
X121346394Y-113779473D01*
X121346408Y-113779490D01*
X121506509Y-113939591D01*
X121506526Y-113939605D01*
X121692653Y-114068555D01*
X121692659Y-114068558D01*
X121898823Y-114162202D01*
X121898832Y-114162205D01*
X122118405Y-114217532D01*
X122251393Y-114228000D01*
X123062000Y-114228000D01*
X123062000Y-112720000D01*
X123570000Y-112720000D01*
X123570000Y-114228000D01*
X124380607Y-114228000D01*
X124513594Y-114217532D01*
X124733167Y-114162205D01*
X124733176Y-114162202D01*
X124939340Y-114068558D01*
X124939346Y-114068555D01*
X125125473Y-113939605D01*
X125125490Y-113939591D01*
X125285591Y-113779490D01*
X125285605Y-113779473D01*
X125414555Y-113593346D01*
X125414558Y-113593340D01*
X125508202Y-113387176D01*
X125508205Y-113387167D01*
X125563532Y-113167594D01*
X125574000Y-113034606D01*
X125574000Y-112474000D01*
X124747116Y-112474000D01*
X124775493Y-112429844D01*
X124816000Y-112291889D01*
X124816000Y-112148111D01*
X124775493Y-112010156D01*
X124747116Y-111966000D01*
X125574000Y-111966000D01*
X125574000Y-111670063D01*
X137950500Y-111670063D01*
X137950501Y-111670073D01*
X137965265Y-111744300D01*
X138021516Y-111828484D01*
X138105697Y-111884733D01*
X138105699Y-111884734D01*
X138179933Y-111899500D01*
X140830066Y-111899499D01*
X140830069Y-111899498D01*
X140830073Y-111899498D01*
X140881837Y-111889202D01*
X140904301Y-111884734D01*
X140988484Y-111828484D01*
X141044734Y-111744301D01*
X141059500Y-111670067D01*
X141059499Y-109019934D01*
X141059498Y-109019930D01*
X141059498Y-109019926D01*
X141044734Y-108945699D01*
X140988483Y-108861515D01*
X140904302Y-108805266D01*
X140830067Y-108790500D01*
X138179936Y-108790500D01*
X138179926Y-108790501D01*
X138105699Y-108805265D01*
X138021515Y-108861516D01*
X137965266Y-108945697D01*
X137950500Y-109019930D01*
X137950500Y-111670063D01*
X125574000Y-111670063D01*
X125574000Y-111405393D01*
X125563532Y-111272405D01*
X125508205Y-111052832D01*
X125508202Y-111052823D01*
X125414558Y-110846659D01*
X125414555Y-110846653D01*
X125285605Y-110660526D01*
X125285591Y-110660509D01*
X125125490Y-110500408D01*
X125125473Y-110500394D01*
X124939346Y-110371444D01*
X124939340Y-110371441D01*
X124733176Y-110277797D01*
X124733167Y-110277794D01*
X124513594Y-110222467D01*
X124380607Y-110212000D01*
X123570000Y-110212000D01*
X123570000Y-111720000D01*
X123062000Y-111720000D01*
X123062000Y-110212000D01*
X122251393Y-110212000D01*
X122118405Y-110222467D01*
X121898832Y-110277794D01*
X121898823Y-110277797D01*
X121692659Y-110371441D01*
X121692653Y-110371444D01*
X121506526Y-110500394D01*
X121506509Y-110500408D01*
X121346408Y-110660509D01*
X121346394Y-110660526D01*
X121217444Y-110846653D01*
X121217441Y-110846659D01*
X121123797Y-111052823D01*
X121123794Y-111052832D01*
X121068467Y-111272405D01*
X121058000Y-111405393D01*
X121058000Y-111966000D01*
X121884884Y-111966000D01*
X121856507Y-112010156D01*
X121816000Y-112148111D01*
X121816000Y-112291889D01*
X121856507Y-112429844D01*
X121884884Y-112474000D01*
X121058000Y-112474000D01*
X121058000Y-113034606D01*
X101752900Y-113034606D01*
X101752900Y-111354000D01*
X111292000Y-111354000D01*
X111292000Y-111898597D01*
X111298505Y-111959093D01*
X111349555Y-112095964D01*
X111349555Y-112095965D01*
X111437095Y-112212904D01*
X111554034Y-112300444D01*
X111690906Y-112351494D01*
X111751402Y-112357999D01*
X111751415Y-112358000D01*
X112546000Y-112358000D01*
X112546000Y-111354000D01*
X113054000Y-111354000D01*
X113054000Y-112358000D01*
X113848585Y-112358000D01*
X113848597Y-112357999D01*
X113909093Y-112351494D01*
X114045964Y-112300444D01*
X114045965Y-112300444D01*
X114162904Y-112212904D01*
X114225714Y-112129000D01*
X115767000Y-112129000D01*
X115767000Y-112263016D01*
X115777605Y-112366818D01*
X115777606Y-112366821D01*
X115833342Y-112535025D01*
X115926365Y-112685839D01*
X115926370Y-112685845D01*
X116051654Y-112811129D01*
X116051660Y-112811134D01*
X116202474Y-112904157D01*
X116370678Y-112959893D01*
X116370681Y-112959894D01*
X116474483Y-112970499D01*
X116474483Y-112970500D01*
X116746000Y-112970500D01*
X116746000Y-112129000D01*
X117254000Y-112129000D01*
X117254000Y-112970500D01*
X117525517Y-112970500D01*
X117525516Y-112970499D01*
X117629318Y-112959894D01*
X117629321Y-112959893D01*
X117797525Y-112904157D01*
X117948339Y-112811134D01*
X117948345Y-112811129D01*
X118073629Y-112685845D01*
X118073634Y-112685839D01*
X118166657Y-112535025D01*
X118222393Y-112366821D01*
X118222394Y-112366818D01*
X118232999Y-112263016D01*
X118233000Y-112263016D01*
X118233000Y-112129000D01*
X117254000Y-112129000D01*
X116746000Y-112129000D01*
X115767000Y-112129000D01*
X114225714Y-112129000D01*
X114250444Y-112095965D01*
X114250444Y-112095964D01*
X114301494Y-111959093D01*
X114307999Y-111898597D01*
X114308000Y-111898585D01*
X114308000Y-111354000D01*
X113054000Y-111354000D01*
X112546000Y-111354000D01*
X111292000Y-111354000D01*
X101752900Y-111354000D01*
X101752900Y-110725063D01*
X105245500Y-110725063D01*
X105245501Y-110725072D01*
X105260265Y-110799300D01*
X105316516Y-110883484D01*
X105400697Y-110939733D01*
X105400699Y-110939734D01*
X105474933Y-110954500D01*
X107525066Y-110954499D01*
X107525069Y-110954498D01*
X107525073Y-110954498D01*
X107574326Y-110944701D01*
X107599301Y-110939734D01*
X107683484Y-110883484D01*
X107739734Y-110799301D01*
X107754500Y-110725067D01*
X107754500Y-109305499D01*
X107774502Y-109237379D01*
X107828158Y-109190886D01*
X107880500Y-109179500D01*
X111419501Y-109179500D01*
X111487622Y-109199502D01*
X111534115Y-109253158D01*
X111545501Y-109305500D01*
X111545500Y-109575063D01*
X111545501Y-109575072D01*
X111560265Y-109649301D01*
X111604569Y-109715605D01*
X111625784Y-109783358D01*
X111607001Y-109851825D01*
X111560190Y-109896194D01*
X111554038Y-109899553D01*
X111437095Y-109987095D01*
X111349555Y-110104034D01*
X111349555Y-110104035D01*
X111298505Y-110240906D01*
X111292000Y-110301402D01*
X111292000Y-110846000D01*
X114308000Y-110846000D01*
X114308000Y-110301414D01*
X114307999Y-110301402D01*
X114301494Y-110240906D01*
X114250444Y-110104035D01*
X114250444Y-110104034D01*
X114162904Y-109987095D01*
X114045964Y-109899555D01*
X114039812Y-109896196D01*
X113989609Y-109845995D01*
X113974516Y-109776621D01*
X113995430Y-109715605D01*
X114039734Y-109649301D01*
X114054500Y-109575067D01*
X114054500Y-109305500D01*
X114074502Y-109237379D01*
X114128158Y-109190886D01*
X114180500Y-109179500D01*
X115726354Y-109179500D01*
X115741894Y-109181761D01*
X115742052Y-109180501D01*
X115752409Y-109181791D01*
X115752410Y-109181792D01*
X115752410Y-109181791D01*
X115752411Y-109181792D01*
X115786196Y-109180395D01*
X115855085Y-109197564D01*
X115880498Y-109217192D01*
X115983670Y-109320364D01*
X116017696Y-109382676D01*
X116019972Y-109410871D01*
X116020500Y-109410871D01*
X116020500Y-110185746D01*
X116020502Y-110185770D01*
X116026959Y-110245839D01*
X116026959Y-110245841D01*
X116077657Y-110381766D01*
X116077658Y-110381767D01*
X116164596Y-110497904D01*
X116280733Y-110584842D01*
X116280736Y-110584843D01*
X116288641Y-110589160D01*
X116287785Y-110590727D01*
X116335953Y-110626780D01*
X116360768Y-110693298D01*
X116345682Y-110762673D01*
X116295484Y-110812879D01*
X116274724Y-110821900D01*
X116202477Y-110845841D01*
X116051660Y-110938865D01*
X116051654Y-110938870D01*
X115926370Y-111064154D01*
X115926365Y-111064160D01*
X115833342Y-111214974D01*
X115777606Y-111383178D01*
X115777605Y-111383181D01*
X115767000Y-111486983D01*
X115767000Y-111621000D01*
X118233000Y-111621000D01*
X118233000Y-111486983D01*
X118222394Y-111383181D01*
X118222393Y-111383178D01*
X118166657Y-111214974D01*
X118073634Y-111064160D01*
X118073629Y-111064154D01*
X117948345Y-110938870D01*
X117948339Y-110938865D01*
X117797522Y-110845841D01*
X117725275Y-110821900D01*
X117666904Y-110781486D01*
X117639649Y-110715929D01*
X117652163Y-110646044D01*
X117700473Y-110594019D01*
X117716706Y-110586240D01*
X117719260Y-110584844D01*
X117719267Y-110584842D01*
X117835404Y-110497904D01*
X117922342Y-110381767D01*
X117973040Y-110245842D01*
X117979500Y-110185755D01*
X117979499Y-109414246D01*
X117973040Y-109354158D01*
X117922342Y-109218233D01*
X117835404Y-109102096D01*
X117719267Y-109015158D01*
X117719265Y-109015157D01*
X117719266Y-109015157D01*
X117583349Y-108964462D01*
X117583344Y-108964460D01*
X117583342Y-108964460D01*
X117575831Y-108963652D01*
X117523262Y-108958000D01*
X117523255Y-108958000D01*
X116746884Y-108958000D01*
X116678763Y-108937998D01*
X116657789Y-108921095D01*
X116305419Y-108568725D01*
X116289029Y-108548542D01*
X116283068Y-108539418D01*
X116283067Y-108539417D01*
X116254770Y-108517393D01*
X116248923Y-108512229D01*
X116246113Y-108509419D01*
X116246112Y-108509418D01*
X116246111Y-108509417D01*
X116246106Y-108509413D01*
X116227974Y-108496467D01*
X116225889Y-108494912D01*
X116183120Y-108461625D01*
X116176140Y-108457848D01*
X116168981Y-108454348D01*
X116168979Y-108454347D01*
X116154892Y-108450153D01*
X116095310Y-108411545D01*
X116066060Y-108346854D01*
X116076428Y-108276619D01*
X116089880Y-108256027D01*
X116089168Y-108255536D01*
X116092385Y-108250876D01*
X125757999Y-108250876D01*
X125758000Y-108966000D01*
X127516000Y-108966000D01*
X127516000Y-109474000D01*
X125758001Y-109474000D01*
X125758001Y-110189123D01*
X125760810Y-110242035D01*
X125760810Y-110242036D01*
X125805514Y-110473181D01*
X125888635Y-110693436D01*
X126007785Y-110896478D01*
X126159535Y-111076464D01*
X126339521Y-111228214D01*
X126542564Y-111347364D01*
X126542563Y-111347364D01*
X126762818Y-111430485D01*
X126993963Y-111475189D01*
X127046876Y-111477999D01*
X127762000Y-111477999D01*
X127762000Y-110651115D01*
X127806156Y-110679493D01*
X127944111Y-110720000D01*
X128087889Y-110720000D01*
X128225844Y-110679493D01*
X128270000Y-110651115D01*
X128270000Y-111477999D01*
X128985123Y-111477999D01*
X129038035Y-111475189D01*
X129038036Y-111475189D01*
X129269181Y-111430485D01*
X129489436Y-111347364D01*
X129692478Y-111228214D01*
X129872464Y-111076464D01*
X130024214Y-110896478D01*
X130143364Y-110693436D01*
X130226485Y-110473181D01*
X130271189Y-110242036D01*
X130274000Y-110189123D01*
X130274000Y-109474000D01*
X128516000Y-109474000D01*
X128516000Y-108966000D01*
X130273999Y-108966000D01*
X130273998Y-108250876D01*
X130271189Y-108197964D01*
X130271189Y-108197963D01*
X130226485Y-107966818D01*
X130143364Y-107746563D01*
X130024214Y-107543521D01*
X129872464Y-107363535D01*
X129692478Y-107211785D01*
X129489435Y-107092635D01*
X129489436Y-107092635D01*
X129269181Y-107009514D01*
X129038036Y-106964810D01*
X128985124Y-106962000D01*
X128270000Y-106962000D01*
X128270000Y-107788884D01*
X128225844Y-107760507D01*
X128087889Y-107720000D01*
X127944111Y-107720000D01*
X127806156Y-107760507D01*
X127761999Y-107788884D01*
X127761999Y-106962000D01*
X127046876Y-106962000D01*
X126993964Y-106964810D01*
X126993963Y-106964810D01*
X126762818Y-107009514D01*
X126542563Y-107092635D01*
X126339521Y-107211785D01*
X126159535Y-107363535D01*
X126007785Y-107543521D01*
X125888635Y-107746563D01*
X125805514Y-107966818D01*
X125760810Y-108197963D01*
X125757999Y-108250876D01*
X116092385Y-108250876D01*
X116093498Y-108249263D01*
X116183787Y-108118457D01*
X116240149Y-107969844D01*
X116240149Y-107969843D01*
X116240150Y-107969841D01*
X116259307Y-107812065D01*
X116259307Y-107812058D01*
X116240149Y-107654280D01*
X116233878Y-107637744D01*
X116228423Y-107566957D01*
X116262104Y-107504459D01*
X116324228Y-107470091D01*
X116351689Y-107467062D01*
X116897846Y-107467062D01*
X121185501Y-107467062D01*
X121253622Y-107487064D01*
X121300115Y-107540720D01*
X121311501Y-107593062D01*
X121311501Y-107995072D01*
X121326265Y-108069300D01*
X121382516Y-108153484D01*
X121466697Y-108209733D01*
X121466699Y-108209734D01*
X121540933Y-108224500D01*
X125091066Y-108224499D01*
X125091069Y-108224498D01*
X125091072Y-108224498D01*
X125127663Y-108217219D01*
X125165301Y-108209734D01*
X125249484Y-108153484D01*
X125305734Y-108069301D01*
X125320500Y-107995067D01*
X125320499Y-104444934D01*
X125305734Y-104370699D01*
X125249484Y-104286516D01*
X125248302Y-104285726D01*
X125165302Y-104230266D01*
X125091067Y-104215500D01*
X121540936Y-104215500D01*
X121540927Y-104215501D01*
X121466699Y-104230265D01*
X121382515Y-104286516D01*
X121326266Y-104370697D01*
X121311500Y-104444930D01*
X121311500Y-105331938D01*
X121291498Y-105400059D01*
X121237842Y-105446552D01*
X121185500Y-105457938D01*
X118058034Y-105457938D01*
X117989913Y-105437936D01*
X117943420Y-105384280D01*
X117933316Y-105314006D01*
X117938429Y-105292305D01*
X117972568Y-105189276D01*
X117972569Y-105189273D01*
X117982999Y-105087184D01*
X117983000Y-105087184D01*
X117983000Y-104991500D01*
X116017000Y-104991500D01*
X116017000Y-105087184D01*
X116027430Y-105189273D01*
X116027431Y-105189276D01*
X116061571Y-105292305D01*
X116064011Y-105363260D01*
X116027703Y-105424270D01*
X115964174Y-105455965D01*
X115941966Y-105457938D01*
X112851057Y-105457938D01*
X112849462Y-105457918D01*
X112787707Y-105456353D01*
X112760827Y-105455672D01*
X112760826Y-105455672D01*
X112760823Y-105455672D01*
X112700228Y-105466532D01*
X112695487Y-105467197D01*
X112634241Y-105473425D01*
X112601366Y-105483739D01*
X112593618Y-105485641D01*
X112580442Y-105488003D01*
X112559724Y-105491717D01*
X112559721Y-105491718D01*
X112553441Y-105492844D01*
X112553302Y-105492069D01*
X112528832Y-105495500D01*
X111774936Y-105495500D01*
X111774926Y-105495501D01*
X111700699Y-105510265D01*
X111616515Y-105566516D01*
X111560266Y-105650697D01*
X111545500Y-105724930D01*
X111545500Y-107275063D01*
X111545501Y-107275073D01*
X111560265Y-107349300D01*
X111616516Y-107433484D01*
X111700697Y-107489733D01*
X111700699Y-107489734D01*
X111774933Y-107504500D01*
X112783975Y-107504499D01*
X112785572Y-107504519D01*
X112876672Y-107506828D01*
X112876672Y-107506827D01*
X112876673Y-107506828D01*
X112878636Y-107506475D01*
X112900871Y-107504499D01*
X113825064Y-107504499D01*
X113825066Y-107504499D01*
X113825069Y-107504498D01*
X113825072Y-107504498D01*
X113835381Y-107502447D01*
X113899301Y-107489734D01*
X113901453Y-107488295D01*
X113906860Y-107486603D01*
X113910769Y-107484984D01*
X113910913Y-107485333D01*
X113969206Y-107467082D01*
X113971454Y-107467062D01*
X114848311Y-107467062D01*
X114916432Y-107487064D01*
X114962925Y-107540720D01*
X114973029Y-107610994D01*
X114966122Y-107637744D01*
X114959850Y-107654280D01*
X114940692Y-107812058D01*
X114940692Y-107812065D01*
X114959849Y-107969841D01*
X114997570Y-108069300D01*
X115016213Y-108118457D01*
X115088322Y-108222925D01*
X115110558Y-108290348D01*
X115092811Y-108359091D01*
X115040716Y-108407327D01*
X114984626Y-108420500D01*
X114180499Y-108420500D01*
X114112378Y-108400498D01*
X114065885Y-108346842D01*
X114054499Y-108294500D01*
X114054499Y-108024936D01*
X114054498Y-108024927D01*
X114039734Y-107950699D01*
X113983483Y-107866515D01*
X113899302Y-107810266D01*
X113825067Y-107795500D01*
X111774936Y-107795500D01*
X111774926Y-107795501D01*
X111700699Y-107810265D01*
X111616515Y-107866516D01*
X111560266Y-107950697D01*
X111545500Y-108024930D01*
X111545500Y-108294500D01*
X111525498Y-108362621D01*
X111471842Y-108409114D01*
X111419500Y-108420500D01*
X107880499Y-108420500D01*
X107812378Y-108400498D01*
X107765885Y-108346842D01*
X107754499Y-108294500D01*
X107754499Y-107593062D01*
X107754499Y-106874934D01*
X107739734Y-106800699D01*
X107683484Y-106716516D01*
X107683483Y-106716515D01*
X107599302Y-106660266D01*
X107525067Y-106645500D01*
X105474936Y-106645500D01*
X105474926Y-106645501D01*
X105400699Y-106660265D01*
X105316515Y-106716516D01*
X105260266Y-106800697D01*
X105245500Y-106874930D01*
X105245500Y-110725063D01*
X101752900Y-110725063D01*
X101752900Y-104483500D01*
X116017000Y-104483500D01*
X116746000Y-104483500D01*
X116746000Y-103692000D01*
X117254000Y-103692000D01*
X117254000Y-104483500D01*
X117983000Y-104483500D01*
X117983000Y-104387815D01*
X117972569Y-104285726D01*
X117972568Y-104285723D01*
X117917751Y-104120292D01*
X117826262Y-103971966D01*
X117826257Y-103971960D01*
X117703039Y-103848742D01*
X117703033Y-103848737D01*
X117554707Y-103757248D01*
X117389276Y-103702431D01*
X117389273Y-103702430D01*
X117287184Y-103692000D01*
X117254000Y-103692000D01*
X116746000Y-103692000D01*
X116712815Y-103692000D01*
X116610726Y-103702430D01*
X116610723Y-103702431D01*
X116445292Y-103757248D01*
X116296966Y-103848737D01*
X116296960Y-103848742D01*
X116173742Y-103971960D01*
X116173737Y-103971966D01*
X116082248Y-104120292D01*
X116027431Y-104285723D01*
X116027430Y-104285726D01*
X116017000Y-104387815D01*
X116017000Y-104483500D01*
X101752900Y-104483500D01*
X101752900Y-102507999D01*
X108601210Y-102507999D01*
X109998789Y-102507999D01*
X109998789Y-102507998D01*
X109300001Y-101809210D01*
X109300000Y-101809210D01*
X108601210Y-102507999D01*
X101752900Y-102507999D01*
X101752900Y-101768967D01*
X107792000Y-101768967D01*
X107806801Y-101900329D01*
X107806803Y-101900340D01*
X107865078Y-102066880D01*
X107865079Y-102066882D01*
X107958951Y-102216279D01*
X108066730Y-102324058D01*
X108940788Y-101450001D01*
X109659210Y-101450001D01*
X110533268Y-102324059D01*
X110533270Y-102324059D01*
X110641047Y-102216281D01*
X110641048Y-102216279D01*
X110734920Y-102066883D01*
X110734921Y-102066880D01*
X110793196Y-101900339D01*
X110807999Y-101768967D01*
X110807999Y-101200003D01*
X114940692Y-101200003D01*
X114959849Y-101357779D01*
X114994825Y-101450000D01*
X115016213Y-101506395D01*
X115106502Y-101637201D01*
X115225471Y-101742599D01*
X115225472Y-101742599D01*
X115225474Y-101742601D01*
X115293989Y-101778560D01*
X115366207Y-101816463D01*
X115520529Y-101854500D01*
X115520530Y-101854500D01*
X115679470Y-101854500D01*
X115679471Y-101854500D01*
X115833793Y-101816463D01*
X115974529Y-101742599D01*
X116093498Y-101637201D01*
X116183787Y-101506395D01*
X116240149Y-101357782D01*
X116246468Y-101305735D01*
X116274533Y-101240525D01*
X116333401Y-101200838D01*
X116404381Y-101199277D01*
X116464936Y-101236338D01*
X116472416Y-101245414D01*
X116505024Y-101288973D01*
X116618281Y-101373755D01*
X116618285Y-101373758D01*
X116750839Y-101423199D01*
X116750847Y-101423201D01*
X116780142Y-101426350D01*
X116809443Y-101429500D01*
X117378556Y-101429499D01*
X117404408Y-101426720D01*
X117437151Y-101423201D01*
X117437152Y-101423200D01*
X117437157Y-101423200D01*
X117569715Y-101373758D01*
X117682974Y-101288974D01*
X117767758Y-101175715D01*
X117817200Y-101043157D01*
X117821877Y-100999660D01*
X117823499Y-100984568D01*
X117823499Y-100984566D01*
X117823500Y-100984557D01*
X117823499Y-100526882D01*
X117843501Y-100458762D01*
X117897156Y-100412269D01*
X117967430Y-100402165D01*
X118032011Y-100431658D01*
X118038594Y-100437788D01*
X118670080Y-101069274D01*
X118686468Y-101089454D01*
X118692430Y-101098579D01*
X118692432Y-101098582D01*
X118720721Y-101120600D01*
X118726578Y-101125773D01*
X118729375Y-101128570D01*
X118729385Y-101128579D01*
X118729387Y-101128581D01*
X118747554Y-101141552D01*
X118749614Y-101143089D01*
X118792381Y-101176375D01*
X118792383Y-101176375D01*
X118799369Y-101180156D01*
X118806516Y-101183649D01*
X118806521Y-101183653D01*
X118858484Y-101199122D01*
X118860887Y-101199892D01*
X118912173Y-101217500D01*
X118912178Y-101217500D01*
X118920011Y-101218807D01*
X118927909Y-101219791D01*
X118927910Y-101219792D01*
X118927910Y-101219791D01*
X118927911Y-101219792D01*
X118936707Y-101219428D01*
X118982035Y-101217553D01*
X118984629Y-101217500D01*
X119673737Y-101217500D01*
X119741858Y-101237502D01*
X119780424Y-101276464D01*
X119802375Y-101311399D01*
X119874880Y-101383905D01*
X119908905Y-101446218D01*
X119903839Y-101517033D01*
X119874880Y-101562095D01*
X119802375Y-101634600D01*
X119780424Y-101669536D01*
X119727246Y-101716574D01*
X119673737Y-101728500D01*
X117550922Y-101728500D01*
X117525064Y-101725818D01*
X117520150Y-101724787D01*
X117514397Y-101723581D01*
X117490046Y-101726617D01*
X117478822Y-101728016D01*
X117471033Y-101728500D01*
X117467057Y-101728500D01*
X117460311Y-101729625D01*
X117445040Y-101732173D01*
X117442468Y-101732547D01*
X117388715Y-101739248D01*
X117381122Y-101741508D01*
X117373571Y-101744100D01*
X117352848Y-101755315D01*
X117292881Y-101770500D01*
X116809451Y-101770500D01*
X116809427Y-101770502D01*
X116750848Y-101776798D01*
X116694717Y-101797734D01*
X116644504Y-101816463D01*
X116618280Y-101826244D01*
X116505025Y-101911025D01*
X116420244Y-102024281D01*
X116420241Y-102024285D01*
X116370800Y-102156839D01*
X116370798Y-102156847D01*
X116364500Y-102215431D01*
X116364500Y-102809548D01*
X116364502Y-102809572D01*
X116370798Y-102868151D01*
X116370799Y-102868156D01*
X116370800Y-102868157D01*
X116420242Y-103000715D01*
X116420243Y-103000716D01*
X116420244Y-103000719D01*
X116505025Y-103113974D01*
X116618281Y-103198755D01*
X116618285Y-103198758D01*
X116750839Y-103248199D01*
X116750847Y-103248201D01*
X116780142Y-103251350D01*
X116809443Y-103254500D01*
X117378556Y-103254499D01*
X117404408Y-103251720D01*
X117437151Y-103248201D01*
X117437152Y-103248200D01*
X117437157Y-103248200D01*
X117569715Y-103198758D01*
X117682974Y-103113974D01*
X117767758Y-103000715D01*
X117817200Y-102868157D01*
X117823499Y-102809572D01*
X117823499Y-102809568D01*
X117823499Y-102809566D01*
X117823500Y-102809557D01*
X117823499Y-102613499D01*
X117843501Y-102545380D01*
X117897156Y-102498887D01*
X117949499Y-102487500D01*
X119673737Y-102487500D01*
X119741858Y-102507502D01*
X119780424Y-102546464D01*
X119802375Y-102581400D01*
X119922597Y-102701622D01*
X119922600Y-102701624D01*
X120066563Y-102792082D01*
X120227046Y-102848237D01*
X120396000Y-102867274D01*
X120564954Y-102848237D01*
X120725437Y-102792082D01*
X120869400Y-102701624D01*
X120989624Y-102581400D01*
X121011575Y-102546464D01*
X121064754Y-102499426D01*
X121118263Y-102487500D01*
X123483737Y-102487500D01*
X123551858Y-102507502D01*
X123590424Y-102546464D01*
X123612375Y-102581400D01*
X123732597Y-102701622D01*
X123732600Y-102701624D01*
X123876563Y-102792082D01*
X124037046Y-102848237D01*
X124206000Y-102867274D01*
X124374954Y-102848237D01*
X124535437Y-102792082D01*
X124679400Y-102701624D01*
X124799624Y-102581400D01*
X124890082Y-102437437D01*
X124946237Y-102276954D01*
X124965274Y-102108000D01*
X124946237Y-101939046D01*
X124890082Y-101778563D01*
X124799624Y-101634600D01*
X124799623Y-101634599D01*
X124799622Y-101634597D01*
X124727120Y-101562095D01*
X124693094Y-101499783D01*
X124698159Y-101428968D01*
X124727120Y-101383905D01*
X124799622Y-101311402D01*
X124799624Y-101311400D01*
X124890082Y-101167437D01*
X124946237Y-101006954D01*
X124965274Y-100838000D01*
X124946237Y-100669046D01*
X124890082Y-100508563D01*
X124867071Y-100471942D01*
X124847766Y-100403622D01*
X124868461Y-100335709D01*
X124893827Y-100307507D01*
X124922212Y-100284212D01*
X125048173Y-100130727D01*
X125048174Y-100130727D01*
X125112946Y-100009548D01*
X127670500Y-100009548D01*
X127670502Y-100009572D01*
X127676798Y-100068151D01*
X127676799Y-100068156D01*
X127676800Y-100068157D01*
X127726242Y-100200715D01*
X127726243Y-100200716D01*
X127726244Y-100200719D01*
X127811025Y-100313974D01*
X127924281Y-100398755D01*
X127924285Y-100398758D01*
X128056839Y-100448199D01*
X128056847Y-100448201D01*
X128086142Y-100451350D01*
X128115443Y-100454500D01*
X128684556Y-100454499D01*
X128710408Y-100451720D01*
X128743151Y-100448201D01*
X128743152Y-100448200D01*
X128743157Y-100448200D01*
X128875715Y-100398758D01*
X128988974Y-100313974D01*
X129073758Y-100200715D01*
X129083734Y-100173966D01*
X129126282Y-100117131D01*
X129192803Y-100092321D01*
X129201790Y-100092000D01*
X131112760Y-100092000D01*
X131180881Y-100112002D01*
X131201855Y-100128905D01*
X131259276Y-100186326D01*
X131316360Y-100215411D01*
X131373445Y-100244498D01*
X131468166Y-100259500D01*
X131468168Y-100259500D01*
X133181832Y-100259500D01*
X133181834Y-100259500D01*
X133276555Y-100244498D01*
X133390723Y-100186326D01*
X133481326Y-100095723D01*
X133539498Y-99981555D01*
X133554500Y-99886834D01*
X133554500Y-99886832D01*
X136045500Y-99886832D01*
X136060501Y-99981553D01*
X136118673Y-100095723D01*
X136209276Y-100186326D01*
X136266360Y-100215411D01*
X136323445Y-100244498D01*
X136382733Y-100253888D01*
X136446887Y-100284300D01*
X136458621Y-100296257D01*
X136463081Y-100301452D01*
X136468675Y-100307968D01*
X136473477Y-100314335D01*
X136492436Y-100343102D01*
X136492437Y-100343103D01*
X136513935Y-100364600D01*
X136535963Y-100386628D01*
X136539206Y-100390127D01*
X136550791Y-100403622D01*
X136574859Y-100431658D01*
X136579322Y-100436856D01*
X136606561Y-100457940D01*
X136612544Y-100463209D01*
X137561336Y-101412001D01*
X138463533Y-102314198D01*
X138497559Y-102376510D01*
X138500438Y-102403293D01*
X138500438Y-104020586D01*
X138480436Y-104088707D01*
X138456269Y-104116397D01*
X138402400Y-104162405D01*
X138243496Y-104348458D01*
X138243495Y-104348460D01*
X138115646Y-104557090D01*
X138022010Y-104783149D01*
X137971990Y-104991500D01*
X137964891Y-105021071D01*
X137945693Y-105265000D01*
X137962908Y-105483739D01*
X137964891Y-105508928D01*
X138022010Y-105746850D01*
X138115646Y-105972909D01*
X138243495Y-106181539D01*
X138243496Y-106181541D01*
X138402402Y-106367597D01*
X138588458Y-106526503D01*
X138588462Y-106526506D01*
X138797089Y-106654353D01*
X139023148Y-106747989D01*
X139261071Y-106805109D01*
X139505000Y-106824307D01*
X139748929Y-106805109D01*
X139986852Y-106747989D01*
X140212911Y-106654353D01*
X140421538Y-106526506D01*
X140607597Y-106367597D01*
X140766506Y-106181538D01*
X140894353Y-105972911D01*
X140987989Y-105746852D01*
X141045109Y-105508929D01*
X141064307Y-105265000D01*
X141045109Y-105021071D01*
X140987989Y-104783148D01*
X140894353Y-104557089D01*
X140766506Y-104348462D01*
X140713599Y-104286516D01*
X140607599Y-104162405D01*
X140553731Y-104116397D01*
X140514922Y-104056946D01*
X140509562Y-104020586D01*
X140509562Y-101948557D01*
X140509582Y-101946962D01*
X140510492Y-101911026D01*
X140511828Y-101858327D01*
X140506077Y-101826242D01*
X140500968Y-101797734D01*
X140500303Y-101792992D01*
X140496471Y-101755315D01*
X140494074Y-101731740D01*
X140483761Y-101698871D01*
X140481858Y-101691118D01*
X140480602Y-101684113D01*
X140475783Y-101657224D01*
X140452950Y-101600064D01*
X140451343Y-101595551D01*
X140432911Y-101536801D01*
X140416190Y-101506677D01*
X140412771Y-101499479D01*
X140399995Y-101467493D01*
X140366116Y-101416089D01*
X140363640Y-101412001D01*
X140333762Y-101358169D01*
X140333757Y-101358162D01*
X140311322Y-101332028D01*
X140306516Y-101325654D01*
X140287565Y-101296899D01*
X140287564Y-101296898D01*
X140265805Y-101275140D01*
X140244034Y-101253369D01*
X140240792Y-101249871D01*
X140232769Y-101240525D01*
X140200680Y-101203146D01*
X140200678Y-101203144D01*
X140200676Y-101203142D01*
X140200674Y-101203140D01*
X140173432Y-101182053D01*
X140167450Y-101176785D01*
X138531693Y-99541028D01*
X138497667Y-99478716D01*
X138496339Y-99471641D01*
X138489498Y-99428446D01*
X138489498Y-99428445D01*
X138431794Y-99315195D01*
X138431326Y-99314276D01*
X138340725Y-99223675D01*
X138332703Y-99217847D01*
X138334883Y-99214846D01*
X138296720Y-99178776D01*
X138279562Y-99115298D01*
X138279562Y-99024701D01*
X138299564Y-98956580D01*
X138334655Y-98924851D01*
X138332697Y-98922157D01*
X138340716Y-98916329D01*
X138340723Y-98916326D01*
X138431326Y-98825723D01*
X138489498Y-98711555D01*
X138504500Y-98616834D01*
X138504500Y-98253166D01*
X138489498Y-98158445D01*
X138444722Y-98070568D01*
X138431326Y-98044276D01*
X138340725Y-97953675D01*
X138332703Y-97947847D01*
X138334883Y-97944846D01*
X138296720Y-97908776D01*
X138279562Y-97845298D01*
X138279562Y-97754701D01*
X138299564Y-97686580D01*
X138334655Y-97654851D01*
X138332697Y-97652157D01*
X138340716Y-97646329D01*
X138340723Y-97646326D01*
X138431326Y-97555723D01*
X138489498Y-97441555D01*
X138504500Y-97346834D01*
X138504500Y-96983166D01*
X138489498Y-96888445D01*
X138438815Y-96788974D01*
X138431326Y-96774276D01*
X138340725Y-96683675D01*
X138332703Y-96677847D01*
X138334883Y-96674846D01*
X138296720Y-96638776D01*
X138279562Y-96575298D01*
X138279562Y-96484701D01*
X138299564Y-96416580D01*
X138334655Y-96384851D01*
X138332697Y-96382157D01*
X138340716Y-96376329D01*
X138340723Y-96376326D01*
X138431326Y-96285723D01*
X138489498Y-96171555D01*
X138504500Y-96076834D01*
X138504500Y-95713166D01*
X138489498Y-95618445D01*
X138446430Y-95533920D01*
X138431326Y-95504276D01*
X138340723Y-95413673D01*
X138226553Y-95355501D01*
X138167264Y-95346111D01*
X138103111Y-95315698D01*
X138091372Y-95303735D01*
X138034325Y-95237284D01*
X137970680Y-95163146D01*
X137809118Y-95038087D01*
X137792034Y-95029707D01*
X137625694Y-94948112D01*
X137427899Y-94896900D01*
X137427894Y-94896899D01*
X137223856Y-94886552D01*
X137021908Y-94917490D01*
X137021900Y-94917493D01*
X136830319Y-94988445D01*
X136830316Y-94988447D01*
X136656932Y-95096518D01*
X136656931Y-95096519D01*
X136508848Y-95237282D01*
X136508846Y-95237284D01*
X136470014Y-95293076D01*
X136414681Y-95337561D01*
X136386309Y-95345545D01*
X136323446Y-95355501D01*
X136209276Y-95413673D01*
X136118673Y-95504276D01*
X136060501Y-95618446D01*
X136047875Y-95698165D01*
X136045500Y-95713166D01*
X136045500Y-96076834D01*
X136047431Y-96089028D01*
X136060501Y-96171553D01*
X136060501Y-96171554D01*
X136060502Y-96171555D01*
X136118674Y-96285723D01*
X136209277Y-96376326D01*
X136209280Y-96376327D01*
X136217303Y-96382157D01*
X136215112Y-96385171D01*
X136253217Y-96421116D01*
X136270438Y-96484701D01*
X136270438Y-96575298D01*
X136250436Y-96643419D01*
X136215352Y-96675171D01*
X136217297Y-96677847D01*
X136209274Y-96683675D01*
X136118673Y-96774276D01*
X136060501Y-96888446D01*
X136045500Y-96983167D01*
X136045500Y-97346832D01*
X136060501Y-97441553D01*
X136112446Y-97543501D01*
X136118674Y-97555723D01*
X136209277Y-97646326D01*
X136209280Y-97646327D01*
X136217303Y-97652157D01*
X136215112Y-97655171D01*
X136253217Y-97691116D01*
X136270438Y-97754701D01*
X136270438Y-97845298D01*
X136250436Y-97913419D01*
X136215352Y-97945171D01*
X136217297Y-97947847D01*
X136209274Y-97953675D01*
X136118673Y-98044276D01*
X136060501Y-98158446D01*
X136051675Y-98214179D01*
X136045500Y-98253166D01*
X136045500Y-98616834D01*
X136047419Y-98628950D01*
X136060501Y-98711553D01*
X136118457Y-98825299D01*
X136118674Y-98825723D01*
X136209277Y-98916326D01*
X136209280Y-98916327D01*
X136217303Y-98922157D01*
X136215112Y-98925171D01*
X136253217Y-98961116D01*
X136270438Y-99024701D01*
X136270438Y-99115298D01*
X136250436Y-99183419D01*
X136215352Y-99215171D01*
X136217297Y-99217847D01*
X136209274Y-99223675D01*
X136118673Y-99314276D01*
X136060501Y-99428446D01*
X136045500Y-99523167D01*
X136045500Y-99886832D01*
X133554500Y-99886832D01*
X133554500Y-99523166D01*
X133539498Y-99428445D01*
X133481326Y-99314277D01*
X133481325Y-99314276D01*
X133481323Y-99314272D01*
X133481017Y-99313850D01*
X133480803Y-99313250D01*
X133476824Y-99305441D01*
X133477833Y-99304926D01*
X133457160Y-99246982D01*
X133473243Y-99177830D01*
X133518818Y-99131337D01*
X133556501Y-99109051D01*
X133556503Y-99109050D01*
X133674050Y-98991503D01*
X133674051Y-98991501D01*
X133758681Y-98848401D01*
X133804993Y-98689000D01*
X130845007Y-98689000D01*
X130891318Y-98848401D01*
X130975948Y-98991501D01*
X130975949Y-98991503D01*
X131099107Y-99114661D01*
X131097671Y-99116096D01*
X131132988Y-99164999D01*
X131136837Y-99235891D01*
X131101748Y-99297610D01*
X131038862Y-99330562D01*
X131014194Y-99333000D01*
X129201790Y-99333000D01*
X129133669Y-99312998D01*
X129087176Y-99259342D01*
X129083735Y-99251034D01*
X129078087Y-99235891D01*
X129073758Y-99224285D01*
X129045256Y-99186210D01*
X128988974Y-99111025D01*
X128875718Y-99026244D01*
X128875714Y-99026241D01*
X128743160Y-98976800D01*
X128743152Y-98976798D01*
X128684560Y-98970500D01*
X128115451Y-98970500D01*
X128115427Y-98970502D01*
X128056848Y-98976798D01*
X127924280Y-99026244D01*
X127811025Y-99111025D01*
X127726244Y-99224281D01*
X127726241Y-99224285D01*
X127676800Y-99356839D01*
X127676798Y-99356847D01*
X127670500Y-99415431D01*
X127670500Y-100009548D01*
X125112946Y-100009548D01*
X125141775Y-99955612D01*
X125141776Y-99955610D01*
X125182307Y-99822000D01*
X124416059Y-99822000D01*
X124418129Y-99820805D01*
X124491801Y-99733007D01*
X124531000Y-99625306D01*
X124531000Y-99510694D01*
X124491801Y-99402993D01*
X124418129Y-99315195D01*
X124416059Y-99314000D01*
X125182307Y-99314000D01*
X125182307Y-99313999D01*
X125141776Y-99180389D01*
X125141775Y-99180387D01*
X125048175Y-99005275D01*
X124986237Y-98929804D01*
X124958483Y-98864457D01*
X124959900Y-98829225D01*
X124959893Y-98829225D01*
X124959905Y-98829101D01*
X124960058Y-98825285D01*
X124960500Y-98823067D01*
X124960499Y-97772934D01*
X124960498Y-97772927D01*
X124960498Y-97772926D01*
X124945734Y-97698699D01*
X124903386Y-97635322D01*
X124889484Y-97614516D01*
X124889483Y-97614515D01*
X124805302Y-97558266D01*
X124731067Y-97543500D01*
X123680936Y-97543500D01*
X123680926Y-97543501D01*
X123606699Y-97558265D01*
X123522515Y-97614516D01*
X123466266Y-97698697D01*
X123451500Y-97772930D01*
X123451500Y-97792500D01*
X123431498Y-97860621D01*
X123377842Y-97907114D01*
X123325500Y-97918500D01*
X121276499Y-97918500D01*
X121208378Y-97898498D01*
X121161885Y-97844842D01*
X121150499Y-97792500D01*
X121150499Y-97772936D01*
X121150498Y-97772927D01*
X121135734Y-97698699D01*
X121093386Y-97635322D01*
X121079484Y-97614516D01*
X121079483Y-97614515D01*
X120995302Y-97558266D01*
X120921067Y-97543500D01*
X119870936Y-97543500D01*
X119870926Y-97543501D01*
X119796699Y-97558265D01*
X119712515Y-97614516D01*
X119656266Y-97698697D01*
X119641500Y-97772930D01*
X119641500Y-97792500D01*
X119621498Y-97860621D01*
X119567842Y-97907114D01*
X119515500Y-97918500D01*
X118469884Y-97918500D01*
X118401763Y-97898498D01*
X118380789Y-97881595D01*
X117860404Y-97361210D01*
X117826378Y-97298898D01*
X117823499Y-97272115D01*
X117823499Y-96834451D01*
X117823499Y-96834444D01*
X117821299Y-96813974D01*
X117817201Y-96775848D01*
X117817200Y-96775846D01*
X117817200Y-96775843D01*
X117767758Y-96643285D01*
X117767755Y-96643281D01*
X117767755Y-96643280D01*
X117682974Y-96530025D01*
X117562501Y-96439841D01*
X117563354Y-96438700D01*
X117519911Y-96395255D01*
X117504500Y-96334872D01*
X117504500Y-95519902D01*
X117524502Y-95451781D01*
X117546942Y-95425593D01*
X117618498Y-95362201D01*
X117708787Y-95231395D01*
X117765149Y-95082782D01*
X117765149Y-95082781D01*
X117765150Y-95082779D01*
X117784307Y-94925003D01*
X117784307Y-94924996D01*
X117765150Y-94767220D01*
X117731692Y-94679000D01*
X117708787Y-94618605D01*
X117618498Y-94487799D01*
X117499529Y-94382401D01*
X117499528Y-94382400D01*
X117499525Y-94382398D01*
X117358797Y-94308539D01*
X117358795Y-94308538D01*
X117358793Y-94308537D01*
X117358791Y-94308536D01*
X117358790Y-94308536D01*
X117204472Y-94270500D01*
X117204471Y-94270500D01*
X117045529Y-94270500D01*
X117045527Y-94270500D01*
X116891209Y-94308536D01*
X116891202Y-94308539D01*
X116750474Y-94382398D01*
X116750469Y-94382402D01*
X116631501Y-94487800D01*
X116541215Y-94618601D01*
X116541212Y-94618607D01*
X116484849Y-94767220D01*
X116465692Y-94924996D01*
X116465692Y-94925003D01*
X116484849Y-95082779D01*
X116541212Y-95231392D01*
X116541215Y-95231398D01*
X116631500Y-95362199D01*
X116631501Y-95362200D01*
X116631502Y-95362201D01*
X116703055Y-95425592D01*
X116740779Y-95485734D01*
X116745500Y-95519902D01*
X116745500Y-96310309D01*
X116725498Y-96378430D01*
X116671842Y-96424923D01*
X116663534Y-96428364D01*
X116618283Y-96445242D01*
X116505025Y-96530025D01*
X116420244Y-96643281D01*
X116420241Y-96643285D01*
X116370800Y-96775839D01*
X116370798Y-96775847D01*
X116364500Y-96834431D01*
X116364500Y-97272115D01*
X116344498Y-97340236D01*
X116327599Y-97361205D01*
X116156962Y-97531843D01*
X116062724Y-97626081D01*
X116042551Y-97642464D01*
X116033419Y-97648430D01*
X116033416Y-97648433D01*
X116011394Y-97676727D01*
X116006231Y-97682573D01*
X116005285Y-97683519D01*
X116003414Y-97685391D01*
X115990456Y-97703539D01*
X115988903Y-97705622D01*
X115955628Y-97748376D01*
X115951835Y-97755384D01*
X115948347Y-97762520D01*
X115932888Y-97814442D01*
X115932094Y-97816920D01*
X115914499Y-97868175D01*
X115913194Y-97875995D01*
X115912207Y-97883912D01*
X115914445Y-97938016D01*
X115914499Y-97940619D01*
X115914500Y-99835073D01*
X115911818Y-99860930D01*
X115909580Y-99871599D01*
X115910637Y-99880072D01*
X115914016Y-99907183D01*
X115914500Y-99914973D01*
X115914500Y-99918943D01*
X115916907Y-99933370D01*
X115918170Y-99940940D01*
X115918544Y-99943513D01*
X115925247Y-99997281D01*
X115927517Y-100004906D01*
X115930099Y-100012427D01*
X115955875Y-100060056D01*
X115957065Y-100062369D01*
X115968631Y-100086026D01*
X115980874Y-100111068D01*
X115980875Y-100111069D01*
X115985493Y-100117538D01*
X115990378Y-100123814D01*
X115996182Y-100129157D01*
X116032752Y-100190012D01*
X116030615Y-100260976D01*
X115990452Y-100319520D01*
X115970808Y-100332671D01*
X115939924Y-100349384D01*
X115937611Y-100350574D01*
X115888932Y-100374374D01*
X115882478Y-100378981D01*
X115876184Y-100383880D01*
X115839487Y-100423742D01*
X115837686Y-100425619D01*
X115754708Y-100508596D01*
X115692399Y-100542620D01*
X115665615Y-100545500D01*
X115520527Y-100545500D01*
X115366209Y-100583536D01*
X115366202Y-100583539D01*
X115225474Y-100657398D01*
X115225469Y-100657402D01*
X115106501Y-100762800D01*
X115016215Y-100893601D01*
X115016212Y-100893607D01*
X114959849Y-101042220D01*
X114940692Y-101199996D01*
X114940692Y-101200003D01*
X110807999Y-101200003D01*
X110807999Y-101131032D01*
X110793198Y-100999670D01*
X110793196Y-100999659D01*
X110734921Y-100833119D01*
X110734920Y-100833116D01*
X110641048Y-100683720D01*
X110641047Y-100683718D01*
X110533270Y-100575941D01*
X110533268Y-100575941D01*
X109659210Y-101449999D01*
X109659210Y-101450001D01*
X108940788Y-101450001D01*
X108940789Y-101450000D01*
X108066730Y-100575941D01*
X107958951Y-100683720D01*
X107865079Y-100833117D01*
X107865078Y-100833119D01*
X107806803Y-100999660D01*
X107792000Y-101131032D01*
X107792000Y-101768967D01*
X101752900Y-101768967D01*
X101752900Y-100392000D01*
X108601209Y-100392000D01*
X109299999Y-101090790D01*
X109300000Y-101090790D01*
X109998789Y-100392000D01*
X108601209Y-100392000D01*
X101752900Y-100392000D01*
X101752900Y-97266455D01*
X108045500Y-97266455D01*
X108055718Y-97351545D01*
X108109116Y-97486951D01*
X108109118Y-97486954D01*
X108197066Y-97602933D01*
X108257064Y-97648430D01*
X108313047Y-97690883D01*
X108350423Y-97705622D01*
X108448454Y-97744281D01*
X108448453Y-97744281D01*
X108470130Y-97746884D01*
X108533548Y-97754500D01*
X108533549Y-97754500D01*
X110066451Y-97754500D01*
X110066452Y-97754500D01*
X110151545Y-97744281D01*
X110286953Y-97690883D01*
X110402933Y-97602933D01*
X110490883Y-97486953D01*
X110501797Y-97459274D01*
X110545395Y-97403243D01*
X110612366Y-97379675D01*
X110619012Y-97379500D01*
X112547573Y-97379500D01*
X112573431Y-97382181D01*
X112584100Y-97384419D01*
X112619683Y-97379983D01*
X112627474Y-97379500D01*
X112631436Y-97379500D01*
X112631443Y-97379500D01*
X112653450Y-97375826D01*
X112655990Y-97375457D01*
X112709783Y-97368752D01*
X112709784Y-97368751D01*
X112709788Y-97368751D01*
X112717386Y-97366488D01*
X112724923Y-97363901D01*
X112724923Y-97363900D01*
X112724927Y-97363900D01*
X112772568Y-97338116D01*
X112774852Y-97336940D01*
X112823568Y-97313126D01*
X112823570Y-97313123D01*
X112830018Y-97308520D01*
X112836312Y-97303620D01*
X112836316Y-97303619D01*
X112873032Y-97263733D01*
X112874767Y-97261925D01*
X114031276Y-96105416D01*
X114051453Y-96089031D01*
X114060582Y-96083068D01*
X114082607Y-96054769D01*
X114087775Y-96048917D01*
X114090580Y-96046114D01*
X114103565Y-96027925D01*
X114105059Y-96025920D01*
X114138375Y-95983119D01*
X114138376Y-95983117D01*
X114142157Y-95976130D01*
X114145649Y-95968984D01*
X114145653Y-95968980D01*
X114161122Y-95917018D01*
X114161903Y-95914583D01*
X114179500Y-95863327D01*
X114179500Y-95863319D01*
X114180810Y-95855470D01*
X114181792Y-95847593D01*
X114181140Y-95831839D01*
X114179553Y-95793476D01*
X114179500Y-95790880D01*
X114179500Y-92654000D01*
X116052000Y-92654000D01*
X116052000Y-92798597D01*
X116058505Y-92859093D01*
X116109555Y-92995964D01*
X116109555Y-92995965D01*
X116197095Y-93112904D01*
X116314034Y-93200444D01*
X116450906Y-93251494D01*
X116511402Y-93257999D01*
X116511415Y-93258000D01*
X116656000Y-93258000D01*
X117164000Y-93258000D01*
X117308585Y-93258000D01*
X117308597Y-93257999D01*
X117369093Y-93251494D01*
X117505964Y-93200444D01*
X117505965Y-93200444D01*
X117622904Y-93112904D01*
X117673437Y-93045400D01*
X117730272Y-93002853D01*
X117798887Y-92997330D01*
X117834933Y-93004500D01*
X118285066Y-93004499D01*
X118329921Y-92995577D01*
X118400630Y-93001905D01*
X118456698Y-93045458D01*
X118480318Y-93112411D01*
X118480499Y-93119156D01*
X118480499Y-93870076D01*
X118477819Y-93895921D01*
X118475581Y-93906600D01*
X118480016Y-93942183D01*
X118480500Y-93949973D01*
X118480500Y-93953943D01*
X118482907Y-93968370D01*
X118484170Y-93975940D01*
X118484544Y-93978513D01*
X118491247Y-94032281D01*
X118493517Y-94039906D01*
X118496099Y-94047427D01*
X118521875Y-94095056D01*
X118523065Y-94097369D01*
X118530769Y-94113126D01*
X118546874Y-94146068D01*
X118546876Y-94146070D01*
X118547043Y-94146304D01*
X118547173Y-94146679D01*
X118551459Y-94155445D01*
X118550399Y-94155962D01*
X118570350Y-94213366D01*
X118570500Y-94219522D01*
X118570500Y-94659548D01*
X118570502Y-94659572D01*
X118576798Y-94718151D01*
X118576799Y-94718156D01*
X118576800Y-94718157D01*
X118626242Y-94850715D01*
X118626243Y-94850716D01*
X118626244Y-94850719D01*
X118711025Y-94963974D01*
X118824281Y-95048755D01*
X118824285Y-95048758D01*
X118956839Y-95098199D01*
X118956847Y-95098201D01*
X118986142Y-95101350D01*
X119015443Y-95104500D01*
X119584556Y-95104499D01*
X119610408Y-95101720D01*
X119643151Y-95098201D01*
X119643152Y-95098200D01*
X119643157Y-95098200D01*
X119775715Y-95048758D01*
X119888974Y-94963974D01*
X119949909Y-94882572D01*
X120006744Y-94840028D01*
X120077560Y-94834962D01*
X120139872Y-94868987D01*
X120170382Y-94918450D01*
X120207248Y-95029707D01*
X120298737Y-95178033D01*
X120298742Y-95178039D01*
X120421960Y-95301257D01*
X120421966Y-95301262D01*
X120502880Y-95351170D01*
X120550358Y-95403956D01*
X120561761Y-95474031D01*
X120537602Y-95533919D01*
X120451243Y-95649282D01*
X120451241Y-95649285D01*
X120422616Y-95726033D01*
X120380070Y-95782869D01*
X120313549Y-95807679D01*
X120304561Y-95808000D01*
X120101790Y-95808000D01*
X120033669Y-95787998D01*
X119987176Y-95734342D01*
X119983735Y-95726034D01*
X119981505Y-95720056D01*
X119973758Y-95699285D01*
X119953653Y-95672427D01*
X119888974Y-95586025D01*
X119775718Y-95501244D01*
X119775714Y-95501241D01*
X119643160Y-95451800D01*
X119643152Y-95451798D01*
X119584560Y-95445500D01*
X119015451Y-95445500D01*
X119015427Y-95445502D01*
X118956848Y-95451798D01*
X118824280Y-95501244D01*
X118711025Y-95586025D01*
X118626244Y-95699281D01*
X118626241Y-95699285D01*
X118576800Y-95831839D01*
X118576798Y-95831847D01*
X118570500Y-95890431D01*
X118570500Y-96484548D01*
X118570502Y-96484572D01*
X118576798Y-96543151D01*
X118576799Y-96543156D01*
X118576800Y-96543157D01*
X118626242Y-96675715D01*
X118626243Y-96675716D01*
X118626244Y-96675719D01*
X118711025Y-96788974D01*
X118824281Y-96873755D01*
X118824285Y-96873758D01*
X118956839Y-96923199D01*
X118956847Y-96923201D01*
X118986142Y-96926350D01*
X119015443Y-96929500D01*
X119584556Y-96929499D01*
X119610408Y-96926720D01*
X119643151Y-96923201D01*
X119643152Y-96923200D01*
X119643157Y-96923200D01*
X119775715Y-96873758D01*
X119888974Y-96788974D01*
X119973758Y-96675715D01*
X119983734Y-96648966D01*
X120026282Y-96592131D01*
X120092803Y-96567321D01*
X120101790Y-96567000D01*
X120313885Y-96567000D01*
X120382006Y-96587002D01*
X120428499Y-96640658D01*
X120431940Y-96648966D01*
X120451242Y-96700715D01*
X120451244Y-96700718D01*
X120536025Y-96813974D01*
X120649281Y-96898755D01*
X120649285Y-96898758D01*
X120781839Y-96948199D01*
X120781847Y-96948201D01*
X120811142Y-96951350D01*
X120840443Y-96954500D01*
X121409556Y-96954499D01*
X121435408Y-96951720D01*
X121468151Y-96948201D01*
X121468152Y-96948200D01*
X121468157Y-96948200D01*
X121600715Y-96898758D01*
X121713974Y-96813974D01*
X121798758Y-96700715D01*
X121848200Y-96568157D01*
X121848325Y-96567000D01*
X121854499Y-96509568D01*
X121854499Y-96509566D01*
X121854500Y-96509557D01*
X121854499Y-95840444D01*
X121850977Y-95807679D01*
X121848201Y-95781848D01*
X121848200Y-95781846D01*
X121848200Y-95781843D01*
X121798758Y-95649285D01*
X121798755Y-95649281D01*
X121798755Y-95649280D01*
X121712398Y-95533920D01*
X121687587Y-95467399D01*
X121702679Y-95398025D01*
X121747120Y-95351170D01*
X121828030Y-95301264D01*
X121828039Y-95301257D01*
X121951257Y-95178039D01*
X121951262Y-95178033D01*
X122042751Y-95029707D01*
X122097568Y-94864276D01*
X122097569Y-94864273D01*
X122107999Y-94762184D01*
X122108000Y-94762184D01*
X122108000Y-94679000D01*
X120997000Y-94679000D01*
X120928879Y-94658998D01*
X120882386Y-94605342D01*
X120871000Y-94553000D01*
X120871000Y-93392000D01*
X121379000Y-93392000D01*
X121379000Y-94171000D01*
X122108000Y-94171000D01*
X122108000Y-94087815D01*
X122097569Y-93985726D01*
X122097568Y-93985723D01*
X122042751Y-93820292D01*
X121951262Y-93671966D01*
X121951257Y-93671960D01*
X121828039Y-93548742D01*
X121828033Y-93548737D01*
X121679707Y-93457248D01*
X121514276Y-93402431D01*
X121514273Y-93402430D01*
X121412184Y-93392000D01*
X121379000Y-93392000D01*
X120871000Y-93392000D01*
X120837815Y-93392000D01*
X120735726Y-93402430D01*
X120735723Y-93402431D01*
X120570292Y-93457248D01*
X120421966Y-93548737D01*
X120421960Y-93548742D01*
X120298742Y-93671960D01*
X120298737Y-93671966D01*
X120207248Y-93820293D01*
X120199092Y-93844906D01*
X120158676Y-93903276D01*
X120093119Y-93930530D01*
X120023235Y-93918015D01*
X119978620Y-93880779D01*
X119888974Y-93761025D01*
X119775718Y-93676244D01*
X119775714Y-93676241D01*
X119643160Y-93626800D01*
X119643152Y-93626798D01*
X119584568Y-93620500D01*
X119584557Y-93620500D01*
X119365500Y-93620500D01*
X119297379Y-93600498D01*
X119250886Y-93546842D01*
X119239500Y-93494500D01*
X119239500Y-93379790D01*
X119259502Y-93311669D01*
X119313158Y-93265176D01*
X119378971Y-93254512D01*
X119411404Y-93257999D01*
X119411415Y-93258000D01*
X119460000Y-93258000D01*
X119860000Y-93258000D01*
X119908585Y-93258000D01*
X119908597Y-93257999D01*
X119969093Y-93251494D01*
X120105963Y-93200445D01*
X120222906Y-93112900D01*
X120266258Y-93054990D01*
X120323093Y-93012443D01*
X120367122Y-93004499D01*
X120685066Y-93004499D01*
X120685069Y-93004498D01*
X120685072Y-93004498D01*
X120729924Y-92995577D01*
X120759301Y-92989734D01*
X120789997Y-92969222D01*
X120857747Y-92948007D01*
X120926214Y-92966788D01*
X120929990Y-92969214D01*
X120960699Y-92989734D01*
X121034933Y-93004500D01*
X121485066Y-93004499D01*
X121485069Y-93004498D01*
X121485073Y-93004498D01*
X121534326Y-92994701D01*
X121559301Y-92989734D01*
X121589997Y-92969222D01*
X121657747Y-92948007D01*
X121726214Y-92966788D01*
X121729990Y-92969214D01*
X121760699Y-92989734D01*
X121834933Y-93004500D01*
X122285066Y-93004499D01*
X122285069Y-93004498D01*
X122285073Y-93004498D01*
X122305986Y-93000337D01*
X122359301Y-92989734D01*
X122389995Y-92969224D01*
X122457749Y-92948008D01*
X122526216Y-92966790D01*
X122530001Y-92969223D01*
X122560697Y-92989733D01*
X122560699Y-92989734D01*
X122634933Y-93004500D01*
X123085066Y-93004499D01*
X123085069Y-93004498D01*
X123085073Y-93004498D01*
X123105986Y-93000337D01*
X123159301Y-92989734D01*
X123189995Y-92969224D01*
X123257749Y-92948008D01*
X123326216Y-92966790D01*
X123330001Y-92969223D01*
X123360697Y-92989733D01*
X123360699Y-92989734D01*
X123434933Y-93004500D01*
X123885066Y-93004499D01*
X123885069Y-93004498D01*
X123885073Y-93004498D01*
X123905986Y-93000337D01*
X123959301Y-92989734D01*
X123989995Y-92969224D01*
X124057749Y-92948008D01*
X124126216Y-92966790D01*
X124130001Y-92969223D01*
X124160697Y-92989733D01*
X124160699Y-92989734D01*
X124234933Y-93004500D01*
X124685066Y-93004499D01*
X124685069Y-93004498D01*
X124685073Y-93004498D01*
X124705986Y-93000337D01*
X124759301Y-92989734D01*
X124789995Y-92969224D01*
X124857749Y-92948008D01*
X124926216Y-92966790D01*
X124930001Y-92969223D01*
X124960697Y-92989733D01*
X124960699Y-92989734D01*
X125034933Y-93004500D01*
X125485066Y-93004499D01*
X125529921Y-92995577D01*
X125600630Y-93001905D01*
X125656698Y-93045458D01*
X125680318Y-93112411D01*
X125680499Y-93119156D01*
X125680499Y-95495077D01*
X125677818Y-95520929D01*
X125675580Y-95531600D01*
X125678051Y-95551422D01*
X125680016Y-95567183D01*
X125680500Y-95574973D01*
X125680500Y-95578943D01*
X125681682Y-95586025D01*
X125684170Y-95600940D01*
X125684544Y-95603513D01*
X125691247Y-95657281D01*
X125693517Y-95664906D01*
X125696099Y-95672427D01*
X125721875Y-95720056D01*
X125723065Y-95722369D01*
X125728919Y-95734342D01*
X125746874Y-95771068D01*
X125746875Y-95771069D01*
X125751493Y-95777538D01*
X125756376Y-95783812D01*
X125796242Y-95820511D01*
X125798096Y-95822290D01*
X126727404Y-96751598D01*
X127633595Y-97657789D01*
X127667621Y-97720101D01*
X127670500Y-97746884D01*
X127670500Y-98184548D01*
X127670502Y-98184572D01*
X127676798Y-98243151D01*
X127676799Y-98243156D01*
X127676800Y-98243157D01*
X127726242Y-98375715D01*
X127726243Y-98375716D01*
X127726244Y-98375719D01*
X127811025Y-98488974D01*
X127924281Y-98573755D01*
X127924285Y-98573758D01*
X128056839Y-98623199D01*
X128056847Y-98623201D01*
X128086142Y-98626350D01*
X128115443Y-98629500D01*
X128684556Y-98629499D01*
X128710408Y-98626720D01*
X128743151Y-98623201D01*
X128743152Y-98623200D01*
X128743157Y-98623200D01*
X128875715Y-98573758D01*
X128988974Y-98488974D01*
X129073758Y-98375715D01*
X129113098Y-98270242D01*
X129123199Y-98243160D01*
X129123201Y-98243152D01*
X129129499Y-98184568D01*
X129129499Y-98184566D01*
X129129500Y-98184557D01*
X129129499Y-97590444D01*
X129123200Y-97531843D01*
X129081111Y-97419000D01*
X130845007Y-97419000D01*
X130891318Y-97578401D01*
X130975947Y-97721500D01*
X130976939Y-97722779D01*
X130977403Y-97723963D01*
X130979981Y-97728321D01*
X130979277Y-97728736D01*
X131002882Y-97788866D01*
X130988978Y-97858487D01*
X130976939Y-97877221D01*
X130975947Y-97878499D01*
X130891318Y-98021598D01*
X130845007Y-98181000D01*
X132071000Y-98181000D01*
X132071000Y-97419000D01*
X132579000Y-97419000D01*
X132579000Y-98181000D01*
X133804992Y-98181000D01*
X133758681Y-98021598D01*
X133674052Y-97878499D01*
X133673067Y-97877229D01*
X133672604Y-97876050D01*
X133670019Y-97871679D01*
X133670723Y-97871262D01*
X133647118Y-97811145D01*
X133661016Y-97741522D01*
X133673067Y-97722771D01*
X133674052Y-97721500D01*
X133758681Y-97578401D01*
X133804993Y-97419000D01*
X132579000Y-97419000D01*
X132071000Y-97419000D01*
X130845007Y-97419000D01*
X129081111Y-97419000D01*
X129073758Y-97399285D01*
X129073755Y-97399281D01*
X129073755Y-97399280D01*
X128988974Y-97286025D01*
X128875718Y-97201244D01*
X128875714Y-97201241D01*
X128743160Y-97151800D01*
X128743152Y-97151798D01*
X128684568Y-97145500D01*
X128684557Y-97145500D01*
X128246884Y-97145500D01*
X128178763Y-97125498D01*
X128157789Y-97108595D01*
X127198194Y-96149000D01*
X130845007Y-96149000D01*
X130891318Y-96308401D01*
X130975947Y-96451500D01*
X130976939Y-96452779D01*
X130977403Y-96453963D01*
X130979981Y-96458321D01*
X130979277Y-96458736D01*
X131002882Y-96518866D01*
X130988978Y-96588487D01*
X130976932Y-96607229D01*
X130975946Y-96608499D01*
X130891318Y-96751598D01*
X130845007Y-96911000D01*
X132071000Y-96911000D01*
X132071000Y-96149000D01*
X132579000Y-96149000D01*
X132579000Y-96911000D01*
X133804992Y-96911000D01*
X133758681Y-96751598D01*
X133674052Y-96608499D01*
X133673067Y-96607229D01*
X133672604Y-96606050D01*
X133670019Y-96601679D01*
X133670723Y-96601262D01*
X133647118Y-96541145D01*
X133661016Y-96471522D01*
X133673067Y-96452771D01*
X133674052Y-96451500D01*
X133758681Y-96308401D01*
X133804993Y-96149000D01*
X132579000Y-96149000D01*
X132071000Y-96149000D01*
X130845007Y-96149000D01*
X127198194Y-96149000D01*
X126690194Y-95641000D01*
X130845007Y-95641000D01*
X132071000Y-95641000D01*
X132071000Y-95087000D01*
X132579000Y-95087000D01*
X132579000Y-95641000D01*
X133804992Y-95641000D01*
X133758681Y-95481598D01*
X133674051Y-95338498D01*
X133674050Y-95338496D01*
X133556503Y-95220949D01*
X133556501Y-95220948D01*
X133413401Y-95136318D01*
X133253748Y-95089934D01*
X133253750Y-95089934D01*
X133216456Y-95087000D01*
X132579000Y-95087000D01*
X132071000Y-95087000D01*
X131433544Y-95087000D01*
X131396249Y-95089934D01*
X131236599Y-95136318D01*
X131093498Y-95220948D01*
X131093496Y-95220949D01*
X130975949Y-95338496D01*
X130975948Y-95338498D01*
X130891318Y-95481598D01*
X130845007Y-95641000D01*
X126690194Y-95641000D01*
X126476405Y-95427211D01*
X126442379Y-95364899D01*
X126439500Y-95338116D01*
X126439500Y-93280383D01*
X126459502Y-93212262D01*
X126513158Y-93165769D01*
X126583432Y-93155665D01*
X126648012Y-93185159D01*
X126654567Y-93191261D01*
X127494585Y-94031279D01*
X127510968Y-94051454D01*
X127516930Y-94060579D01*
X127516932Y-94060582D01*
X127545221Y-94082600D01*
X127551078Y-94087773D01*
X127553875Y-94090570D01*
X127553885Y-94090579D01*
X127553887Y-94090581D01*
X127572054Y-94103552D01*
X127574114Y-94105089D01*
X127599912Y-94125168D01*
X127616881Y-94138375D01*
X127616883Y-94138375D01*
X127623869Y-94142156D01*
X127631016Y-94145649D01*
X127631021Y-94145653D01*
X127682984Y-94161122D01*
X127685387Y-94161892D01*
X127736673Y-94179500D01*
X127736678Y-94179500D01*
X127744511Y-94180807D01*
X127752409Y-94181791D01*
X127752410Y-94181792D01*
X127752410Y-94181791D01*
X127752411Y-94181792D01*
X127761207Y-94181428D01*
X127806535Y-94179553D01*
X127809129Y-94179500D01*
X133497573Y-94179500D01*
X133523431Y-94182181D01*
X133534100Y-94184419D01*
X133569683Y-94179983D01*
X133577474Y-94179500D01*
X133581436Y-94179500D01*
X133581443Y-94179500D01*
X133603450Y-94175826D01*
X133605990Y-94175457D01*
X133659783Y-94168752D01*
X133659784Y-94168751D01*
X133659788Y-94168751D01*
X133667386Y-94166488D01*
X133674923Y-94163901D01*
X133674923Y-94163900D01*
X133674927Y-94163900D01*
X133722568Y-94138116D01*
X133724852Y-94136940D01*
X133773568Y-94113126D01*
X133773570Y-94113123D01*
X133780018Y-94108520D01*
X133786312Y-94103620D01*
X133786316Y-94103619D01*
X133823032Y-94063733D01*
X133824791Y-94061901D01*
X137395288Y-90491405D01*
X137457601Y-90457379D01*
X137484384Y-90454500D01*
X138466451Y-90454500D01*
X138466452Y-90454500D01*
X138551545Y-90444281D01*
X138686953Y-90390883D01*
X138802933Y-90302933D01*
X138890883Y-90186953D01*
X138944281Y-90051545D01*
X138954500Y-89966452D01*
X138954500Y-89333548D01*
X138944281Y-89248455D01*
X138890883Y-89113047D01*
X138856644Y-89067896D01*
X138802933Y-88997066D01*
X138686954Y-88909118D01*
X138686953Y-88909117D01*
X138686951Y-88909116D01*
X138551545Y-88855718D01*
X138551546Y-88855718D01*
X138466455Y-88845500D01*
X138466452Y-88845500D01*
X136933548Y-88845500D01*
X136933544Y-88845500D01*
X136848454Y-88855718D01*
X136713048Y-88909116D01*
X136713045Y-88909118D01*
X136597066Y-88997066D01*
X136509118Y-89113045D01*
X136509116Y-89113048D01*
X136455718Y-89248454D01*
X136445500Y-89333544D01*
X136445500Y-89966455D01*
X136455718Y-90051545D01*
X136511955Y-90194150D01*
X136518338Y-90264859D01*
X136485480Y-90327794D01*
X136483835Y-90329469D01*
X133429711Y-93383595D01*
X133367399Y-93417620D01*
X133340616Y-93420500D01*
X129490574Y-93420500D01*
X129422453Y-93400498D01*
X129375960Y-93346842D01*
X129365856Y-93276568D01*
X129395350Y-93211988D01*
X129415065Y-93193632D01*
X129522904Y-93112904D01*
X129610444Y-92995965D01*
X129610444Y-92995964D01*
X129661494Y-92859093D01*
X129667999Y-92798597D01*
X129668000Y-92798585D01*
X129668000Y-92654000D01*
X128682000Y-92654000D01*
X128613879Y-92633998D01*
X128567386Y-92580342D01*
X128556000Y-92528000D01*
X128556000Y-92272000D01*
X128576002Y-92203879D01*
X128629658Y-92157386D01*
X128682000Y-92146000D01*
X129668000Y-92146000D01*
X129668000Y-92001414D01*
X129667999Y-92001402D01*
X129661494Y-91940906D01*
X129610444Y-91804035D01*
X129610444Y-91804034D01*
X129522905Y-91687097D01*
X129464989Y-91643741D01*
X129422443Y-91586905D01*
X129414499Y-91542876D01*
X129414499Y-91224934D01*
X129399734Y-91150699D01*
X129379222Y-91120001D01*
X129358007Y-91052251D01*
X129376789Y-90983784D01*
X129379207Y-90980020D01*
X129399734Y-90949301D01*
X129414500Y-90875067D01*
X129414499Y-90424934D01*
X129414498Y-90424927D01*
X129414498Y-90424926D01*
X129399734Y-90350700D01*
X129399734Y-90350699D01*
X129379222Y-90320001D01*
X129358007Y-90252251D01*
X129376789Y-90183784D01*
X129379207Y-90180020D01*
X129399734Y-90149301D01*
X129414500Y-90075067D01*
X129414499Y-89624934D01*
X129414498Y-89624927D01*
X129414498Y-89624926D01*
X129399734Y-89550700D01*
X129399734Y-89550699D01*
X129379222Y-89520001D01*
X129358007Y-89452251D01*
X129376789Y-89383784D01*
X129379207Y-89380020D01*
X129399734Y-89349301D01*
X129414500Y-89275067D01*
X129414499Y-88824934D01*
X129414498Y-88824930D01*
X129414498Y-88824926D01*
X129399734Y-88750700D01*
X129399734Y-88750699D01*
X129379222Y-88720001D01*
X129358007Y-88652251D01*
X129376789Y-88583784D01*
X129379207Y-88580020D01*
X129399734Y-88549301D01*
X129414500Y-88475067D01*
X129414499Y-88024934D01*
X129414498Y-88024927D01*
X129414498Y-88024926D01*
X129399734Y-87950700D01*
X129399734Y-87950699D01*
X129379222Y-87920001D01*
X129358007Y-87852251D01*
X129376789Y-87783784D01*
X129379207Y-87780020D01*
X129399734Y-87749301D01*
X129414500Y-87675067D01*
X129414499Y-87224934D01*
X129414498Y-87224930D01*
X129414498Y-87224926D01*
X129399734Y-87150700D01*
X129399734Y-87150699D01*
X129379222Y-87120001D01*
X129358007Y-87052251D01*
X129376789Y-86983784D01*
X129379207Y-86980020D01*
X129399734Y-86949301D01*
X129414500Y-86875067D01*
X129414499Y-86424934D01*
X129414498Y-86424930D01*
X129414498Y-86424926D01*
X129399734Y-86350700D01*
X129399734Y-86350699D01*
X129379222Y-86320001D01*
X129358007Y-86252251D01*
X129370146Y-86207999D01*
X137001210Y-86207999D01*
X138398789Y-86207999D01*
X138398789Y-86207998D01*
X137700001Y-85509210D01*
X137700000Y-85509210D01*
X137001210Y-86207999D01*
X129370146Y-86207999D01*
X129376789Y-86183784D01*
X129379207Y-86180020D01*
X129399734Y-86149301D01*
X129414500Y-86075067D01*
X129414499Y-85624934D01*
X129414498Y-85624927D01*
X129414498Y-85624926D01*
X129399734Y-85550700D01*
X129399734Y-85550699D01*
X129379222Y-85520001D01*
X129363241Y-85468967D01*
X136192000Y-85468967D01*
X136206801Y-85600329D01*
X136206803Y-85600340D01*
X136265078Y-85766880D01*
X136265079Y-85766883D01*
X136358951Y-85916279D01*
X136358952Y-85916281D01*
X136466730Y-86024059D01*
X136466732Y-86024059D01*
X137340790Y-85150001D01*
X137340790Y-85150000D01*
X138059210Y-85150000D01*
X138933268Y-86024059D01*
X138933270Y-86024059D01*
X139041047Y-85916281D01*
X139041048Y-85916279D01*
X139134920Y-85766883D01*
X139134921Y-85766880D01*
X139193196Y-85600339D01*
X139207999Y-85468967D01*
X139207999Y-84831032D01*
X139193198Y-84699670D01*
X139193196Y-84699659D01*
X139134921Y-84533119D01*
X139134920Y-84533116D01*
X139041048Y-84383720D01*
X139041047Y-84383718D01*
X138933270Y-84275941D01*
X138933268Y-84275941D01*
X138059210Y-85149999D01*
X138059210Y-85150000D01*
X137340790Y-85150000D01*
X137340790Y-85149999D01*
X136466732Y-84275941D01*
X136466730Y-84275941D01*
X136358952Y-84383718D01*
X136358951Y-84383720D01*
X136265079Y-84533116D01*
X136265078Y-84533119D01*
X136206803Y-84699660D01*
X136192000Y-84831032D01*
X136192000Y-85468967D01*
X129363241Y-85468967D01*
X129358007Y-85452251D01*
X129376789Y-85383784D01*
X129379207Y-85380020D01*
X129399734Y-85349301D01*
X129414500Y-85275067D01*
X129414499Y-84824934D01*
X129414498Y-84824930D01*
X129414498Y-84824926D01*
X129399734Y-84750700D01*
X129399734Y-84750699D01*
X129379222Y-84720001D01*
X129358007Y-84652251D01*
X129376789Y-84583784D01*
X129379207Y-84580020D01*
X129399734Y-84549301D01*
X129414500Y-84475067D01*
X129414499Y-84092000D01*
X137001209Y-84092000D01*
X137699999Y-84790790D01*
X137700000Y-84790790D01*
X138398789Y-84092000D01*
X137001209Y-84092000D01*
X129414499Y-84092000D01*
X129414499Y-84024934D01*
X129414498Y-84024930D01*
X129414498Y-84024926D01*
X129399734Y-83950700D01*
X129399734Y-83950699D01*
X129379222Y-83920001D01*
X129358007Y-83852251D01*
X129376789Y-83783784D01*
X129379207Y-83780020D01*
X129399734Y-83749301D01*
X129414500Y-83675067D01*
X129414499Y-83357123D01*
X129434501Y-83289005D01*
X129464991Y-83256256D01*
X129522904Y-83212903D01*
X129610444Y-83095965D01*
X129610444Y-83095964D01*
X129661494Y-82959093D01*
X129667999Y-82898597D01*
X129668000Y-82898585D01*
X129668000Y-82754000D01*
X127968191Y-82754000D01*
X127954568Y-82750000D01*
X127860000Y-82750000D01*
X127860000Y-83458000D01*
X127908585Y-83458000D01*
X127908592Y-83457999D01*
X127966028Y-83451823D01*
X128035897Y-83464427D01*
X128087860Y-83512804D01*
X128105500Y-83577100D01*
X128105500Y-83675062D01*
X128105501Y-83675073D01*
X128120266Y-83749301D01*
X128120265Y-83749301D01*
X128140776Y-83779996D01*
X128161992Y-83847749D01*
X128143210Y-83916216D01*
X128140777Y-83920001D01*
X128120266Y-83950697D01*
X128105500Y-84024930D01*
X128105500Y-84475063D01*
X128105501Y-84475073D01*
X128120266Y-84549301D01*
X128120265Y-84549301D01*
X128140776Y-84579996D01*
X128161992Y-84647749D01*
X128143210Y-84716216D01*
X128140777Y-84720001D01*
X128120266Y-84750697D01*
X128105500Y-84824930D01*
X128105500Y-85275063D01*
X128105501Y-85275073D01*
X128120266Y-85349301D01*
X128120265Y-85349301D01*
X128140776Y-85379996D01*
X128161992Y-85447749D01*
X128143210Y-85516216D01*
X128140777Y-85520001D01*
X128120266Y-85550697D01*
X128105500Y-85624930D01*
X128105500Y-86075063D01*
X128105501Y-86075073D01*
X128114422Y-86119920D01*
X128108093Y-86190634D01*
X128064538Y-86246701D01*
X127997586Y-86270319D01*
X127990843Y-86270500D01*
X127030543Y-86270500D01*
X126971988Y-86256067D01*
X126833797Y-86183539D01*
X126833795Y-86183538D01*
X126833793Y-86183537D01*
X126833791Y-86183536D01*
X126833790Y-86183536D01*
X126679472Y-86145500D01*
X126679471Y-86145500D01*
X126520529Y-86145500D01*
X126520527Y-86145500D01*
X126366209Y-86183536D01*
X126366202Y-86183539D01*
X126225474Y-86257398D01*
X126225469Y-86257402D01*
X126106501Y-86362800D01*
X126016215Y-86493601D01*
X126016212Y-86493607D01*
X125959849Y-86642220D01*
X125940692Y-86799996D01*
X125940692Y-86800003D01*
X125959849Y-86957779D01*
X126001089Y-87066516D01*
X126016213Y-87106395D01*
X126106502Y-87237201D01*
X126189832Y-87311025D01*
X126231176Y-87347653D01*
X126229244Y-87349833D01*
X126265429Y-87394476D01*
X126273219Y-87465044D01*
X126241621Y-87528621D01*
X126207715Y-87554592D01*
X126121768Y-87599701D01*
X126002800Y-87705099D01*
X125912514Y-87835900D01*
X125912511Y-87835906D01*
X125856148Y-87984519D01*
X125836992Y-88142295D01*
X125836992Y-88142302D01*
X125856148Y-88300078D01*
X125896730Y-88407081D01*
X125912512Y-88448694D01*
X126002801Y-88579500D01*
X126121770Y-88684898D01*
X126121771Y-88684898D01*
X126121773Y-88684900D01*
X126188653Y-88720001D01*
X126262506Y-88758762D01*
X126416828Y-88796799D01*
X126416829Y-88796799D01*
X126575769Y-88796799D01*
X126575770Y-88796799D01*
X126730092Y-88758762D01*
X126870828Y-88684898D01*
X126989797Y-88579500D01*
X127080086Y-88448694D01*
X127136448Y-88300081D01*
X127136448Y-88300080D01*
X127136449Y-88300078D01*
X127155606Y-88142302D01*
X127155606Y-88142296D01*
X127149725Y-88093864D01*
X127161370Y-88023829D01*
X127185711Y-87989580D01*
X127308888Y-87866404D01*
X127371200Y-87832379D01*
X127397983Y-87829500D01*
X127990842Y-87829500D01*
X128058963Y-87849502D01*
X128105456Y-87903158D01*
X128115560Y-87973432D01*
X128114421Y-87980081D01*
X128105500Y-88024927D01*
X128105500Y-88475063D01*
X128105501Y-88475073D01*
X128120266Y-88549301D01*
X128120265Y-88549301D01*
X128140776Y-88579996D01*
X128161992Y-88647749D01*
X128143210Y-88716216D01*
X128140777Y-88720001D01*
X128120266Y-88750697D01*
X128105500Y-88824930D01*
X128105500Y-89275063D01*
X128105501Y-89275073D01*
X128120266Y-89349301D01*
X128120265Y-89349301D01*
X128140776Y-89379996D01*
X128161992Y-89447749D01*
X128143210Y-89516216D01*
X128140777Y-89520001D01*
X128120266Y-89550697D01*
X128105500Y-89624930D01*
X128105500Y-90075063D01*
X128105501Y-90075073D01*
X128120266Y-90149301D01*
X128120265Y-90149301D01*
X128140776Y-90179996D01*
X128161992Y-90247749D01*
X128143210Y-90316216D01*
X128140777Y-90320001D01*
X128120266Y-90350697D01*
X128105500Y-90424930D01*
X128105500Y-90875063D01*
X128105501Y-90875073D01*
X128120266Y-90949301D01*
X128120265Y-90949301D01*
X128140776Y-90979996D01*
X128161992Y-91047749D01*
X128143210Y-91116216D01*
X128140777Y-91120001D01*
X128120266Y-91150697D01*
X128105500Y-91224930D01*
X128105500Y-91585815D01*
X128085498Y-91653936D01*
X128031842Y-91700429D01*
X127961568Y-91710533D01*
X127954919Y-91709394D01*
X127885069Y-91695500D01*
X127434936Y-91695500D01*
X127434926Y-91695501D01*
X127360698Y-91710265D01*
X127330002Y-91730777D01*
X127262249Y-91751992D01*
X127193782Y-91733209D01*
X127189997Y-91730776D01*
X127159302Y-91710266D01*
X127085068Y-91695500D01*
X126634936Y-91695500D01*
X126634926Y-91695501D01*
X126560698Y-91710265D01*
X126530002Y-91730777D01*
X126462249Y-91751992D01*
X126393782Y-91733209D01*
X126389997Y-91730776D01*
X126359302Y-91710266D01*
X126285068Y-91695500D01*
X125834936Y-91695500D01*
X125834926Y-91695501D01*
X125760698Y-91710265D01*
X125730002Y-91730777D01*
X125662249Y-91751992D01*
X125593782Y-91733209D01*
X125589997Y-91730776D01*
X125559302Y-91710266D01*
X125485068Y-91695500D01*
X125034936Y-91695500D01*
X125034926Y-91695501D01*
X124960698Y-91710265D01*
X124930002Y-91730777D01*
X124862249Y-91751992D01*
X124793782Y-91733209D01*
X124789997Y-91730776D01*
X124759302Y-91710266D01*
X124685068Y-91695500D01*
X124234936Y-91695500D01*
X124234926Y-91695501D01*
X124160698Y-91710265D01*
X124130002Y-91730777D01*
X124062249Y-91751992D01*
X123993782Y-91733209D01*
X123989997Y-91730776D01*
X123959302Y-91710266D01*
X123885068Y-91695500D01*
X123434936Y-91695500D01*
X123434926Y-91695501D01*
X123360698Y-91710265D01*
X123330002Y-91730777D01*
X123262249Y-91751992D01*
X123193782Y-91733209D01*
X123189997Y-91730776D01*
X123159302Y-91710266D01*
X123085068Y-91695500D01*
X122634936Y-91695500D01*
X122634926Y-91695501D01*
X122560698Y-91710265D01*
X122530002Y-91730777D01*
X122462249Y-91751992D01*
X122393782Y-91733209D01*
X122389997Y-91730776D01*
X122359302Y-91710266D01*
X122285068Y-91695500D01*
X121834936Y-91695500D01*
X121834926Y-91695501D01*
X121760698Y-91710265D01*
X121730002Y-91730777D01*
X121662249Y-91751992D01*
X121593782Y-91733209D01*
X121589997Y-91730776D01*
X121559302Y-91710266D01*
X121485068Y-91695500D01*
X121034936Y-91695500D01*
X121034926Y-91695501D01*
X120960698Y-91710265D01*
X120930002Y-91730777D01*
X120862249Y-91751992D01*
X120793782Y-91733209D01*
X120789997Y-91730776D01*
X120759302Y-91710266D01*
X120685069Y-91695500D01*
X120367126Y-91695500D01*
X120299005Y-91675498D01*
X120266258Y-91645010D01*
X120222902Y-91587094D01*
X120105965Y-91499555D01*
X119969093Y-91448505D01*
X119908597Y-91442000D01*
X119860000Y-91442000D01*
X119860000Y-93258000D01*
X119460000Y-93258000D01*
X119460000Y-91442000D01*
X119411402Y-91442000D01*
X119350906Y-91448505D01*
X119214035Y-91499555D01*
X119214034Y-91499555D01*
X119097097Y-91587094D01*
X119053742Y-91645010D01*
X118996906Y-91687556D01*
X118952874Y-91695500D01*
X118634936Y-91695500D01*
X118634926Y-91695501D01*
X118560698Y-91710265D01*
X118530002Y-91730777D01*
X118462249Y-91751992D01*
X118393782Y-91733209D01*
X118389997Y-91730776D01*
X118359302Y-91710266D01*
X118285069Y-91695500D01*
X117965691Y-91695500D01*
X117897570Y-91675498D01*
X117876596Y-91658595D01*
X117868001Y-91650000D01*
X117164000Y-91650000D01*
X117164000Y-93258000D01*
X116656000Y-93258000D01*
X116656000Y-92654000D01*
X116052000Y-92654000D01*
X114179500Y-92654000D01*
X114179500Y-92322128D01*
X114199502Y-92254007D01*
X114253158Y-92207514D01*
X114261469Y-92204072D01*
X114275712Y-92198759D01*
X114275711Y-92198759D01*
X114275715Y-92198758D01*
X114388974Y-92113974D01*
X114473758Y-92000715D01*
X114523200Y-91868157D01*
X114529499Y-91809572D01*
X114529499Y-91809568D01*
X114529499Y-91809566D01*
X114529500Y-91809557D01*
X114529500Y-91650000D01*
X116052000Y-91650000D01*
X116052000Y-91698597D01*
X116058505Y-91759093D01*
X116058505Y-91759094D01*
X116075988Y-91805966D01*
X116081053Y-91876782D01*
X116075988Y-91894030D01*
X116058505Y-91940904D01*
X116052000Y-92001402D01*
X116052000Y-92146000D01*
X116656000Y-92146000D01*
X116656000Y-91650000D01*
X116052000Y-91650000D01*
X114529500Y-91650000D01*
X114529499Y-91115444D01*
X114527785Y-91099503D01*
X114523201Y-91056848D01*
X114523200Y-91056846D01*
X114523200Y-91056843D01*
X114473758Y-90924285D01*
X114473755Y-90924281D01*
X114473755Y-90924280D01*
X114413004Y-90843126D01*
X114388193Y-90776606D01*
X114403285Y-90707231D01*
X114447726Y-90660375D01*
X114503036Y-90626260D01*
X114626257Y-90503039D01*
X114626262Y-90503033D01*
X114717751Y-90354707D01*
X114772568Y-90189276D01*
X114772569Y-90189273D01*
X114782999Y-90087184D01*
X114783000Y-90087184D01*
X114783000Y-89991500D01*
X113672000Y-89991500D01*
X113603879Y-89971498D01*
X113557386Y-89917842D01*
X113546000Y-89865500D01*
X113546000Y-89609500D01*
X113566002Y-89541379D01*
X113619658Y-89494886D01*
X113672000Y-89483500D01*
X114782999Y-89483500D01*
X114797560Y-89468939D01*
X114859872Y-89434914D01*
X114881449Y-89432142D01*
X114889910Y-89431792D01*
X114944023Y-89429553D01*
X114946619Y-89429500D01*
X116190842Y-89429500D01*
X116258963Y-89449502D01*
X116305456Y-89503158D01*
X116315560Y-89573432D01*
X116314421Y-89580081D01*
X116305500Y-89624927D01*
X116305500Y-90075063D01*
X116305501Y-90075073D01*
X116320266Y-90149301D01*
X116320265Y-90149301D01*
X116340776Y-90179996D01*
X116361992Y-90247749D01*
X116343210Y-90316216D01*
X116340777Y-90320001D01*
X116320266Y-90350697D01*
X116305500Y-90424930D01*
X116305500Y-90742873D01*
X116285498Y-90810994D01*
X116255011Y-90843740D01*
X116197094Y-90887097D01*
X116109555Y-91004034D01*
X116109555Y-91004035D01*
X116058505Y-91140906D01*
X116052000Y-91201402D01*
X116052000Y-91250000D01*
X117868000Y-91250000D01*
X117868000Y-91201414D01*
X117867999Y-91201402D01*
X117861494Y-91140906D01*
X117810444Y-91004035D01*
X117810444Y-91004034D01*
X117722905Y-90887097D01*
X117664989Y-90843741D01*
X117622443Y-90786905D01*
X117614499Y-90742876D01*
X117614499Y-90424934D01*
X117614497Y-90424926D01*
X117599734Y-90350700D01*
X117599734Y-90350699D01*
X117579222Y-90320001D01*
X117558007Y-90252251D01*
X117576789Y-90183784D01*
X117579207Y-90180020D01*
X117599734Y-90149301D01*
X117614500Y-90075067D01*
X117614499Y-89624934D01*
X117614498Y-89624927D01*
X117614498Y-89624926D01*
X117599734Y-89550700D01*
X117599734Y-89550699D01*
X117579222Y-89520001D01*
X117558007Y-89452251D01*
X117576789Y-89383784D01*
X117579207Y-89380020D01*
X117599734Y-89349301D01*
X117614500Y-89275067D01*
X117614499Y-88824934D01*
X117614498Y-88824930D01*
X117614498Y-88824926D01*
X117599734Y-88750700D01*
X117599734Y-88750699D01*
X117579222Y-88720001D01*
X117558007Y-88652251D01*
X117576789Y-88583784D01*
X117579207Y-88580020D01*
X117599734Y-88549301D01*
X117614500Y-88475067D01*
X117614499Y-88024934D01*
X117614498Y-88024927D01*
X117614498Y-88024926D01*
X117599734Y-87950700D01*
X117599734Y-87950699D01*
X117579222Y-87920001D01*
X117558007Y-87852251D01*
X117576789Y-87783784D01*
X117579207Y-87780020D01*
X117599734Y-87749301D01*
X117614500Y-87675067D01*
X117614499Y-87224934D01*
X117614498Y-87224930D01*
X117614498Y-87224926D01*
X117599734Y-87150700D01*
X117599734Y-87150699D01*
X117579222Y-87120001D01*
X117558007Y-87052251D01*
X117576789Y-86983784D01*
X117579207Y-86980020D01*
X117599734Y-86949301D01*
X117614500Y-86875067D01*
X117614499Y-86424934D01*
X117614498Y-86424930D01*
X117614498Y-86424926D01*
X117599734Y-86350700D01*
X117599734Y-86350699D01*
X117579222Y-86320001D01*
X117558007Y-86252251D01*
X117576789Y-86183784D01*
X117579207Y-86180020D01*
X117599734Y-86149301D01*
X117614500Y-86075067D01*
X117614499Y-85624934D01*
X117614498Y-85624927D01*
X117614498Y-85624926D01*
X117605578Y-85580080D01*
X117611907Y-85509366D01*
X117655462Y-85453299D01*
X117722414Y-85429681D01*
X117729157Y-85429500D01*
X118265616Y-85429500D01*
X118333737Y-85449502D01*
X118354711Y-85466405D01*
X118410587Y-85522281D01*
X118444613Y-85584593D01*
X118446574Y-85626561D01*
X118440692Y-85675002D01*
X118440693Y-85675003D01*
X118459849Y-85832779D01*
X118508447Y-85960919D01*
X118516213Y-85981395D01*
X118606502Y-86112201D01*
X118725471Y-86217599D01*
X118725472Y-86217599D01*
X118725474Y-86217601D01*
X118755737Y-86233484D01*
X118866207Y-86291463D01*
X119020529Y-86329500D01*
X119020530Y-86329500D01*
X119179470Y-86329500D01*
X119179471Y-86329500D01*
X119333793Y-86291463D01*
X119474529Y-86217599D01*
X119593498Y-86112201D01*
X119683787Y-85981395D01*
X119740149Y-85832782D01*
X119740149Y-85832781D01*
X119740150Y-85832779D01*
X119759307Y-85675003D01*
X119759307Y-85674996D01*
X119740150Y-85517220D01*
X119714467Y-85449502D01*
X119683787Y-85368605D01*
X119593498Y-85237799D01*
X119474529Y-85132401D01*
X119474528Y-85132400D01*
X119474525Y-85132398D01*
X119333797Y-85058539D01*
X119333795Y-85058538D01*
X119333793Y-85058537D01*
X119333791Y-85058536D01*
X119333790Y-85058536D01*
X119179472Y-85020500D01*
X119179471Y-85020500D01*
X119034384Y-85020500D01*
X118966263Y-85000498D01*
X118945289Y-84983595D01*
X118780419Y-84818725D01*
X118764029Y-84798542D01*
X118758068Y-84789418D01*
X118758067Y-84789417D01*
X118729770Y-84767393D01*
X118723923Y-84762229D01*
X118721113Y-84759419D01*
X118721112Y-84759418D01*
X118721111Y-84759417D01*
X118721106Y-84759413D01*
X118702974Y-84746467D01*
X118700889Y-84744912D01*
X118658120Y-84711625D01*
X118651140Y-84707848D01*
X118643977Y-84704346D01*
X118592063Y-84688890D01*
X118589584Y-84688096D01*
X118538326Y-84670499D01*
X118530504Y-84669194D01*
X118522589Y-84668207D01*
X118478056Y-84670049D01*
X118468475Y-84670446D01*
X118465881Y-84670500D01*
X117989790Y-84670500D01*
X117921669Y-84650498D01*
X117875176Y-84596842D01*
X117864512Y-84531029D01*
X117867999Y-84498595D01*
X117868000Y-84498585D01*
X117868000Y-84450000D01*
X116052000Y-84450000D01*
X116052000Y-84498595D01*
X116055488Y-84531029D01*
X116042883Y-84600898D01*
X115994506Y-84652861D01*
X115930210Y-84670500D01*
X114889927Y-84670500D01*
X114864068Y-84667818D01*
X114853398Y-84665580D01*
X114830093Y-84668486D01*
X114817816Y-84670016D01*
X114810026Y-84670500D01*
X114806055Y-84670500D01*
X114784071Y-84674168D01*
X114781497Y-84674543D01*
X114727715Y-84681248D01*
X114720124Y-84683507D01*
X114712572Y-84686100D01*
X114664939Y-84711877D01*
X114662625Y-84713068D01*
X114613934Y-84736872D01*
X114607470Y-84741487D01*
X114601184Y-84746380D01*
X114564487Y-84786242D01*
X114562685Y-84788120D01*
X114042209Y-85308595D01*
X113979897Y-85342621D01*
X113953114Y-85345500D01*
X113515451Y-85345500D01*
X113515427Y-85345502D01*
X113456848Y-85351798D01*
X113324280Y-85401244D01*
X113211025Y-85486025D01*
X113126244Y-85599281D01*
X113126241Y-85599285D01*
X113076800Y-85731839D01*
X113076798Y-85731847D01*
X113070500Y-85790431D01*
X113070500Y-86384548D01*
X113070502Y-86384572D01*
X113076798Y-86443151D01*
X113076799Y-86443156D01*
X113076800Y-86443157D01*
X113126242Y-86575715D01*
X113126243Y-86575716D01*
X113126244Y-86575719D01*
X113211025Y-86688974D01*
X113324281Y-86773755D01*
X113324285Y-86773758D01*
X113456839Y-86823199D01*
X113456847Y-86823201D01*
X113486142Y-86826350D01*
X113515443Y-86829500D01*
X114084556Y-86829499D01*
X114110408Y-86826720D01*
X114143151Y-86823201D01*
X114143152Y-86823200D01*
X114143157Y-86823200D01*
X114275715Y-86773758D01*
X114388974Y-86688974D01*
X114473758Y-86575715D01*
X114523200Y-86443157D01*
X114525160Y-86424934D01*
X114529499Y-86384568D01*
X114529499Y-86384566D01*
X114529500Y-86384557D01*
X114529499Y-85946883D01*
X114549501Y-85878763D01*
X114566399Y-85857793D01*
X114957789Y-85466404D01*
X115020102Y-85432379D01*
X115046885Y-85429500D01*
X116190842Y-85429500D01*
X116258963Y-85449502D01*
X116305456Y-85503158D01*
X116315560Y-85573432D01*
X116314421Y-85580081D01*
X116305500Y-85624927D01*
X116305500Y-86075063D01*
X116305501Y-86075073D01*
X116320266Y-86149301D01*
X116320265Y-86149301D01*
X116340776Y-86179996D01*
X116361992Y-86247749D01*
X116343210Y-86316216D01*
X116340777Y-86320001D01*
X116320266Y-86350697D01*
X116305500Y-86424930D01*
X116305500Y-86875063D01*
X116305501Y-86875073D01*
X116320266Y-86949301D01*
X116320265Y-86949301D01*
X116340776Y-86979996D01*
X116361992Y-87047749D01*
X116343210Y-87116216D01*
X116340777Y-87120001D01*
X116320266Y-87150697D01*
X116305500Y-87224930D01*
X116305500Y-87675063D01*
X116305501Y-87675073D01*
X116320266Y-87749301D01*
X116320265Y-87749301D01*
X116340776Y-87779996D01*
X116361992Y-87847749D01*
X116343210Y-87916216D01*
X116340777Y-87920001D01*
X116320266Y-87950697D01*
X116305500Y-88024930D01*
X116305500Y-88475063D01*
X116305501Y-88475073D01*
X116314422Y-88519920D01*
X116308093Y-88590634D01*
X116264538Y-88646701D01*
X116197586Y-88670319D01*
X116190843Y-88670500D01*
X115146884Y-88670500D01*
X115078763Y-88650498D01*
X115057789Y-88633595D01*
X114566404Y-88142210D01*
X114532378Y-88079898D01*
X114529499Y-88053115D01*
X114529499Y-87615451D01*
X114529499Y-87615444D01*
X114523200Y-87556847D01*
X114523200Y-87556846D01*
X114523200Y-87556843D01*
X114473758Y-87424285D01*
X114473755Y-87424281D01*
X114473755Y-87424280D01*
X114388974Y-87311025D01*
X114275718Y-87226244D01*
X114275714Y-87226241D01*
X114143160Y-87176800D01*
X114143152Y-87176798D01*
X114084560Y-87170500D01*
X113515451Y-87170500D01*
X113515427Y-87170502D01*
X113456848Y-87176798D01*
X113456842Y-87176800D01*
X113456843Y-87176800D01*
X113327787Y-87224936D01*
X113324280Y-87226244D01*
X113211025Y-87311025D01*
X113126244Y-87424281D01*
X113126241Y-87424285D01*
X113076800Y-87556839D01*
X113076798Y-87556847D01*
X113070500Y-87615431D01*
X113070500Y-88053115D01*
X113050498Y-88121236D01*
X113033599Y-88142205D01*
X112875727Y-88300078D01*
X112768724Y-88407081D01*
X112748551Y-88423464D01*
X112739419Y-88429430D01*
X112739416Y-88429433D01*
X112717394Y-88457727D01*
X112712231Y-88463573D01*
X112711285Y-88464519D01*
X112709414Y-88466391D01*
X112696456Y-88484539D01*
X112694903Y-88486622D01*
X112661628Y-88529376D01*
X112657835Y-88536384D01*
X112654347Y-88543520D01*
X112638888Y-88595442D01*
X112638094Y-88597920D01*
X112620499Y-88649175D01*
X112619194Y-88656995D01*
X112618207Y-88664910D01*
X112620446Y-88719014D01*
X112620500Y-88721619D01*
X112620500Y-90610073D01*
X112617818Y-90635932D01*
X112615580Y-90646600D01*
X112620015Y-90682182D01*
X112620499Y-90689968D01*
X112620499Y-90693935D01*
X112620501Y-90693949D01*
X112624169Y-90715941D01*
X112624544Y-90718514D01*
X112631247Y-90772281D01*
X112633517Y-90779906D01*
X112636099Y-90787427D01*
X112661875Y-90835056D01*
X112663065Y-90837369D01*
X112679108Y-90870183D01*
X112686874Y-90886068D01*
X112686875Y-90886069D01*
X112691493Y-90892538D01*
X112696376Y-90898812D01*
X112736242Y-90935511D01*
X112738096Y-90937290D01*
X112890540Y-91089734D01*
X113033595Y-91232789D01*
X113067621Y-91295101D01*
X113070500Y-91321884D01*
X113070500Y-91809548D01*
X113070502Y-91809572D01*
X113076798Y-91868151D01*
X113076799Y-91868156D01*
X113076800Y-91868157D01*
X113126242Y-92000715D01*
X113126243Y-92000716D01*
X113126244Y-92000719D01*
X113211025Y-92113973D01*
X113324285Y-92198758D01*
X113338532Y-92204072D01*
X113395367Y-92246619D01*
X113420178Y-92313140D01*
X113420499Y-92322128D01*
X113420499Y-95590616D01*
X113400497Y-95658737D01*
X113383598Y-95679706D01*
X112479709Y-96583596D01*
X112417399Y-96617620D01*
X112390616Y-96620500D01*
X110658447Y-96620500D01*
X110590326Y-96600498D01*
X110543833Y-96546842D01*
X110541232Y-96540724D01*
X110490883Y-96413047D01*
X110456644Y-96367896D01*
X110402933Y-96297066D01*
X110286954Y-96209118D01*
X110286953Y-96209117D01*
X110286951Y-96209116D01*
X110151545Y-96155718D01*
X110151546Y-96155718D01*
X110066455Y-96145500D01*
X110066452Y-96145500D01*
X108533548Y-96145500D01*
X108533544Y-96145500D01*
X108448454Y-96155718D01*
X108313048Y-96209116D01*
X108313045Y-96209118D01*
X108197066Y-96297066D01*
X108109118Y-96413045D01*
X108109116Y-96413048D01*
X108055718Y-96548454D01*
X108045500Y-96633544D01*
X108045500Y-97266455D01*
X101752900Y-97266455D01*
X101752900Y-83650000D01*
X116052000Y-83650000D01*
X116052000Y-83698597D01*
X116058505Y-83759093D01*
X116058505Y-83759094D01*
X116075988Y-83805966D01*
X116081053Y-83876782D01*
X116075988Y-83894030D01*
X116058505Y-83940904D01*
X116052000Y-84001402D01*
X116052000Y-84050000D01*
X116760000Y-84050000D01*
X117160000Y-84050000D01*
X117868000Y-84050000D01*
X117868000Y-84001414D01*
X117867999Y-84001402D01*
X117861494Y-83940906D01*
X117861492Y-83940898D01*
X117844012Y-83894032D01*
X117838946Y-83823217D01*
X117844012Y-83805964D01*
X117861494Y-83759095D01*
X117861494Y-83759093D01*
X117867999Y-83698597D01*
X117868000Y-83698585D01*
X117868000Y-83473970D01*
X117862879Y-83464592D01*
X117860000Y-83437809D01*
X117860000Y-82750000D01*
X118260000Y-82750000D01*
X118260000Y-83458000D01*
X118308585Y-83458000D01*
X118308597Y-83457999D01*
X118369093Y-83451494D01*
X118369098Y-83451493D01*
X118415966Y-83434012D01*
X118486782Y-83428946D01*
X118504034Y-83434012D01*
X118550901Y-83451493D01*
X118550906Y-83451494D01*
X118611402Y-83457999D01*
X118611415Y-83458000D01*
X118660000Y-83458000D01*
X118660000Y-82750000D01*
X119060000Y-82750000D01*
X119060000Y-83458000D01*
X119108585Y-83458000D01*
X119108597Y-83457999D01*
X119169093Y-83451494D01*
X119169098Y-83451493D01*
X119215966Y-83434012D01*
X119286782Y-83428946D01*
X119304034Y-83434012D01*
X119350901Y-83451493D01*
X119350906Y-83451494D01*
X119411402Y-83457999D01*
X119411415Y-83458000D01*
X119460000Y-83458000D01*
X119460000Y-82750000D01*
X119860000Y-82750000D01*
X119860000Y-83458000D01*
X119908585Y-83458000D01*
X119908597Y-83457999D01*
X119969093Y-83451494D01*
X119969098Y-83451493D01*
X120015966Y-83434012D01*
X120086782Y-83428946D01*
X120104034Y-83434012D01*
X120150901Y-83451493D01*
X120150906Y-83451494D01*
X120211402Y-83457999D01*
X120211415Y-83458000D01*
X120260000Y-83458000D01*
X120260000Y-82750000D01*
X120660000Y-82750000D01*
X120660000Y-83458000D01*
X120708585Y-83458000D01*
X120708597Y-83457999D01*
X120769093Y-83451494D01*
X120769098Y-83451493D01*
X120815966Y-83434012D01*
X120886782Y-83428946D01*
X120904034Y-83434012D01*
X120950901Y-83451493D01*
X120950906Y-83451494D01*
X121011402Y-83457999D01*
X121011415Y-83458000D01*
X121060000Y-83458000D01*
X121060000Y-82750000D01*
X121460000Y-82750000D01*
X121460000Y-83458000D01*
X121508585Y-83458000D01*
X121508597Y-83457999D01*
X121569093Y-83451494D01*
X121569098Y-83451493D01*
X121615966Y-83434012D01*
X121686782Y-83428946D01*
X121704034Y-83434012D01*
X121750901Y-83451493D01*
X121750906Y-83451494D01*
X121811402Y-83457999D01*
X121811415Y-83458000D01*
X121860000Y-83458000D01*
X121860000Y-82750000D01*
X122260000Y-82750000D01*
X122260000Y-83458000D01*
X122308585Y-83458000D01*
X122308597Y-83457999D01*
X122369093Y-83451494D01*
X122369098Y-83451493D01*
X122415966Y-83434012D01*
X122486782Y-83428946D01*
X122504034Y-83434012D01*
X122550901Y-83451493D01*
X122550906Y-83451494D01*
X122611402Y-83457999D01*
X122611415Y-83458000D01*
X122660000Y-83458000D01*
X122660000Y-82750000D01*
X123060000Y-82750000D01*
X123060000Y-83458000D01*
X123108585Y-83458000D01*
X123108597Y-83457999D01*
X123169093Y-83451494D01*
X123169098Y-83451493D01*
X123215966Y-83434012D01*
X123286782Y-83428946D01*
X123304034Y-83434012D01*
X123350901Y-83451493D01*
X123350906Y-83451494D01*
X123411402Y-83457999D01*
X123411415Y-83458000D01*
X123460000Y-83458000D01*
X123460000Y-82750000D01*
X123860000Y-82750000D01*
X123860000Y-83458000D01*
X123908585Y-83458000D01*
X123908597Y-83457999D01*
X123969093Y-83451494D01*
X123969098Y-83451493D01*
X124015966Y-83434012D01*
X124086782Y-83428946D01*
X124104034Y-83434012D01*
X124150901Y-83451493D01*
X124150906Y-83451494D01*
X124211402Y-83457999D01*
X124211415Y-83458000D01*
X124260000Y-83458000D01*
X124260000Y-82750000D01*
X124660000Y-82750000D01*
X124660000Y-83458000D01*
X124708585Y-83458000D01*
X124708597Y-83457999D01*
X124769093Y-83451494D01*
X124769098Y-83451493D01*
X124815966Y-83434012D01*
X124886782Y-83428946D01*
X124904034Y-83434012D01*
X124950901Y-83451493D01*
X124950906Y-83451494D01*
X125011402Y-83457999D01*
X125011415Y-83458000D01*
X125060000Y-83458000D01*
X125060000Y-82750000D01*
X125460000Y-82750000D01*
X125460000Y-83458000D01*
X125508585Y-83458000D01*
X125508597Y-83457999D01*
X125569093Y-83451494D01*
X125569098Y-83451493D01*
X125615966Y-83434012D01*
X125686782Y-83428946D01*
X125704034Y-83434012D01*
X125750901Y-83451493D01*
X125750906Y-83451494D01*
X125811402Y-83457999D01*
X125811415Y-83458000D01*
X125860000Y-83458000D01*
X125860000Y-82750000D01*
X126260000Y-82750000D01*
X126260000Y-83458000D01*
X126308585Y-83458000D01*
X126308597Y-83457999D01*
X126369093Y-83451494D01*
X126369098Y-83451493D01*
X126415966Y-83434012D01*
X126486782Y-83428946D01*
X126504034Y-83434012D01*
X126550901Y-83451493D01*
X126550906Y-83451494D01*
X126611402Y-83457999D01*
X126611415Y-83458000D01*
X126660000Y-83458000D01*
X126660000Y-82750000D01*
X127060000Y-82750000D01*
X127060000Y-83458000D01*
X127108585Y-83458000D01*
X127108597Y-83457999D01*
X127169093Y-83451494D01*
X127169098Y-83451493D01*
X127215966Y-83434012D01*
X127286782Y-83428946D01*
X127304034Y-83434012D01*
X127350901Y-83451493D01*
X127350906Y-83451494D01*
X127411402Y-83457999D01*
X127411415Y-83458000D01*
X127460000Y-83458000D01*
X127460000Y-82750000D01*
X127060000Y-82750000D01*
X126660000Y-82750000D01*
X126260000Y-82750000D01*
X125860000Y-82750000D01*
X125460000Y-82750000D01*
X125060000Y-82750000D01*
X124660000Y-82750000D01*
X124260000Y-82750000D01*
X123860000Y-82750000D01*
X123460000Y-82750000D01*
X123060000Y-82750000D01*
X122660000Y-82750000D01*
X122260000Y-82750000D01*
X121860000Y-82750000D01*
X121460000Y-82750000D01*
X121060000Y-82750000D01*
X120660000Y-82750000D01*
X120260000Y-82750000D01*
X119860000Y-82750000D01*
X119460000Y-82750000D01*
X119060000Y-82750000D01*
X118660000Y-82750000D01*
X118260000Y-82750000D01*
X117860000Y-82750000D01*
X117780645Y-82750000D01*
X117778592Y-82751121D01*
X117751809Y-82754000D01*
X117164000Y-82754000D01*
X117164000Y-83341809D01*
X117160000Y-83355431D01*
X117160000Y-84050000D01*
X116760000Y-84050000D01*
X116760000Y-83650000D01*
X116052000Y-83650000D01*
X101752900Y-83650000D01*
X101752900Y-82754000D01*
X116052000Y-82754000D01*
X116052000Y-82898597D01*
X116058505Y-82959093D01*
X116058505Y-82959094D01*
X116075988Y-83005966D01*
X116081053Y-83076782D01*
X116075988Y-83094030D01*
X116058505Y-83140904D01*
X116052000Y-83201402D01*
X116052000Y-83250000D01*
X116656000Y-83250000D01*
X116656000Y-82754000D01*
X116052000Y-82754000D01*
X101752900Y-82754000D01*
X101752900Y-82476180D01*
X101752944Y-82473824D01*
X101758712Y-82319658D01*
X101770140Y-82014225D01*
X101770489Y-82009573D01*
X101821855Y-81553685D01*
X101822551Y-81549068D01*
X101907839Y-81098313D01*
X101908873Y-81093777D01*
X102027616Y-80650624D01*
X102028987Y-80646180D01*
X102180507Y-80213157D01*
X102182221Y-80208792D01*
X102196774Y-80175438D01*
X102244829Y-80065294D01*
X105448779Y-80065294D01*
X105463699Y-80175436D01*
X105478438Y-80284252D01*
X105546719Y-80494393D01*
X105651416Y-80688954D01*
X105651425Y-80688968D01*
X105789181Y-80861706D01*
X105789187Y-80861712D01*
X105955577Y-81007084D01*
X106145242Y-81120403D01*
X106145249Y-81120406D01*
X106145255Y-81120410D01*
X106352120Y-81198048D01*
X106352122Y-81198048D01*
X106352124Y-81198049D01*
X106569520Y-81237500D01*
X106569523Y-81237500D01*
X106735127Y-81237500D01*
X106735133Y-81237500D01*
X106889828Y-81223577D01*
X106900066Y-81222656D01*
X106900066Y-81222655D01*
X107113056Y-81163874D01*
X107312129Y-81068006D01*
X107490884Y-80938132D01*
X107643578Y-80778427D01*
X107765301Y-80594025D01*
X107852141Y-80390852D01*
X107901308Y-80175437D01*
X107911221Y-79954706D01*
X107881562Y-79735751D01*
X107813283Y-79525612D01*
X107764131Y-79434272D01*
X107708583Y-79331045D01*
X107708574Y-79331031D01*
X107570818Y-79158293D01*
X107570812Y-79158287D01*
X107404422Y-79012915D01*
X107214757Y-78899596D01*
X107214747Y-78899591D01*
X107214746Y-78899590D01*
X107214745Y-78899590D01*
X107007880Y-78821952D01*
X107007875Y-78821950D01*
X106790480Y-78782500D01*
X106790477Y-78782500D01*
X106624867Y-78782500D01*
X106594157Y-78785263D01*
X106459933Y-78797343D01*
X106459933Y-78797344D01*
X106246952Y-78856123D01*
X106246938Y-78856128D01*
X106047877Y-78951990D01*
X106047870Y-78951994D01*
X105869115Y-79081868D01*
X105869114Y-79081869D01*
X105716421Y-79241573D01*
X105594701Y-79425970D01*
X105507860Y-79629144D01*
X105507857Y-79629152D01*
X105471524Y-79788341D01*
X105458692Y-79844563D01*
X105448779Y-80065294D01*
X102244829Y-80065294D01*
X102365663Y-79788341D01*
X102367707Y-79784095D01*
X102582057Y-79378526D01*
X102584396Y-79374472D01*
X102828464Y-78986041D01*
X102831101Y-78982171D01*
X103103523Y-78613051D01*
X103106427Y-78609409D01*
X103405679Y-78261673D01*
X103408846Y-78258259D01*
X103733259Y-77933846D01*
X103736673Y-77930679D01*
X104084409Y-77631427D01*
X104088051Y-77628523D01*
X104457171Y-77356101D01*
X104461043Y-77353463D01*
X104849472Y-77109396D01*
X104853526Y-77107057D01*
X105122341Y-76964984D01*
X105259104Y-76892702D01*
X105263341Y-76890663D01*
X105448711Y-76809786D01*
X105683799Y-76707217D01*
X105688157Y-76705507D01*
X106121180Y-76553987D01*
X106125624Y-76552616D01*
X106568777Y-76433873D01*
X106573313Y-76432839D01*
X107024068Y-76347551D01*
X107028685Y-76346855D01*
X107484573Y-76295489D01*
X107489225Y-76295140D01*
X107929508Y-76278666D01*
X107948825Y-76277944D01*
X107951181Y-76277900D01*
X107984898Y-76277900D01*
X116134000Y-76277900D01*
X116202121Y-76297902D01*
G37*
%TD.AperFunction*%
%TD*%
M02*
