M48
; DRILL file {KiCad 7.0.5} date Tue Sep  5 15:55:29 2023
; FORMAT={-:-/ absolute / inch / decimal}
; #@! TF.CreationDate,2023-09-05T15:55:29-07:00
; #@! TF.GenerationSoftware,Kicad,Pcbnew,7.0.5
; #@! TF.FileFunction,MixedPlating,1,2
FMAT,2
INCH
; #@! TA.AperFunction,Plated,PTH,ViaDrill
T1C0.0157
; #@! TA.AperFunction,Plated,PTH,ComponentDrill
T2C0.0256
; #@! TA.AperFunction,Plated,PTH,ComponentDrill
T3C0.0276
; #@! TA.AperFunction,Plated,PTH,ComponentDrill
T4C0.0394
; #@! TA.AperFunction,Plated,PTH,ComponentDrill
T5C0.0512
; #@! TA.AperFunction,NonPlated,NPTH,ComponentDrill
T6C0.0866
%
G90
G05
T1
X4.5512Y-3.9843
X4.5512Y-4.2446
X4.6112Y-3.7372
X4.689Y-3.373
X4.9802Y-3.4702
X4.9843Y-3.4173
T2
X4.89Y-3.87
X4.89Y-3.92
X4.89Y-3.97
X4.89Y-4.02
T3
X4.74Y-3.87
X4.74Y-3.92
X4.74Y-3.97
X4.74Y-4.02
T5
X5.4923Y-4.1443
X5.4923Y-4.3443
T6
X4.2Y-3.15
X4.2Y-4.6
X5.5Y-3.15
X5.5Y-4.6
T4
X4.8156Y-4.1819G85X4.8943Y-4.1819
G05
X4.8156Y-4.4181G85X4.8943Y-4.4181
G05
X5.04Y-4.3394G85X5.04Y-4.2606
G05
T0
M30
