%TF.GenerationSoftware,KiCad,Pcbnew,7.0.5*%
%TF.CreationDate,2023-09-05T15:51:43-07:00*%
%TF.ProjectId,esp32_basic_led_controller,65737033-325f-4626-9173-69635f6c6564,v01 Rev1.0*%
%TF.SameCoordinates,Original*%
%TF.FileFunction,Paste,Top*%
%TF.FilePolarity,Positive*%
%FSLAX46Y46*%
G04 Gerber Fmt 4.6, Leading zero omitted, Abs format (unit mm)*
G04 Created by KiCad (PCBNEW 7.0.5) date 2023-09-05 15:51:43*
%MOMM*%
%LPD*%
G01*
G04 APERTURE LIST*
G04 Aperture macros list*
%AMRoundRect*
0 Rectangle with rounded corners*
0 $1 Rounding radius*
0 $2 $3 $4 $5 $6 $7 $8 $9 X,Y pos of 4 corners*
0 Add a 4 corners polygon primitive as box body*
4,1,4,$2,$3,$4,$5,$6,$7,$8,$9,$2,$3,0*
0 Add four circle primitives for the rounded corners*
1,1,$1+$1,$2,$3*
1,1,$1+$1,$4,$5*
1,1,$1+$1,$6,$7*
1,1,$1+$1,$8,$9*
0 Add four rect primitives between the rounded corners*
20,1,$1+$1,$2,$3,$4,$5,0*
20,1,$1+$1,$4,$5,$6,$7,0*
20,1,$1+$1,$6,$7,$8,$9,0*
20,1,$1+$1,$8,$9,$2,$3,0*%
%AMFreePoly0*
4,1,6,0.725000,-0.725000,-0.725000,-0.725000,-0.725000,0.125000,-0.125000,0.725000,0.725000,0.725000,0.725000,-0.725000,0.725000,-0.725000,$1*%
G04 Aperture macros list end*
%ADD10RoundRect,0.275000X-0.725000X-0.275000X0.725000X-0.275000X0.725000X0.275000X-0.725000X0.275000X0*%
%ADD11RoundRect,0.275000X0.725000X0.275000X-0.725000X0.275000X-0.725000X-0.275000X0.725000X-0.275000X0*%
%ADD12RoundRect,0.237500X-0.237500X0.250000X-0.237500X-0.250000X0.237500X-0.250000X0.237500X0.250000X0*%
%ADD13RoundRect,0.237500X0.237500X-0.300000X0.237500X0.300000X-0.237500X0.300000X-0.237500X-0.300000X0*%
%ADD14RoundRect,0.250000X-0.475000X0.337500X-0.475000X-0.337500X0.475000X-0.337500X0.475000X0.337500X0*%
%ADD15R,2.000000X1.500000*%
%ADD16R,2.000000X3.800000*%
%ADD17R,0.700000X0.700000*%
%ADD18R,1.450000X1.450000*%
%ADD19FreePoly0,0.000000*%
%ADD20R,0.400000X0.800000*%
%ADD21R,0.800000X0.400000*%
%ADD22RoundRect,0.150000X-0.825000X-0.150000X0.825000X-0.150000X0.825000X0.150000X-0.825000X0.150000X0*%
%ADD23RoundRect,0.237500X-0.237500X0.287500X-0.237500X-0.287500X0.237500X-0.287500X0.237500X0.287500X0*%
G04 APERTURE END LIST*
D10*
%TO.C,SW2*%
X137700000Y-85150000D03*
X137700000Y-89650000D03*
%TD*%
D11*
%TO.C,SW1*%
X109300000Y-101450000D03*
X109300000Y-96950000D03*
%TD*%
D12*
%TO.C,R5*%
X119300000Y-94362500D03*
X119300000Y-96187500D03*
%TD*%
D13*
%TO.C,C2*%
X117000000Y-106462500D03*
X117000000Y-104737500D03*
%TD*%
D14*
%TO.C,C3*%
X117000000Y-109800000D03*
X117000000Y-111875000D03*
%TD*%
D12*
%TO.C,R4*%
X117094000Y-97131500D03*
X117094000Y-98956500D03*
%TD*%
D13*
%TO.C,C1*%
X113800000Y-91462500D03*
X113800000Y-89737500D03*
%TD*%
D12*
%TO.C,R1*%
X128400000Y-97887500D03*
X128400000Y-99712500D03*
%TD*%
D15*
%TO.C,U1*%
X112800000Y-111100000D03*
X112800000Y-108800000D03*
D16*
X106500000Y-108800000D03*
D15*
X112800000Y-106500000D03*
%TD*%
D12*
%TO.C,R3*%
X117094000Y-100687500D03*
X117094000Y-102512500D03*
%TD*%
D17*
%TO.C,U2*%
X116910000Y-82500000D03*
X116910000Y-92400000D03*
X128810000Y-92400000D03*
X128810000Y-82500000D03*
D18*
X124835000Y-89425000D03*
X124835000Y-87450000D03*
X124835000Y-85475000D03*
X122860000Y-89425000D03*
X122860000Y-87450000D03*
X122860000Y-85475000D03*
X120885000Y-89425000D03*
X120885000Y-87450000D03*
D19*
X120885000Y-85475000D03*
D20*
X118060000Y-82550000D03*
X118860000Y-82550000D03*
X119660000Y-82550000D03*
X120460000Y-82550000D03*
X121260000Y-82550000D03*
X122060000Y-82550000D03*
X122860000Y-82550000D03*
X123660000Y-82550000D03*
X124460000Y-82550000D03*
X125260000Y-82550000D03*
X126060000Y-82550000D03*
X126860000Y-82550000D03*
X127660000Y-82550000D03*
D21*
X128760000Y-83450000D03*
X128760000Y-84250000D03*
X128760000Y-85050000D03*
X128760000Y-85850000D03*
X128760000Y-86650000D03*
X128760000Y-87450000D03*
X128760000Y-88250000D03*
X128760000Y-89050000D03*
X128760000Y-89850000D03*
X128760000Y-90650000D03*
X128760000Y-91450000D03*
D20*
X127660000Y-92350000D03*
X126860000Y-92350000D03*
X126060000Y-92350000D03*
X125260000Y-92350000D03*
X124460000Y-92350000D03*
X123660000Y-92350000D03*
X122860000Y-92350000D03*
X122060000Y-92350000D03*
X121260000Y-92350000D03*
X120460000Y-92350000D03*
X119660000Y-92350000D03*
X118860000Y-92350000D03*
X118060000Y-92350000D03*
D21*
X116960000Y-91450000D03*
X116960000Y-90650000D03*
X116960000Y-89850000D03*
X116960000Y-89050000D03*
X116960000Y-88250000D03*
X116960000Y-87450000D03*
X116960000Y-86650000D03*
X116960000Y-85850000D03*
X116960000Y-85050000D03*
X116960000Y-84250000D03*
X116960000Y-83450000D03*
%TD*%
D22*
%TO.C,Q1*%
X137275000Y-95895000D03*
X137275000Y-97165000D03*
X137275000Y-98435000D03*
X137275000Y-99705000D03*
X132325000Y-99705000D03*
X132325000Y-98435000D03*
X132325000Y-97165000D03*
X132325000Y-95895000D03*
%TD*%
D12*
%TO.C,R2*%
X113800000Y-87912500D03*
X113800000Y-86087500D03*
%TD*%
D23*
%TO.C,D1*%
X121125000Y-94425000D03*
X121125000Y-96175000D03*
%TD*%
M02*
