%TF.GenerationSoftware,KiCad,Pcbnew,7.0.5*%
%TF.CreationDate,2023-09-05T15:51:43-07:00*%
%TF.ProjectId,esp32_basic_led_controller,65737033-325f-4626-9173-69635f6c6564,v01 Rev1.0*%
%TF.SameCoordinates,Original*%
%TF.FileFunction,Legend,Top*%
%TF.FilePolarity,Positive*%
%FSLAX46Y46*%
G04 Gerber Fmt 4.6, Leading zero omitted, Abs format (unit mm)*
G04 Created by KiCad (PCBNEW 7.0.5) date 2023-09-05 15:51:43*
%MOMM*%
%LPD*%
G01*
G04 APERTURE LIST*
%ADD10C,0.127000*%
%ADD11C,0.150000*%
%ADD12C,0.200000*%
%ADD13C,0.120000*%
G04 APERTURE END LIST*
D10*
X103919790Y-84863346D02*
X103750456Y-84621441D01*
X103629504Y-84863346D02*
X103629504Y-84355346D01*
X103629504Y-84355346D02*
X103823028Y-84355346D01*
X103823028Y-84355346D02*
X103871409Y-84379536D01*
X103871409Y-84379536D02*
X103895599Y-84403727D01*
X103895599Y-84403727D02*
X103919790Y-84452108D01*
X103919790Y-84452108D02*
X103919790Y-84524679D01*
X103919790Y-84524679D02*
X103895599Y-84573060D01*
X103895599Y-84573060D02*
X103871409Y-84597251D01*
X103871409Y-84597251D02*
X103823028Y-84621441D01*
X103823028Y-84621441D02*
X103629504Y-84621441D01*
X104331028Y-84839156D02*
X104282647Y-84863346D01*
X104282647Y-84863346D02*
X104185885Y-84863346D01*
X104185885Y-84863346D02*
X104137504Y-84839156D01*
X104137504Y-84839156D02*
X104113313Y-84790775D01*
X104113313Y-84790775D02*
X104113313Y-84597251D01*
X104113313Y-84597251D02*
X104137504Y-84548870D01*
X104137504Y-84548870D02*
X104185885Y-84524679D01*
X104185885Y-84524679D02*
X104282647Y-84524679D01*
X104282647Y-84524679D02*
X104331028Y-84548870D01*
X104331028Y-84548870D02*
X104355218Y-84597251D01*
X104355218Y-84597251D02*
X104355218Y-84645632D01*
X104355218Y-84645632D02*
X104113313Y-84694013D01*
X104524552Y-84524679D02*
X104645504Y-84863346D01*
X104645504Y-84863346D02*
X104766457Y-84524679D01*
X104959981Y-84814965D02*
X104984171Y-84839156D01*
X104984171Y-84839156D02*
X104959981Y-84863346D01*
X104959981Y-84863346D02*
X104935790Y-84839156D01*
X104935790Y-84839156D02*
X104959981Y-84814965D01*
X104959981Y-84814965D02*
X104959981Y-84863346D01*
X105855029Y-84863346D02*
X105564743Y-84863346D01*
X105709886Y-84863346D02*
X105709886Y-84355346D01*
X105709886Y-84355346D02*
X105661505Y-84427917D01*
X105661505Y-84427917D02*
X105613124Y-84476298D01*
X105613124Y-84476298D02*
X105564743Y-84500489D01*
X106072744Y-84814965D02*
X106096934Y-84839156D01*
X106096934Y-84839156D02*
X106072744Y-84863346D01*
X106072744Y-84863346D02*
X106048553Y-84839156D01*
X106048553Y-84839156D02*
X106072744Y-84814965D01*
X106072744Y-84814965D02*
X106072744Y-84863346D01*
X106411411Y-84355346D02*
X106459792Y-84355346D01*
X106459792Y-84355346D02*
X106508173Y-84379536D01*
X106508173Y-84379536D02*
X106532363Y-84403727D01*
X106532363Y-84403727D02*
X106556554Y-84452108D01*
X106556554Y-84452108D02*
X106580744Y-84548870D01*
X106580744Y-84548870D02*
X106580744Y-84669822D01*
X106580744Y-84669822D02*
X106556554Y-84766584D01*
X106556554Y-84766584D02*
X106532363Y-84814965D01*
X106532363Y-84814965D02*
X106508173Y-84839156D01*
X106508173Y-84839156D02*
X106459792Y-84863346D01*
X106459792Y-84863346D02*
X106411411Y-84863346D01*
X106411411Y-84863346D02*
X106363030Y-84839156D01*
X106363030Y-84839156D02*
X106338839Y-84814965D01*
X106338839Y-84814965D02*
X106314649Y-84766584D01*
X106314649Y-84766584D02*
X106290458Y-84669822D01*
X106290458Y-84669822D02*
X106290458Y-84548870D01*
X106290458Y-84548870D02*
X106314649Y-84452108D01*
X106314649Y-84452108D02*
X106338839Y-84403727D01*
X106338839Y-84403727D02*
X106363030Y-84379536D01*
X106363030Y-84379536D02*
X106411411Y-84355346D01*
X107596745Y-84476298D02*
X107548364Y-84452108D01*
X107548364Y-84452108D02*
X107451602Y-84452108D01*
X107451602Y-84452108D02*
X107403221Y-84476298D01*
X107403221Y-84476298D02*
X107354840Y-84524679D01*
X107354840Y-84524679D02*
X107330650Y-84573060D01*
X107330650Y-84573060D02*
X107330650Y-84669822D01*
X107330650Y-84669822D02*
X107354840Y-84718203D01*
X107354840Y-84718203D02*
X107403221Y-84766584D01*
X107403221Y-84766584D02*
X107451602Y-84790775D01*
X107451602Y-84790775D02*
X107548364Y-84790775D01*
X107548364Y-84790775D02*
X107596745Y-84766584D01*
X107499983Y-84282775D02*
X107379031Y-84306965D01*
X107379031Y-84306965D02*
X107258078Y-84379536D01*
X107258078Y-84379536D02*
X107185507Y-84500489D01*
X107185507Y-84500489D02*
X107161316Y-84621441D01*
X107161316Y-84621441D02*
X107185507Y-84742394D01*
X107185507Y-84742394D02*
X107258078Y-84863346D01*
X107258078Y-84863346D02*
X107379031Y-84935917D01*
X107379031Y-84935917D02*
X107499983Y-84960108D01*
X107499983Y-84960108D02*
X107620935Y-84935917D01*
X107620935Y-84935917D02*
X107741888Y-84863346D01*
X107741888Y-84863346D02*
X107814459Y-84742394D01*
X107814459Y-84742394D02*
X107838650Y-84621441D01*
X107838650Y-84621441D02*
X107814459Y-84500489D01*
X107814459Y-84500489D02*
X107741888Y-84379536D01*
X107741888Y-84379536D02*
X107620935Y-84306965D01*
X107620935Y-84306965D02*
X107499983Y-84282775D01*
X108419221Y-84403727D02*
X108443412Y-84379536D01*
X108443412Y-84379536D02*
X108491793Y-84355346D01*
X108491793Y-84355346D02*
X108612745Y-84355346D01*
X108612745Y-84355346D02*
X108661126Y-84379536D01*
X108661126Y-84379536D02*
X108685317Y-84403727D01*
X108685317Y-84403727D02*
X108709507Y-84452108D01*
X108709507Y-84452108D02*
X108709507Y-84500489D01*
X108709507Y-84500489D02*
X108685317Y-84573060D01*
X108685317Y-84573060D02*
X108395031Y-84863346D01*
X108395031Y-84863346D02*
X108709507Y-84863346D01*
X109023984Y-84355346D02*
X109072365Y-84355346D01*
X109072365Y-84355346D02*
X109120746Y-84379536D01*
X109120746Y-84379536D02*
X109144936Y-84403727D01*
X109144936Y-84403727D02*
X109169127Y-84452108D01*
X109169127Y-84452108D02*
X109193317Y-84548870D01*
X109193317Y-84548870D02*
X109193317Y-84669822D01*
X109193317Y-84669822D02*
X109169127Y-84766584D01*
X109169127Y-84766584D02*
X109144936Y-84814965D01*
X109144936Y-84814965D02*
X109120746Y-84839156D01*
X109120746Y-84839156D02*
X109072365Y-84863346D01*
X109072365Y-84863346D02*
X109023984Y-84863346D01*
X109023984Y-84863346D02*
X108975603Y-84839156D01*
X108975603Y-84839156D02*
X108951412Y-84814965D01*
X108951412Y-84814965D02*
X108927222Y-84766584D01*
X108927222Y-84766584D02*
X108903031Y-84669822D01*
X108903031Y-84669822D02*
X108903031Y-84548870D01*
X108903031Y-84548870D02*
X108927222Y-84452108D01*
X108927222Y-84452108D02*
X108951412Y-84403727D01*
X108951412Y-84403727D02*
X108975603Y-84379536D01*
X108975603Y-84379536D02*
X109023984Y-84355346D01*
X109386841Y-84403727D02*
X109411032Y-84379536D01*
X109411032Y-84379536D02*
X109459413Y-84355346D01*
X109459413Y-84355346D02*
X109580365Y-84355346D01*
X109580365Y-84355346D02*
X109628746Y-84379536D01*
X109628746Y-84379536D02*
X109652937Y-84403727D01*
X109652937Y-84403727D02*
X109677127Y-84452108D01*
X109677127Y-84452108D02*
X109677127Y-84500489D01*
X109677127Y-84500489D02*
X109652937Y-84573060D01*
X109652937Y-84573060D02*
X109362651Y-84863346D01*
X109362651Y-84863346D02*
X109677127Y-84863346D01*
X109846461Y-84355346D02*
X110160937Y-84355346D01*
X110160937Y-84355346D02*
X109991604Y-84548870D01*
X109991604Y-84548870D02*
X110064175Y-84548870D01*
X110064175Y-84548870D02*
X110112556Y-84573060D01*
X110112556Y-84573060D02*
X110136747Y-84597251D01*
X110136747Y-84597251D02*
X110160937Y-84645632D01*
X110160937Y-84645632D02*
X110160937Y-84766584D01*
X110160937Y-84766584D02*
X110136747Y-84814965D01*
X110136747Y-84814965D02*
X110112556Y-84839156D01*
X110112556Y-84839156D02*
X110064175Y-84863346D01*
X110064175Y-84863346D02*
X109919032Y-84863346D01*
X109919032Y-84863346D02*
X109870651Y-84839156D01*
X109870651Y-84839156D02*
X109846461Y-84814965D01*
X103629504Y-85681226D02*
X103629504Y-85173226D01*
X103847218Y-85681226D02*
X103847218Y-85415131D01*
X103847218Y-85415131D02*
X103823028Y-85366750D01*
X103823028Y-85366750D02*
X103774647Y-85342559D01*
X103774647Y-85342559D02*
X103702075Y-85342559D01*
X103702075Y-85342559D02*
X103653694Y-85366750D01*
X103653694Y-85366750D02*
X103629504Y-85390940D01*
X104016551Y-85342559D02*
X104210075Y-85342559D01*
X104089123Y-85173226D02*
X104089123Y-85608655D01*
X104089123Y-85608655D02*
X104113313Y-85657036D01*
X104113313Y-85657036D02*
X104161694Y-85681226D01*
X104161694Y-85681226D02*
X104210075Y-85681226D01*
X104306837Y-85342559D02*
X104500361Y-85342559D01*
X104379409Y-85173226D02*
X104379409Y-85608655D01*
X104379409Y-85608655D02*
X104403599Y-85657036D01*
X104403599Y-85657036D02*
X104451980Y-85681226D01*
X104451980Y-85681226D02*
X104500361Y-85681226D01*
X104669695Y-85342559D02*
X104669695Y-85850559D01*
X104669695Y-85366750D02*
X104718076Y-85342559D01*
X104718076Y-85342559D02*
X104814838Y-85342559D01*
X104814838Y-85342559D02*
X104863219Y-85366750D01*
X104863219Y-85366750D02*
X104887409Y-85390940D01*
X104887409Y-85390940D02*
X104911600Y-85439321D01*
X104911600Y-85439321D02*
X104911600Y-85584464D01*
X104911600Y-85584464D02*
X104887409Y-85632845D01*
X104887409Y-85632845D02*
X104863219Y-85657036D01*
X104863219Y-85657036D02*
X104814838Y-85681226D01*
X104814838Y-85681226D02*
X104718076Y-85681226D01*
X104718076Y-85681226D02*
X104669695Y-85657036D01*
X105105123Y-85657036D02*
X105153504Y-85681226D01*
X105153504Y-85681226D02*
X105250266Y-85681226D01*
X105250266Y-85681226D02*
X105298647Y-85657036D01*
X105298647Y-85657036D02*
X105322838Y-85608655D01*
X105322838Y-85608655D02*
X105322838Y-85584464D01*
X105322838Y-85584464D02*
X105298647Y-85536083D01*
X105298647Y-85536083D02*
X105250266Y-85511893D01*
X105250266Y-85511893D02*
X105177695Y-85511893D01*
X105177695Y-85511893D02*
X105129314Y-85487702D01*
X105129314Y-85487702D02*
X105105123Y-85439321D01*
X105105123Y-85439321D02*
X105105123Y-85415131D01*
X105105123Y-85415131D02*
X105129314Y-85366750D01*
X105129314Y-85366750D02*
X105177695Y-85342559D01*
X105177695Y-85342559D02*
X105250266Y-85342559D01*
X105250266Y-85342559D02*
X105298647Y-85366750D01*
X105540552Y-85632845D02*
X105564742Y-85657036D01*
X105564742Y-85657036D02*
X105540552Y-85681226D01*
X105540552Y-85681226D02*
X105516361Y-85657036D01*
X105516361Y-85657036D02*
X105540552Y-85632845D01*
X105540552Y-85632845D02*
X105540552Y-85681226D01*
X105540552Y-85366750D02*
X105564742Y-85390940D01*
X105564742Y-85390940D02*
X105540552Y-85415131D01*
X105540552Y-85415131D02*
X105516361Y-85390940D01*
X105516361Y-85390940D02*
X105540552Y-85366750D01*
X105540552Y-85366750D02*
X105540552Y-85415131D01*
X106145314Y-85149036D02*
X105709885Y-85802178D01*
X106677504Y-85149036D02*
X106242075Y-85802178D01*
X106846837Y-85681226D02*
X106846837Y-85342559D01*
X106846837Y-85173226D02*
X106822646Y-85197416D01*
X106822646Y-85197416D02*
X106846837Y-85221607D01*
X106846837Y-85221607D02*
X106871027Y-85197416D01*
X106871027Y-85197416D02*
X106846837Y-85173226D01*
X106846837Y-85173226D02*
X106846837Y-85221607D01*
X107161313Y-85681226D02*
X107112932Y-85657036D01*
X107112932Y-85657036D02*
X107088742Y-85632845D01*
X107088742Y-85632845D02*
X107064551Y-85584464D01*
X107064551Y-85584464D02*
X107064551Y-85439321D01*
X107064551Y-85439321D02*
X107088742Y-85390940D01*
X107088742Y-85390940D02*
X107112932Y-85366750D01*
X107112932Y-85366750D02*
X107161313Y-85342559D01*
X107161313Y-85342559D02*
X107233885Y-85342559D01*
X107233885Y-85342559D02*
X107282266Y-85366750D01*
X107282266Y-85366750D02*
X107306456Y-85390940D01*
X107306456Y-85390940D02*
X107330647Y-85439321D01*
X107330647Y-85439321D02*
X107330647Y-85584464D01*
X107330647Y-85584464D02*
X107306456Y-85632845D01*
X107306456Y-85632845D02*
X107282266Y-85657036D01*
X107282266Y-85657036D02*
X107233885Y-85681226D01*
X107233885Y-85681226D02*
X107161313Y-85681226D01*
X107524170Y-85657036D02*
X107572551Y-85681226D01*
X107572551Y-85681226D02*
X107669313Y-85681226D01*
X107669313Y-85681226D02*
X107717694Y-85657036D01*
X107717694Y-85657036D02*
X107741885Y-85608655D01*
X107741885Y-85608655D02*
X107741885Y-85584464D01*
X107741885Y-85584464D02*
X107717694Y-85536083D01*
X107717694Y-85536083D02*
X107669313Y-85511893D01*
X107669313Y-85511893D02*
X107596742Y-85511893D01*
X107596742Y-85511893D02*
X107548361Y-85487702D01*
X107548361Y-85487702D02*
X107524170Y-85439321D01*
X107524170Y-85439321D02*
X107524170Y-85415131D01*
X107524170Y-85415131D02*
X107548361Y-85366750D01*
X107548361Y-85366750D02*
X107596742Y-85342559D01*
X107596742Y-85342559D02*
X107669313Y-85342559D01*
X107669313Y-85342559D02*
X107717694Y-85366750D01*
X107959599Y-85342559D02*
X107959599Y-85681226D01*
X107959599Y-85390940D02*
X107983789Y-85366750D01*
X107983789Y-85366750D02*
X108032170Y-85342559D01*
X108032170Y-85342559D02*
X108104742Y-85342559D01*
X108104742Y-85342559D02*
X108153123Y-85366750D01*
X108153123Y-85366750D02*
X108177313Y-85415131D01*
X108177313Y-85415131D02*
X108177313Y-85681226D01*
X108612742Y-85657036D02*
X108564361Y-85681226D01*
X108564361Y-85681226D02*
X108467599Y-85681226D01*
X108467599Y-85681226D02*
X108419218Y-85657036D01*
X108419218Y-85657036D02*
X108395027Y-85608655D01*
X108395027Y-85608655D02*
X108395027Y-85415131D01*
X108395027Y-85415131D02*
X108419218Y-85366750D01*
X108419218Y-85366750D02*
X108467599Y-85342559D01*
X108467599Y-85342559D02*
X108564361Y-85342559D01*
X108564361Y-85342559D02*
X108612742Y-85366750D01*
X108612742Y-85366750D02*
X108636932Y-85415131D01*
X108636932Y-85415131D02*
X108636932Y-85463512D01*
X108636932Y-85463512D02*
X108395027Y-85511893D01*
X108854647Y-85681226D02*
X108854647Y-85342559D01*
X108854647Y-85439321D02*
X108878837Y-85390940D01*
X108878837Y-85390940D02*
X108903028Y-85366750D01*
X108903028Y-85366750D02*
X108951409Y-85342559D01*
X108951409Y-85342559D02*
X108999790Y-85342559D01*
X109386837Y-85681226D02*
X109386837Y-85173226D01*
X109386837Y-85657036D02*
X109338456Y-85681226D01*
X109338456Y-85681226D02*
X109241694Y-85681226D01*
X109241694Y-85681226D02*
X109193313Y-85657036D01*
X109193313Y-85657036D02*
X109169123Y-85632845D01*
X109169123Y-85632845D02*
X109144932Y-85584464D01*
X109144932Y-85584464D02*
X109144932Y-85439321D01*
X109144932Y-85439321D02*
X109169123Y-85390940D01*
X109169123Y-85390940D02*
X109193313Y-85366750D01*
X109193313Y-85366750D02*
X109241694Y-85342559D01*
X109241694Y-85342559D02*
X109338456Y-85342559D01*
X109338456Y-85342559D02*
X109386837Y-85366750D01*
X109628742Y-85632845D02*
X109652932Y-85657036D01*
X109652932Y-85657036D02*
X109628742Y-85681226D01*
X109628742Y-85681226D02*
X109604551Y-85657036D01*
X109604551Y-85657036D02*
X109628742Y-85632845D01*
X109628742Y-85632845D02*
X109628742Y-85681226D01*
X110088361Y-85657036D02*
X110039980Y-85681226D01*
X110039980Y-85681226D02*
X109943218Y-85681226D01*
X109943218Y-85681226D02*
X109894837Y-85657036D01*
X109894837Y-85657036D02*
X109870647Y-85632845D01*
X109870647Y-85632845D02*
X109846456Y-85584464D01*
X109846456Y-85584464D02*
X109846456Y-85439321D01*
X109846456Y-85439321D02*
X109870647Y-85390940D01*
X109870647Y-85390940D02*
X109894837Y-85366750D01*
X109894837Y-85366750D02*
X109943218Y-85342559D01*
X109943218Y-85342559D02*
X110039980Y-85342559D01*
X110039980Y-85342559D02*
X110088361Y-85366750D01*
X110378647Y-85681226D02*
X110330266Y-85657036D01*
X110330266Y-85657036D02*
X110306076Y-85632845D01*
X110306076Y-85632845D02*
X110281885Y-85584464D01*
X110281885Y-85584464D02*
X110281885Y-85439321D01*
X110281885Y-85439321D02*
X110306076Y-85390940D01*
X110306076Y-85390940D02*
X110330266Y-85366750D01*
X110330266Y-85366750D02*
X110378647Y-85342559D01*
X110378647Y-85342559D02*
X110451219Y-85342559D01*
X110451219Y-85342559D02*
X110499600Y-85366750D01*
X110499600Y-85366750D02*
X110523790Y-85390940D01*
X110523790Y-85390940D02*
X110547981Y-85439321D01*
X110547981Y-85439321D02*
X110547981Y-85584464D01*
X110547981Y-85584464D02*
X110523790Y-85632845D01*
X110523790Y-85632845D02*
X110499600Y-85657036D01*
X110499600Y-85657036D02*
X110451219Y-85681226D01*
X110451219Y-85681226D02*
X110378647Y-85681226D01*
X110765695Y-85681226D02*
X110765695Y-85342559D01*
X110765695Y-85390940D02*
X110789885Y-85366750D01*
X110789885Y-85366750D02*
X110838266Y-85342559D01*
X110838266Y-85342559D02*
X110910838Y-85342559D01*
X110910838Y-85342559D02*
X110959219Y-85366750D01*
X110959219Y-85366750D02*
X110983409Y-85415131D01*
X110983409Y-85415131D02*
X110983409Y-85681226D01*
X110983409Y-85415131D02*
X111007600Y-85366750D01*
X111007600Y-85366750D02*
X111055981Y-85342559D01*
X111055981Y-85342559D02*
X111128552Y-85342559D01*
X111128552Y-85342559D02*
X111176933Y-85366750D01*
X111176933Y-85366750D02*
X111201123Y-85415131D01*
X111201123Y-85415131D02*
X111201123Y-85681226D01*
X103584742Y-83533065D02*
X103796409Y-83533065D01*
X103887123Y-83865684D02*
X103584742Y-83865684D01*
X103584742Y-83865684D02*
X103584742Y-83230684D01*
X103584742Y-83230684D02*
X103887123Y-83230684D01*
X104129028Y-83835446D02*
X104219742Y-83865684D01*
X104219742Y-83865684D02*
X104370933Y-83865684D01*
X104370933Y-83865684D02*
X104431409Y-83835446D01*
X104431409Y-83835446D02*
X104461647Y-83805207D01*
X104461647Y-83805207D02*
X104491885Y-83744731D01*
X104491885Y-83744731D02*
X104491885Y-83684255D01*
X104491885Y-83684255D02*
X104461647Y-83623779D01*
X104461647Y-83623779D02*
X104431409Y-83593541D01*
X104431409Y-83593541D02*
X104370933Y-83563303D01*
X104370933Y-83563303D02*
X104249980Y-83533065D01*
X104249980Y-83533065D02*
X104189504Y-83502826D01*
X104189504Y-83502826D02*
X104159266Y-83472588D01*
X104159266Y-83472588D02*
X104129028Y-83412112D01*
X104129028Y-83412112D02*
X104129028Y-83351636D01*
X104129028Y-83351636D02*
X104159266Y-83291160D01*
X104159266Y-83291160D02*
X104189504Y-83260922D01*
X104189504Y-83260922D02*
X104249980Y-83230684D01*
X104249980Y-83230684D02*
X104401171Y-83230684D01*
X104401171Y-83230684D02*
X104491885Y-83260922D01*
X104764028Y-83865684D02*
X104764028Y-83230684D01*
X104764028Y-83230684D02*
X105005933Y-83230684D01*
X105005933Y-83230684D02*
X105066409Y-83260922D01*
X105066409Y-83260922D02*
X105096647Y-83291160D01*
X105096647Y-83291160D02*
X105126885Y-83351636D01*
X105126885Y-83351636D02*
X105126885Y-83442350D01*
X105126885Y-83442350D02*
X105096647Y-83502826D01*
X105096647Y-83502826D02*
X105066409Y-83533065D01*
X105066409Y-83533065D02*
X105005933Y-83563303D01*
X105005933Y-83563303D02*
X104764028Y-83563303D01*
X105338552Y-83230684D02*
X105731647Y-83230684D01*
X105731647Y-83230684D02*
X105519980Y-83472588D01*
X105519980Y-83472588D02*
X105610695Y-83472588D01*
X105610695Y-83472588D02*
X105671171Y-83502826D01*
X105671171Y-83502826D02*
X105701409Y-83533065D01*
X105701409Y-83533065D02*
X105731647Y-83593541D01*
X105731647Y-83593541D02*
X105731647Y-83744731D01*
X105731647Y-83744731D02*
X105701409Y-83805207D01*
X105701409Y-83805207D02*
X105671171Y-83835446D01*
X105671171Y-83835446D02*
X105610695Y-83865684D01*
X105610695Y-83865684D02*
X105429266Y-83865684D01*
X105429266Y-83865684D02*
X105368790Y-83835446D01*
X105368790Y-83835446D02*
X105338552Y-83805207D01*
X105973552Y-83291160D02*
X106003790Y-83260922D01*
X106003790Y-83260922D02*
X106064266Y-83230684D01*
X106064266Y-83230684D02*
X106215457Y-83230684D01*
X106215457Y-83230684D02*
X106275933Y-83260922D01*
X106275933Y-83260922D02*
X106306171Y-83291160D01*
X106306171Y-83291160D02*
X106336409Y-83351636D01*
X106336409Y-83351636D02*
X106336409Y-83412112D01*
X106336409Y-83412112D02*
X106306171Y-83502826D01*
X106306171Y-83502826D02*
X105943314Y-83865684D01*
X105943314Y-83865684D02*
X106336409Y-83865684D01*
X107394743Y-83865684D02*
X107092362Y-83865684D01*
X107092362Y-83865684D02*
X107092362Y-83230684D01*
X107606410Y-83865684D02*
X107606410Y-83442350D01*
X107606410Y-83230684D02*
X107576172Y-83260922D01*
X107576172Y-83260922D02*
X107606410Y-83291160D01*
X107606410Y-83291160D02*
X107636648Y-83260922D01*
X107636648Y-83260922D02*
X107606410Y-83230684D01*
X107606410Y-83230684D02*
X107606410Y-83291160D01*
X108180934Y-83442350D02*
X108180934Y-83956398D01*
X108180934Y-83956398D02*
X108150696Y-84016874D01*
X108150696Y-84016874D02*
X108120458Y-84047112D01*
X108120458Y-84047112D02*
X108059981Y-84077350D01*
X108059981Y-84077350D02*
X107969267Y-84077350D01*
X107969267Y-84077350D02*
X107908791Y-84047112D01*
X108180934Y-83835446D02*
X108120458Y-83865684D01*
X108120458Y-83865684D02*
X107999505Y-83865684D01*
X107999505Y-83865684D02*
X107939029Y-83835446D01*
X107939029Y-83835446D02*
X107908791Y-83805207D01*
X107908791Y-83805207D02*
X107878553Y-83744731D01*
X107878553Y-83744731D02*
X107878553Y-83563303D01*
X107878553Y-83563303D02*
X107908791Y-83502826D01*
X107908791Y-83502826D02*
X107939029Y-83472588D01*
X107939029Y-83472588D02*
X107999505Y-83442350D01*
X107999505Y-83442350D02*
X108120458Y-83442350D01*
X108120458Y-83442350D02*
X108180934Y-83472588D01*
X108483315Y-83865684D02*
X108483315Y-83230684D01*
X108755458Y-83865684D02*
X108755458Y-83533065D01*
X108755458Y-83533065D02*
X108725220Y-83472588D01*
X108725220Y-83472588D02*
X108664744Y-83442350D01*
X108664744Y-83442350D02*
X108574029Y-83442350D01*
X108574029Y-83442350D02*
X108513553Y-83472588D01*
X108513553Y-83472588D02*
X108483315Y-83502826D01*
X108967125Y-83442350D02*
X109209029Y-83442350D01*
X109057839Y-83230684D02*
X109057839Y-83774969D01*
X109057839Y-83774969D02*
X109088077Y-83835446D01*
X109088077Y-83835446D02*
X109148553Y-83865684D01*
X109148553Y-83865684D02*
X109209029Y-83865684D01*
X110267363Y-83805207D02*
X110237125Y-83835446D01*
X110237125Y-83835446D02*
X110146411Y-83865684D01*
X110146411Y-83865684D02*
X110085935Y-83865684D01*
X110085935Y-83865684D02*
X109995220Y-83835446D01*
X109995220Y-83835446D02*
X109934744Y-83774969D01*
X109934744Y-83774969D02*
X109904506Y-83714493D01*
X109904506Y-83714493D02*
X109874268Y-83593541D01*
X109874268Y-83593541D02*
X109874268Y-83502826D01*
X109874268Y-83502826D02*
X109904506Y-83381874D01*
X109904506Y-83381874D02*
X109934744Y-83321398D01*
X109934744Y-83321398D02*
X109995220Y-83260922D01*
X109995220Y-83260922D02*
X110085935Y-83230684D01*
X110085935Y-83230684D02*
X110146411Y-83230684D01*
X110146411Y-83230684D02*
X110237125Y-83260922D01*
X110237125Y-83260922D02*
X110267363Y-83291160D01*
X110630220Y-83865684D02*
X110569744Y-83835446D01*
X110569744Y-83835446D02*
X110539506Y-83805207D01*
X110539506Y-83805207D02*
X110509268Y-83744731D01*
X110509268Y-83744731D02*
X110509268Y-83563303D01*
X110509268Y-83563303D02*
X110539506Y-83502826D01*
X110539506Y-83502826D02*
X110569744Y-83472588D01*
X110569744Y-83472588D02*
X110630220Y-83442350D01*
X110630220Y-83442350D02*
X110720935Y-83442350D01*
X110720935Y-83442350D02*
X110781411Y-83472588D01*
X110781411Y-83472588D02*
X110811649Y-83502826D01*
X110811649Y-83502826D02*
X110841887Y-83563303D01*
X110841887Y-83563303D02*
X110841887Y-83744731D01*
X110841887Y-83744731D02*
X110811649Y-83805207D01*
X110811649Y-83805207D02*
X110781411Y-83835446D01*
X110781411Y-83835446D02*
X110720935Y-83865684D01*
X110720935Y-83865684D02*
X110630220Y-83865684D01*
X111114030Y-83442350D02*
X111114030Y-83865684D01*
X111114030Y-83502826D02*
X111144268Y-83472588D01*
X111144268Y-83472588D02*
X111204744Y-83442350D01*
X111204744Y-83442350D02*
X111295459Y-83442350D01*
X111295459Y-83442350D02*
X111355935Y-83472588D01*
X111355935Y-83472588D02*
X111386173Y-83533065D01*
X111386173Y-83533065D02*
X111386173Y-83865684D01*
X111597840Y-83442350D02*
X111839744Y-83442350D01*
X111688554Y-83230684D02*
X111688554Y-83774969D01*
X111688554Y-83774969D02*
X111718792Y-83835446D01*
X111718792Y-83835446D02*
X111779268Y-83865684D01*
X111779268Y-83865684D02*
X111839744Y-83865684D01*
X112051411Y-83865684D02*
X112051411Y-83442350D01*
X112051411Y-83563303D02*
X112081649Y-83502826D01*
X112081649Y-83502826D02*
X112111887Y-83472588D01*
X112111887Y-83472588D02*
X112172363Y-83442350D01*
X112172363Y-83442350D02*
X112232840Y-83442350D01*
X112535220Y-83865684D02*
X112474744Y-83835446D01*
X112474744Y-83835446D02*
X112444506Y-83805207D01*
X112444506Y-83805207D02*
X112414268Y-83744731D01*
X112414268Y-83744731D02*
X112414268Y-83563303D01*
X112414268Y-83563303D02*
X112444506Y-83502826D01*
X112444506Y-83502826D02*
X112474744Y-83472588D01*
X112474744Y-83472588D02*
X112535220Y-83442350D01*
X112535220Y-83442350D02*
X112625935Y-83442350D01*
X112625935Y-83442350D02*
X112686411Y-83472588D01*
X112686411Y-83472588D02*
X112716649Y-83502826D01*
X112716649Y-83502826D02*
X112746887Y-83563303D01*
X112746887Y-83563303D02*
X112746887Y-83744731D01*
X112746887Y-83744731D02*
X112716649Y-83805207D01*
X112716649Y-83805207D02*
X112686411Y-83835446D01*
X112686411Y-83835446D02*
X112625935Y-83865684D01*
X112625935Y-83865684D02*
X112535220Y-83865684D01*
X113109744Y-83865684D02*
X113049268Y-83835446D01*
X113049268Y-83835446D02*
X113019030Y-83774969D01*
X113019030Y-83774969D02*
X113019030Y-83230684D01*
X113442363Y-83865684D02*
X113381887Y-83835446D01*
X113381887Y-83835446D02*
X113351649Y-83774969D01*
X113351649Y-83774969D02*
X113351649Y-83230684D01*
X113926173Y-83835446D02*
X113865697Y-83865684D01*
X113865697Y-83865684D02*
X113744744Y-83865684D01*
X113744744Y-83865684D02*
X113684268Y-83835446D01*
X113684268Y-83835446D02*
X113654030Y-83774969D01*
X113654030Y-83774969D02*
X113654030Y-83533065D01*
X113654030Y-83533065D02*
X113684268Y-83472588D01*
X113684268Y-83472588D02*
X113744744Y-83442350D01*
X113744744Y-83442350D02*
X113865697Y-83442350D01*
X113865697Y-83442350D02*
X113926173Y-83472588D01*
X113926173Y-83472588D02*
X113956411Y-83533065D01*
X113956411Y-83533065D02*
X113956411Y-83593541D01*
X113956411Y-83593541D02*
X113654030Y-83654017D01*
X114228554Y-83865684D02*
X114228554Y-83442350D01*
X114228554Y-83563303D02*
X114258792Y-83502826D01*
X114258792Y-83502826D02*
X114289030Y-83472588D01*
X114289030Y-83472588D02*
X114349506Y-83442350D01*
X114349506Y-83442350D02*
X114409983Y-83442350D01*
X125973226Y-98524905D02*
X125973226Y-98210429D01*
X125973226Y-98210429D02*
X126166750Y-98379762D01*
X126166750Y-98379762D02*
X126166750Y-98307191D01*
X126166750Y-98307191D02*
X126190940Y-98258810D01*
X126190940Y-98258810D02*
X126215131Y-98234619D01*
X126215131Y-98234619D02*
X126263512Y-98210429D01*
X126263512Y-98210429D02*
X126384464Y-98210429D01*
X126384464Y-98210429D02*
X126432845Y-98234619D01*
X126432845Y-98234619D02*
X126457036Y-98258810D01*
X126457036Y-98258810D02*
X126481226Y-98307191D01*
X126481226Y-98307191D02*
X126481226Y-98452334D01*
X126481226Y-98452334D02*
X126457036Y-98500715D01*
X126457036Y-98500715D02*
X126432845Y-98524905D01*
X126432845Y-97992714D02*
X126457036Y-97968524D01*
X126457036Y-97968524D02*
X126481226Y-97992714D01*
X126481226Y-97992714D02*
X126457036Y-98016905D01*
X126457036Y-98016905D02*
X126432845Y-97992714D01*
X126432845Y-97992714D02*
X126481226Y-97992714D01*
X125973226Y-97799190D02*
X125973226Y-97484714D01*
X125973226Y-97484714D02*
X126166750Y-97654047D01*
X126166750Y-97654047D02*
X126166750Y-97581476D01*
X126166750Y-97581476D02*
X126190940Y-97533095D01*
X126190940Y-97533095D02*
X126215131Y-97508904D01*
X126215131Y-97508904D02*
X126263512Y-97484714D01*
X126263512Y-97484714D02*
X126384464Y-97484714D01*
X126384464Y-97484714D02*
X126432845Y-97508904D01*
X126432845Y-97508904D02*
X126457036Y-97533095D01*
X126457036Y-97533095D02*
X126481226Y-97581476D01*
X126481226Y-97581476D02*
X126481226Y-97726619D01*
X126481226Y-97726619D02*
X126457036Y-97775000D01*
X126457036Y-97775000D02*
X126432845Y-97799190D01*
X125973226Y-97339571D02*
X126481226Y-97170237D01*
X126481226Y-97170237D02*
X125973226Y-97000904D01*
X125997416Y-99887047D02*
X125973226Y-99935428D01*
X125973226Y-99935428D02*
X125973226Y-100007999D01*
X125973226Y-100007999D02*
X125997416Y-100080571D01*
X125997416Y-100080571D02*
X126045797Y-100128952D01*
X126045797Y-100128952D02*
X126094178Y-100153142D01*
X126094178Y-100153142D02*
X126190940Y-100177333D01*
X126190940Y-100177333D02*
X126263512Y-100177333D01*
X126263512Y-100177333D02*
X126360274Y-100153142D01*
X126360274Y-100153142D02*
X126408655Y-100128952D01*
X126408655Y-100128952D02*
X126457036Y-100080571D01*
X126457036Y-100080571D02*
X126481226Y-100007999D01*
X126481226Y-100007999D02*
X126481226Y-99959618D01*
X126481226Y-99959618D02*
X126457036Y-99887047D01*
X126457036Y-99887047D02*
X126432845Y-99862856D01*
X126432845Y-99862856D02*
X126263512Y-99862856D01*
X126263512Y-99862856D02*
X126263512Y-99959618D01*
X126481226Y-99645142D02*
X125973226Y-99645142D01*
X125973226Y-99645142D02*
X126481226Y-99354856D01*
X126481226Y-99354856D02*
X125973226Y-99354856D01*
X126481226Y-99112952D02*
X125973226Y-99112952D01*
X125973226Y-99112952D02*
X125973226Y-98992000D01*
X125973226Y-98992000D02*
X125997416Y-98919428D01*
X125997416Y-98919428D02*
X126045797Y-98871047D01*
X126045797Y-98871047D02*
X126094178Y-98846857D01*
X126094178Y-98846857D02*
X126190940Y-98822666D01*
X126190940Y-98822666D02*
X126263512Y-98822666D01*
X126263512Y-98822666D02*
X126360274Y-98846857D01*
X126360274Y-98846857D02*
X126408655Y-98871047D01*
X126408655Y-98871047D02*
X126457036Y-98919428D01*
X126457036Y-98919428D02*
X126481226Y-98992000D01*
X126481226Y-98992000D02*
X126481226Y-99112952D01*
X126482036Y-101679762D02*
X126506226Y-101607190D01*
X126506226Y-101607190D02*
X126506226Y-101486238D01*
X126506226Y-101486238D02*
X126482036Y-101437857D01*
X126482036Y-101437857D02*
X126457845Y-101413666D01*
X126457845Y-101413666D02*
X126409464Y-101389476D01*
X126409464Y-101389476D02*
X126361083Y-101389476D01*
X126361083Y-101389476D02*
X126312702Y-101413666D01*
X126312702Y-101413666D02*
X126288512Y-101437857D01*
X126288512Y-101437857D02*
X126264321Y-101486238D01*
X126264321Y-101486238D02*
X126240131Y-101583000D01*
X126240131Y-101583000D02*
X126215940Y-101631381D01*
X126215940Y-101631381D02*
X126191750Y-101655571D01*
X126191750Y-101655571D02*
X126143369Y-101679762D01*
X126143369Y-101679762D02*
X126094988Y-101679762D01*
X126094988Y-101679762D02*
X126046607Y-101655571D01*
X126046607Y-101655571D02*
X126022416Y-101631381D01*
X126022416Y-101631381D02*
X125998226Y-101583000D01*
X125998226Y-101583000D02*
X125998226Y-101462047D01*
X125998226Y-101462047D02*
X126022416Y-101389476D01*
X126457845Y-100881475D02*
X126482036Y-100905666D01*
X126482036Y-100905666D02*
X126506226Y-100978237D01*
X126506226Y-100978237D02*
X126506226Y-101026618D01*
X126506226Y-101026618D02*
X126482036Y-101099190D01*
X126482036Y-101099190D02*
X126433655Y-101147571D01*
X126433655Y-101147571D02*
X126385274Y-101171761D01*
X126385274Y-101171761D02*
X126288512Y-101195952D01*
X126288512Y-101195952D02*
X126215940Y-101195952D01*
X126215940Y-101195952D02*
X126119178Y-101171761D01*
X126119178Y-101171761D02*
X126070797Y-101147571D01*
X126070797Y-101147571D02*
X126022416Y-101099190D01*
X126022416Y-101099190D02*
X125998226Y-101026618D01*
X125998226Y-101026618D02*
X125998226Y-100978237D01*
X125998226Y-100978237D02*
X126022416Y-100905666D01*
X126022416Y-100905666D02*
X126046607Y-100881475D01*
X126506226Y-100421856D02*
X126506226Y-100663761D01*
X126506226Y-100663761D02*
X125998226Y-100663761D01*
X126482036Y-103441857D02*
X126506226Y-103369285D01*
X126506226Y-103369285D02*
X126506226Y-103248333D01*
X126506226Y-103248333D02*
X126482036Y-103199952D01*
X126482036Y-103199952D02*
X126457845Y-103175761D01*
X126457845Y-103175761D02*
X126409464Y-103151571D01*
X126409464Y-103151571D02*
X126361083Y-103151571D01*
X126361083Y-103151571D02*
X126312702Y-103175761D01*
X126312702Y-103175761D02*
X126288512Y-103199952D01*
X126288512Y-103199952D02*
X126264321Y-103248333D01*
X126264321Y-103248333D02*
X126240131Y-103345095D01*
X126240131Y-103345095D02*
X126215940Y-103393476D01*
X126215940Y-103393476D02*
X126191750Y-103417666D01*
X126191750Y-103417666D02*
X126143369Y-103441857D01*
X126143369Y-103441857D02*
X126094988Y-103441857D01*
X126094988Y-103441857D02*
X126046607Y-103417666D01*
X126046607Y-103417666D02*
X126022416Y-103393476D01*
X126022416Y-103393476D02*
X125998226Y-103345095D01*
X125998226Y-103345095D02*
X125998226Y-103224142D01*
X125998226Y-103224142D02*
X126022416Y-103151571D01*
X126506226Y-102933856D02*
X125998226Y-102933856D01*
X125998226Y-102933856D02*
X125998226Y-102812904D01*
X125998226Y-102812904D02*
X126022416Y-102740332D01*
X126022416Y-102740332D02*
X126070797Y-102691951D01*
X126070797Y-102691951D02*
X126119178Y-102667761D01*
X126119178Y-102667761D02*
X126215940Y-102643570D01*
X126215940Y-102643570D02*
X126288512Y-102643570D01*
X126288512Y-102643570D02*
X126385274Y-102667761D01*
X126385274Y-102667761D02*
X126433655Y-102691951D01*
X126433655Y-102691951D02*
X126482036Y-102740332D01*
X126482036Y-102740332D02*
X126506226Y-102812904D01*
X126506226Y-102812904D02*
X126506226Y-102933856D01*
X126361083Y-102450047D02*
X126361083Y-102208142D01*
X126506226Y-102498428D02*
X125998226Y-102329094D01*
X125998226Y-102329094D02*
X126506226Y-102159761D01*
D11*
X132723231Y-105845744D02*
X132686945Y-105918316D01*
X132686945Y-105918316D02*
X132686945Y-106027173D01*
X132686945Y-106027173D02*
X132723231Y-106136030D01*
X132723231Y-106136030D02*
X132795802Y-106208601D01*
X132795802Y-106208601D02*
X132868374Y-106244887D01*
X132868374Y-106244887D02*
X133013517Y-106281173D01*
X133013517Y-106281173D02*
X133122374Y-106281173D01*
X133122374Y-106281173D02*
X133267517Y-106244887D01*
X133267517Y-106244887D02*
X133340088Y-106208601D01*
X133340088Y-106208601D02*
X133412660Y-106136030D01*
X133412660Y-106136030D02*
X133448945Y-106027173D01*
X133448945Y-106027173D02*
X133448945Y-105954601D01*
X133448945Y-105954601D02*
X133412660Y-105845744D01*
X133412660Y-105845744D02*
X133376374Y-105809458D01*
X133376374Y-105809458D02*
X133122374Y-105809458D01*
X133122374Y-105809458D02*
X133122374Y-105954601D01*
X133448945Y-105482887D02*
X132686945Y-105482887D01*
X132686945Y-105482887D02*
X133448945Y-105047458D01*
X133448945Y-105047458D02*
X132686945Y-105047458D01*
X133448945Y-104684601D02*
X132686945Y-104684601D01*
X132686945Y-104684601D02*
X132686945Y-104503172D01*
X132686945Y-104503172D02*
X132723231Y-104394315D01*
X132723231Y-104394315D02*
X132795802Y-104321744D01*
X132795802Y-104321744D02*
X132868374Y-104285458D01*
X132868374Y-104285458D02*
X133013517Y-104249172D01*
X133013517Y-104249172D02*
X133122374Y-104249172D01*
X133122374Y-104249172D02*
X133267517Y-104285458D01*
X133267517Y-104285458D02*
X133340088Y-104321744D01*
X133340088Y-104321744D02*
X133412660Y-104394315D01*
X133412660Y-104394315D02*
X133448945Y-104503172D01*
X133448945Y-104503172D02*
X133448945Y-104684601D01*
X133258660Y-112044887D02*
X133258660Y-111464316D01*
X133548945Y-111754601D02*
X132968374Y-111754601D01*
X133548945Y-110702315D02*
X133548945Y-111137744D01*
X133548945Y-110920029D02*
X132786945Y-110920029D01*
X132786945Y-110920029D02*
X132895802Y-110992601D01*
X132895802Y-110992601D02*
X132968374Y-111065172D01*
X132968374Y-111065172D02*
X133004660Y-111137744D01*
X132859517Y-110412030D02*
X132823231Y-110375744D01*
X132823231Y-110375744D02*
X132786945Y-110303173D01*
X132786945Y-110303173D02*
X132786945Y-110121744D01*
X132786945Y-110121744D02*
X132823231Y-110049173D01*
X132823231Y-110049173D02*
X132859517Y-110012887D01*
X132859517Y-110012887D02*
X132932088Y-109976601D01*
X132932088Y-109976601D02*
X133004660Y-109976601D01*
X133004660Y-109976601D02*
X133113517Y-110012887D01*
X133113517Y-110012887D02*
X133548945Y-110448315D01*
X133548945Y-110448315D02*
X133548945Y-109976601D01*
X132786945Y-109758887D02*
X133548945Y-109504887D01*
X133548945Y-109504887D02*
X132786945Y-109250887D01*
D12*
X114395238Y-117982219D02*
X114395238Y-116982219D01*
X114395238Y-116982219D02*
X114633333Y-116982219D01*
X114633333Y-116982219D02*
X114776190Y-117029838D01*
X114776190Y-117029838D02*
X114871428Y-117125076D01*
X114871428Y-117125076D02*
X114919047Y-117220314D01*
X114919047Y-117220314D02*
X114966666Y-117410790D01*
X114966666Y-117410790D02*
X114966666Y-117553647D01*
X114966666Y-117553647D02*
X114919047Y-117744123D01*
X114919047Y-117744123D02*
X114871428Y-117839361D01*
X114871428Y-117839361D02*
X114776190Y-117934600D01*
X114776190Y-117934600D02*
X114633333Y-117982219D01*
X114633333Y-117982219D02*
X114395238Y-117982219D01*
X115966666Y-117886980D02*
X115919047Y-117934600D01*
X115919047Y-117934600D02*
X115776190Y-117982219D01*
X115776190Y-117982219D02*
X115680952Y-117982219D01*
X115680952Y-117982219D02*
X115538095Y-117934600D01*
X115538095Y-117934600D02*
X115442857Y-117839361D01*
X115442857Y-117839361D02*
X115395238Y-117744123D01*
X115395238Y-117744123D02*
X115347619Y-117553647D01*
X115347619Y-117553647D02*
X115347619Y-117410790D01*
X115347619Y-117410790D02*
X115395238Y-117220314D01*
X115395238Y-117220314D02*
X115442857Y-117125076D01*
X115442857Y-117125076D02*
X115538095Y-117029838D01*
X115538095Y-117029838D02*
X115680952Y-116982219D01*
X115680952Y-116982219D02*
X115776190Y-116982219D01*
X115776190Y-116982219D02*
X115919047Y-117029838D01*
X115919047Y-117029838D02*
X115966666Y-117077457D01*
X117157143Y-117982219D02*
X117157143Y-116982219D01*
X117633333Y-117982219D02*
X117633333Y-116982219D01*
X117633333Y-116982219D02*
X118204761Y-117982219D01*
X118204761Y-117982219D02*
X118204761Y-116982219D01*
X115680952Y-119592219D02*
X115109524Y-119592219D01*
X115395238Y-119592219D02*
X115395238Y-118592219D01*
X115395238Y-118592219D02*
X115300000Y-118735076D01*
X115300000Y-118735076D02*
X115204762Y-118830314D01*
X115204762Y-118830314D02*
X115109524Y-118877933D01*
X116061905Y-118687457D02*
X116109524Y-118639838D01*
X116109524Y-118639838D02*
X116204762Y-118592219D01*
X116204762Y-118592219D02*
X116442857Y-118592219D01*
X116442857Y-118592219D02*
X116538095Y-118639838D01*
X116538095Y-118639838D02*
X116585714Y-118687457D01*
X116585714Y-118687457D02*
X116633333Y-118782695D01*
X116633333Y-118782695D02*
X116633333Y-118877933D01*
X116633333Y-118877933D02*
X116585714Y-119020790D01*
X116585714Y-119020790D02*
X116014286Y-119592219D01*
X116014286Y-119592219D02*
X116633333Y-119592219D01*
X116919048Y-118592219D02*
X117252381Y-119592219D01*
X117252381Y-119592219D02*
X117585714Y-118592219D01*
D11*
X135146009Y-88854887D02*
X135193628Y-88712030D01*
X135193628Y-88712030D02*
X135241247Y-88664411D01*
X135241247Y-88664411D02*
X135336485Y-88616792D01*
X135336485Y-88616792D02*
X135479342Y-88616792D01*
X135479342Y-88616792D02*
X135574580Y-88664411D01*
X135574580Y-88664411D02*
X135622200Y-88712030D01*
X135622200Y-88712030D02*
X135669819Y-88807268D01*
X135669819Y-88807268D02*
X135669819Y-89188220D01*
X135669819Y-89188220D02*
X134669819Y-89188220D01*
X134669819Y-89188220D02*
X134669819Y-88854887D01*
X134669819Y-88854887D02*
X134717438Y-88759649D01*
X134717438Y-88759649D02*
X134765057Y-88712030D01*
X134765057Y-88712030D02*
X134860295Y-88664411D01*
X134860295Y-88664411D02*
X134955533Y-88664411D01*
X134955533Y-88664411D02*
X135050771Y-88712030D01*
X135050771Y-88712030D02*
X135098390Y-88759649D01*
X135098390Y-88759649D02*
X135146009Y-88854887D01*
X135146009Y-88854887D02*
X135146009Y-89188220D01*
X134669819Y-87997744D02*
X134669819Y-87807268D01*
X134669819Y-87807268D02*
X134717438Y-87712030D01*
X134717438Y-87712030D02*
X134812676Y-87616792D01*
X134812676Y-87616792D02*
X135003152Y-87569173D01*
X135003152Y-87569173D02*
X135336485Y-87569173D01*
X135336485Y-87569173D02*
X135526961Y-87616792D01*
X135526961Y-87616792D02*
X135622200Y-87712030D01*
X135622200Y-87712030D02*
X135669819Y-87807268D01*
X135669819Y-87807268D02*
X135669819Y-87997744D01*
X135669819Y-87997744D02*
X135622200Y-88092982D01*
X135622200Y-88092982D02*
X135526961Y-88188220D01*
X135526961Y-88188220D02*
X135336485Y-88235839D01*
X135336485Y-88235839D02*
X135003152Y-88235839D01*
X135003152Y-88235839D02*
X134812676Y-88188220D01*
X134812676Y-88188220D02*
X134717438Y-88092982D01*
X134717438Y-88092982D02*
X134669819Y-87997744D01*
X134669819Y-86950125D02*
X134669819Y-86759649D01*
X134669819Y-86759649D02*
X134717438Y-86664411D01*
X134717438Y-86664411D02*
X134812676Y-86569173D01*
X134812676Y-86569173D02*
X135003152Y-86521554D01*
X135003152Y-86521554D02*
X135336485Y-86521554D01*
X135336485Y-86521554D02*
X135526961Y-86569173D01*
X135526961Y-86569173D02*
X135622200Y-86664411D01*
X135622200Y-86664411D02*
X135669819Y-86759649D01*
X135669819Y-86759649D02*
X135669819Y-86950125D01*
X135669819Y-86950125D02*
X135622200Y-87045363D01*
X135622200Y-87045363D02*
X135526961Y-87140601D01*
X135526961Y-87140601D02*
X135336485Y-87188220D01*
X135336485Y-87188220D02*
X135003152Y-87188220D01*
X135003152Y-87188220D02*
X134812676Y-87140601D01*
X134812676Y-87140601D02*
X134717438Y-87045363D01*
X134717438Y-87045363D02*
X134669819Y-86950125D01*
X134669819Y-86235839D02*
X134669819Y-85664411D01*
X135669819Y-85950125D02*
X134669819Y-85950125D01*
X107269819Y-100541792D02*
X106793628Y-100875125D01*
X107269819Y-101113220D02*
X106269819Y-101113220D01*
X106269819Y-101113220D02*
X106269819Y-100732268D01*
X106269819Y-100732268D02*
X106317438Y-100637030D01*
X106317438Y-100637030D02*
X106365057Y-100589411D01*
X106365057Y-100589411D02*
X106460295Y-100541792D01*
X106460295Y-100541792D02*
X106603152Y-100541792D01*
X106603152Y-100541792D02*
X106698390Y-100589411D01*
X106698390Y-100589411D02*
X106746009Y-100637030D01*
X106746009Y-100637030D02*
X106793628Y-100732268D01*
X106793628Y-100732268D02*
X106793628Y-101113220D01*
X106746009Y-100113220D02*
X106746009Y-99779887D01*
X107269819Y-99637030D02*
X107269819Y-100113220D01*
X107269819Y-100113220D02*
X106269819Y-100113220D01*
X106269819Y-100113220D02*
X106269819Y-99637030D01*
X107222200Y-99256077D02*
X107269819Y-99113220D01*
X107269819Y-99113220D02*
X107269819Y-98875125D01*
X107269819Y-98875125D02*
X107222200Y-98779887D01*
X107222200Y-98779887D02*
X107174580Y-98732268D01*
X107174580Y-98732268D02*
X107079342Y-98684649D01*
X107079342Y-98684649D02*
X106984104Y-98684649D01*
X106984104Y-98684649D02*
X106888866Y-98732268D01*
X106888866Y-98732268D02*
X106841247Y-98779887D01*
X106841247Y-98779887D02*
X106793628Y-98875125D01*
X106793628Y-98875125D02*
X106746009Y-99065601D01*
X106746009Y-99065601D02*
X106698390Y-99160839D01*
X106698390Y-99160839D02*
X106650771Y-99208458D01*
X106650771Y-99208458D02*
X106555533Y-99256077D01*
X106555533Y-99256077D02*
X106460295Y-99256077D01*
X106460295Y-99256077D02*
X106365057Y-99208458D01*
X106365057Y-99208458D02*
X106317438Y-99160839D01*
X106317438Y-99160839D02*
X106269819Y-99065601D01*
X106269819Y-99065601D02*
X106269819Y-98827506D01*
X106269819Y-98827506D02*
X106317438Y-98684649D01*
X106746009Y-98256077D02*
X106746009Y-97922744D01*
X107269819Y-97779887D02*
X107269819Y-98256077D01*
X107269819Y-98256077D02*
X106269819Y-98256077D01*
X106269819Y-98256077D02*
X106269819Y-97779887D01*
X106269819Y-97494172D02*
X106269819Y-96922744D01*
X107269819Y-97208458D02*
X106269819Y-97208458D01*
%TO.C,U2*%
X118098094Y-79069104D02*
X118574284Y-79069104D01*
X118002856Y-79354819D02*
X118336189Y-78354819D01*
X118336189Y-78354819D02*
X118669522Y-79354819D01*
X119002856Y-78688152D02*
X119002856Y-79354819D01*
X119002856Y-78783390D02*
X119050475Y-78735771D01*
X119050475Y-78735771D02*
X119145713Y-78688152D01*
X119145713Y-78688152D02*
X119288570Y-78688152D01*
X119288570Y-78688152D02*
X119383808Y-78735771D01*
X119383808Y-78735771D02*
X119431427Y-78831009D01*
X119431427Y-78831009D02*
X119431427Y-79354819D01*
X119764761Y-78688152D02*
X120145713Y-78688152D01*
X119907618Y-78354819D02*
X119907618Y-79211961D01*
X119907618Y-79211961D02*
X119955237Y-79307200D01*
X119955237Y-79307200D02*
X120050475Y-79354819D01*
X120050475Y-79354819D02*
X120145713Y-79354819D01*
X120859999Y-79307200D02*
X120764761Y-79354819D01*
X120764761Y-79354819D02*
X120574285Y-79354819D01*
X120574285Y-79354819D02*
X120479047Y-79307200D01*
X120479047Y-79307200D02*
X120431428Y-79211961D01*
X120431428Y-79211961D02*
X120431428Y-78831009D01*
X120431428Y-78831009D02*
X120479047Y-78735771D01*
X120479047Y-78735771D02*
X120574285Y-78688152D01*
X120574285Y-78688152D02*
X120764761Y-78688152D01*
X120764761Y-78688152D02*
X120859999Y-78735771D01*
X120859999Y-78735771D02*
X120907618Y-78831009D01*
X120907618Y-78831009D02*
X120907618Y-78926247D01*
X120907618Y-78926247D02*
X120431428Y-79021485D01*
X121336190Y-78688152D02*
X121336190Y-79354819D01*
X121336190Y-78783390D02*
X121383809Y-78735771D01*
X121383809Y-78735771D02*
X121479047Y-78688152D01*
X121479047Y-78688152D02*
X121621904Y-78688152D01*
X121621904Y-78688152D02*
X121717142Y-78735771D01*
X121717142Y-78735771D02*
X121764761Y-78831009D01*
X121764761Y-78831009D02*
X121764761Y-79354819D01*
X122240952Y-78688152D02*
X122240952Y-79354819D01*
X122240952Y-78783390D02*
X122288571Y-78735771D01*
X122288571Y-78735771D02*
X122383809Y-78688152D01*
X122383809Y-78688152D02*
X122526666Y-78688152D01*
X122526666Y-78688152D02*
X122621904Y-78735771D01*
X122621904Y-78735771D02*
X122669523Y-78831009D01*
X122669523Y-78831009D02*
X122669523Y-79354819D01*
X123574285Y-79354819D02*
X123574285Y-78831009D01*
X123574285Y-78831009D02*
X123526666Y-78735771D01*
X123526666Y-78735771D02*
X123431428Y-78688152D01*
X123431428Y-78688152D02*
X123240952Y-78688152D01*
X123240952Y-78688152D02*
X123145714Y-78735771D01*
X123574285Y-79307200D02*
X123479047Y-79354819D01*
X123479047Y-79354819D02*
X123240952Y-79354819D01*
X123240952Y-79354819D02*
X123145714Y-79307200D01*
X123145714Y-79307200D02*
X123098095Y-79211961D01*
X123098095Y-79211961D02*
X123098095Y-79116723D01*
X123098095Y-79116723D02*
X123145714Y-79021485D01*
X123145714Y-79021485D02*
X123240952Y-78973866D01*
X123240952Y-78973866D02*
X123479047Y-78973866D01*
X123479047Y-78973866D02*
X123574285Y-78926247D01*
X124764762Y-79069104D02*
X125240952Y-79069104D01*
X124669524Y-79354819D02*
X125002857Y-78354819D01*
X125002857Y-78354819D02*
X125336190Y-79354819D01*
X125669524Y-79354819D02*
X125669524Y-78688152D01*
X125669524Y-78878628D02*
X125717143Y-78783390D01*
X125717143Y-78783390D02*
X125764762Y-78735771D01*
X125764762Y-78735771D02*
X125860000Y-78688152D01*
X125860000Y-78688152D02*
X125955238Y-78688152D01*
X126669524Y-79307200D02*
X126574286Y-79354819D01*
X126574286Y-79354819D02*
X126383810Y-79354819D01*
X126383810Y-79354819D02*
X126288572Y-79307200D01*
X126288572Y-79307200D02*
X126240953Y-79211961D01*
X126240953Y-79211961D02*
X126240953Y-78831009D01*
X126240953Y-78831009D02*
X126288572Y-78735771D01*
X126288572Y-78735771D02*
X126383810Y-78688152D01*
X126383810Y-78688152D02*
X126574286Y-78688152D01*
X126574286Y-78688152D02*
X126669524Y-78735771D01*
X126669524Y-78735771D02*
X126717143Y-78831009D01*
X126717143Y-78831009D02*
X126717143Y-78926247D01*
X126717143Y-78926247D02*
X126240953Y-79021485D01*
X127574286Y-79354819D02*
X127574286Y-78831009D01*
X127574286Y-78831009D02*
X127526667Y-78735771D01*
X127526667Y-78735771D02*
X127431429Y-78688152D01*
X127431429Y-78688152D02*
X127240953Y-78688152D01*
X127240953Y-78688152D02*
X127145715Y-78735771D01*
X127574286Y-79307200D02*
X127479048Y-79354819D01*
X127479048Y-79354819D02*
X127240953Y-79354819D01*
X127240953Y-79354819D02*
X127145715Y-79307200D01*
X127145715Y-79307200D02*
X127098096Y-79211961D01*
X127098096Y-79211961D02*
X127098096Y-79116723D01*
X127098096Y-79116723D02*
X127145715Y-79021485D01*
X127145715Y-79021485D02*
X127240953Y-78973866D01*
X127240953Y-78973866D02*
X127479048Y-78973866D01*
X127479048Y-78973866D02*
X127574286Y-78926247D01*
D13*
%TO.C,U3*%
X119066000Y-98933000D02*
X119066000Y-102803000D01*
X119066000Y-98933000D02*
X119636000Y-98933000D01*
X119066000Y-102803000D02*
X120088470Y-102803000D01*
X120396000Y-97538000D02*
X121726000Y-97538000D01*
X120703530Y-102803000D02*
X121726000Y-102803000D01*
X121156000Y-98933000D02*
X121726000Y-98933000D01*
X121726000Y-97538000D02*
X121726000Y-98298000D01*
X121726000Y-98933000D02*
X121726000Y-102803000D01*
%TO.C,R5*%
X119822500Y-95020276D02*
X119822500Y-95529724D01*
X118777500Y-95020276D02*
X118777500Y-95529724D01*
%TO.C,C2*%
X116490000Y-105746267D02*
X116490000Y-105453733D01*
X117510000Y-105746267D02*
X117510000Y-105453733D01*
%TO.C,C3*%
X117735000Y-110576248D02*
X117735000Y-111098752D01*
X116265000Y-110576248D02*
X116265000Y-111098752D01*
%TO.C,R4*%
X117616500Y-97789276D02*
X117616500Y-98298724D01*
X116571500Y-97789276D02*
X116571500Y-98298724D01*
%TO.C,C1*%
X113290000Y-90746267D02*
X113290000Y-90453733D01*
X114310000Y-90746267D02*
X114310000Y-90453733D01*
%TO.C,R1*%
X128922500Y-98545276D02*
X128922500Y-99054724D01*
X127877500Y-98545276D02*
X127877500Y-99054724D01*
%TO.C,J1*%
X119566000Y-105120000D02*
X118516000Y-105120000D01*
X127916000Y-105320000D02*
X127916000Y-107220000D01*
X125216000Y-105320000D02*
X127916000Y-105320000D01*
X118716000Y-105320000D02*
X121316000Y-105320000D01*
X118516000Y-106170000D02*
X118516000Y-105120000D01*
X127916000Y-111220000D02*
X127916000Y-120020000D01*
X127916000Y-120020000D02*
X118716000Y-120020000D01*
X118716000Y-120020000D02*
X118716000Y-105320000D01*
%TO.C,U1*%
X113750000Y-112210000D02*
X107740000Y-112210000D01*
X111500000Y-105390000D02*
X107740000Y-105390000D01*
X107740000Y-112210000D02*
X107740000Y-110950000D01*
X107740000Y-105390000D02*
X107740000Y-106650000D01*
%TO.C,R3*%
X117616500Y-101345276D02*
X117616500Y-101854724D01*
X116571500Y-101345276D02*
X116571500Y-101854724D01*
%TO.C,U2*%
X129660000Y-93250000D02*
X128860000Y-93250000D01*
X129660000Y-92450000D02*
X129660000Y-93250000D01*
X129660000Y-76250000D02*
X129660000Y-76850000D01*
X129460000Y-93050000D02*
X116260000Y-93050000D01*
X129460000Y-76450000D02*
X129460000Y-93050000D01*
X128910000Y-76250000D02*
X129660000Y-76250000D01*
X116935000Y-76250000D02*
X116085000Y-76250000D01*
X116260000Y-93050000D02*
X116260000Y-76450000D01*
X116260000Y-81850000D02*
X129460000Y-81850000D01*
X116260000Y-76450000D02*
X129460000Y-76450000D01*
X116060000Y-93250000D02*
X116860000Y-93250000D01*
X116060000Y-92450000D02*
X116060000Y-93250000D01*
%TO.C,J3*%
X123096000Y-97538000D02*
X124206000Y-97538000D01*
X123096000Y-98298000D02*
X123096000Y-97538000D01*
X123096000Y-99058000D02*
X123096000Y-102803000D01*
X123096000Y-99058000D02*
X123642529Y-99058000D01*
X123096000Y-102803000D02*
X123898470Y-102803000D01*
X124513530Y-102803000D02*
X125316000Y-102803000D01*
X124769471Y-99058000D02*
X125316000Y-99058000D01*
X125316000Y-99058000D02*
X125316000Y-102803000D01*
%TO.C,Q1*%
X134800000Y-100360000D02*
X136750000Y-100360000D01*
X134800000Y-100360000D02*
X132850000Y-100360000D01*
X134800000Y-95240000D02*
X136750000Y-95240000D01*
X134800000Y-95240000D02*
X131350000Y-95240000D01*
%TO.C,R2*%
X113277500Y-86745276D02*
X113277500Y-87254724D01*
X114322500Y-86745276D02*
X114322500Y-87254724D01*
%TO.C,J2*%
X143665000Y-113185000D02*
X144405000Y-113185000D01*
X144405000Y-113185000D02*
X144405000Y-112685000D01*
X134244000Y-112945000D02*
X144165000Y-112945000D01*
X134244000Y-112945000D02*
X134244000Y-102665000D01*
X137204000Y-112945000D02*
X137204000Y-102665000D01*
X142105000Y-112945000D02*
X142105000Y-102665000D01*
X143605000Y-112945000D02*
X143605000Y-102665000D01*
X144165000Y-112945000D02*
X144165000Y-102665000D01*
X140528000Y-106492000D02*
X140574000Y-106539000D01*
X140744000Y-106299000D02*
X140779000Y-106334000D01*
X138230000Y-104195000D02*
X138266000Y-104230000D01*
X138436000Y-103990000D02*
X138482000Y-104037000D01*
X134244000Y-102665000D02*
X144165000Y-102665000D01*
X138821001Y-111879999D02*
G75*
G03*
X140188042Y-111880426I684000J1534992D01*
G01*
X137970001Y-109661001D02*
G75*
G03*
X137969574Y-111028042I1534992J-684000D01*
G01*
X141039999Y-111029000D02*
G75*
G03*
X141185252Y-110316195I-1535000J683999D01*
G01*
X141184999Y-110345000D02*
G75*
G03*
X141039755Y-109661682I-1679999J0D01*
G01*
X140189000Y-108810000D02*
G75*
G03*
X138821958Y-108809574I-684000J-1535000D01*
G01*
X141185000Y-105265000D02*
G75*
G03*
X141185000Y-105265000I-1680000J0D01*
G01*
%TO.C,D1*%
X121860000Y-93640000D02*
X120390000Y-93640000D01*
X120390000Y-93640000D02*
X120390000Y-96100000D01*
X121860000Y-96100000D02*
X121860000Y-93640000D01*
%TD*%
M02*
