%TF.GenerationSoftware,KiCad,Pcbnew,7.0.5*%
%TF.CreationDate,2023-09-05T15:51:43-07:00*%
%TF.ProjectId,esp32_basic_led_controller,65737033-325f-4626-9173-69635f6c6564,v01 Rev1.0*%
%TF.SameCoordinates,Original*%
%TF.FileFunction,Copper,L2,Bot*%
%TF.FilePolarity,Positive*%
%FSLAX46Y46*%
G04 Gerber Fmt 4.6, Leading zero omitted, Abs format (unit mm)*
G04 Created by KiCad (PCBNEW 7.0.5) date 2023-09-05 15:51:43*
%MOMM*%
%LPD*%
G01*
G04 APERTURE LIST*
G04 Aperture macros list*
%AMRoundRect*
0 Rectangle with rounded corners*
0 $1 Rounding radius*
0 $2 $3 $4 $5 $6 $7 $8 $9 X,Y pos of 4 corners*
0 Add a 4 corners polygon primitive as box body*
4,1,4,$2,$3,$4,$5,$6,$7,$8,$9,$2,$3,0*
0 Add four circle primitives for the rounded corners*
1,1,$1+$1,$2,$3*
1,1,$1+$1,$4,$5*
1,1,$1+$1,$6,$7*
1,1,$1+$1,$8,$9*
0 Add four rect primitives between the rounded corners*
20,1,$1+$1,$2,$3,$4,$5,0*
20,1,$1+$1,$4,$5,$6,$7,0*
20,1,$1+$1,$6,$7,$8,$9,0*
20,1,$1+$1,$8,$9,$2,$3,0*%
G04 Aperture macros list end*
%TA.AperFunction,ComponentPad*%
%ADD10R,1.000000X1.000000*%
%TD*%
%TA.AperFunction,ComponentPad*%
%ADD11O,1.000000X1.000000*%
%TD*%
%TA.AperFunction,ComponentPad*%
%ADD12RoundRect,0.875000X0.875000X-0.875000X0.875000X0.875000X-0.875000X0.875000X-0.875000X-0.875000X0*%
%TD*%
%TA.AperFunction,ComponentPad*%
%ADD13RoundRect,0.750000X1.000000X-0.750000X1.000000X0.750000X-1.000000X0.750000X-1.000000X-0.750000X0*%
%TD*%
%TA.AperFunction,ComponentPad*%
%ADD14R,3.500000X3.500000*%
%TD*%
%TA.AperFunction,ComponentPad*%
%ADD15R,2.600000X2.600000*%
%TD*%
%TA.AperFunction,ComponentPad*%
%ADD16C,2.600000*%
%TD*%
%TA.AperFunction,ViaPad*%
%ADD17C,0.800000*%
%TD*%
%TA.AperFunction,Conductor*%
%ADD18C,0.250000*%
%TD*%
%TA.AperFunction,Conductor*%
%ADD19C,1.500124*%
%TD*%
G04 APERTURE END LIST*
D10*
%TO.P,U3,1,VIN*%
%TO.N,+3.3V*%
X120396000Y-98298000D03*
D11*
%TO.P,U3,2,GND*%
%TO.N,GND*%
X120396000Y-99568000D03*
%TO.P,U3,3,SCL*%
%TO.N,/RX*%
X120396000Y-100838000D03*
%TO.P,U3,4,SDA*%
%TO.N,/TX*%
X120396000Y-102108000D03*
%TD*%
D12*
%TO.P,J1,3*%
%TO.N,GND*%
X128016000Y-109220000D03*
D13*
%TO.P,J1,2*%
X123316000Y-112220000D03*
D14*
%TO.P,J1,1*%
%TO.N,+12V*%
X123316000Y-106220000D03*
%TD*%
D10*
%TO.P,J3,1,Pin_1*%
%TO.N,+3.3V*%
X124206000Y-98298000D03*
D11*
%TO.P,J3,2,Pin_2*%
%TO.N,GND*%
X124206000Y-99568000D03*
%TO.P,J3,3,Pin_3*%
%TO.N,/RX*%
X124206000Y-100838000D03*
%TO.P,J3,4,Pin_4*%
%TO.N,/TX*%
X124206000Y-102108000D03*
%TD*%
D15*
%TO.P,J2,1,Pin_1*%
%TO.N,+12V*%
X139505000Y-110345000D03*
D16*
%TO.P,J2,2,Pin_2*%
%TO.N,Net-(J2-Pin_2)*%
X139505000Y-105265000D03*
%TD*%
D17*
%TO.N,+3.3V*%
X119100000Y-85675000D03*
X117125000Y-94925000D03*
%TO.N,/TX*%
X126600000Y-86800000D03*
%TO.N,+3.3V*%
X115600000Y-107812062D03*
X115600000Y-101200000D03*
%TO.N,/RX*%
X126496299Y-88142299D03*
%TD*%
D18*
%TO.N,+3.3V*%
X119100000Y-92950000D02*
X117125000Y-94925000D01*
X119100000Y-85675000D02*
X119100000Y-92950000D01*
%TO.N,/TX*%
X122400000Y-101600000D02*
X122908000Y-102108000D01*
X122400000Y-91000000D02*
X122400000Y-101600000D01*
X126600000Y-86800000D02*
X122400000Y-91000000D01*
X122908000Y-102108000D02*
X124206000Y-102108000D01*
%TO.N,+3.3V*%
X115600000Y-101200000D02*
X115600000Y-107812062D01*
D19*
%TO.N,+12V*%
X135380000Y-106220000D02*
X139505000Y-110345000D01*
X123316000Y-106220000D02*
X135380000Y-106220000D01*
D18*
%TO.N,/RX*%
X122878000Y-91760598D02*
X122878000Y-100330000D01*
X122878000Y-100330000D02*
X123386000Y-100838000D01*
X123386000Y-100838000D02*
X124206000Y-100838000D01*
X126496299Y-88142299D02*
X122878000Y-91760598D01*
%TD*%
%TA.AperFunction,Conductor*%
%TO.N,GND*%
G36*
X116202121Y-76297902D02*
G01*
X116248614Y-76351558D01*
X116260000Y-76403900D01*
X116260000Y-76450000D01*
X116260000Y-81850000D01*
X129460000Y-81850000D01*
X129460000Y-80065294D01*
X138468779Y-80065294D01*
X138483699Y-80175436D01*
X138498438Y-80284252D01*
X138566719Y-80494393D01*
X138671416Y-80688954D01*
X138671425Y-80688968D01*
X138809181Y-80861706D01*
X138809187Y-80861712D01*
X138975577Y-81007084D01*
X139165242Y-81120403D01*
X139165249Y-81120406D01*
X139165255Y-81120410D01*
X139372120Y-81198048D01*
X139372122Y-81198048D01*
X139372124Y-81198049D01*
X139589520Y-81237500D01*
X139589523Y-81237500D01*
X139755127Y-81237500D01*
X139755133Y-81237500D01*
X139909828Y-81223577D01*
X139920066Y-81222656D01*
X139920066Y-81222655D01*
X140133056Y-81163874D01*
X140332129Y-81068006D01*
X140510884Y-80938132D01*
X140663578Y-80778427D01*
X140785301Y-80594025D01*
X140872141Y-80390852D01*
X140921308Y-80175437D01*
X140931221Y-79954706D01*
X140901562Y-79735751D01*
X140833283Y-79525612D01*
X140784131Y-79434272D01*
X140728583Y-79331045D01*
X140728574Y-79331031D01*
X140590818Y-79158293D01*
X140590812Y-79158287D01*
X140424422Y-79012915D01*
X140234757Y-78899596D01*
X140234747Y-78899591D01*
X140234746Y-78899590D01*
X140234745Y-78899590D01*
X140027880Y-78821952D01*
X140027875Y-78821950D01*
X139810480Y-78782500D01*
X139810477Y-78782500D01*
X139644867Y-78782500D01*
X139614157Y-78785263D01*
X139479933Y-78797343D01*
X139479933Y-78797344D01*
X139266952Y-78856123D01*
X139266938Y-78856128D01*
X139067877Y-78951990D01*
X139067870Y-78951994D01*
X138889115Y-79081868D01*
X138889114Y-79081869D01*
X138736421Y-79241573D01*
X138614701Y-79425970D01*
X138527860Y-79629144D01*
X138527857Y-79629152D01*
X138491524Y-79788341D01*
X138478692Y-79844563D01*
X138468779Y-80065294D01*
X129460000Y-80065294D01*
X129460000Y-76403900D01*
X129480002Y-76335779D01*
X129533658Y-76289286D01*
X129586000Y-76277900D01*
X138395102Y-76277900D01*
X138428819Y-76277900D01*
X138431175Y-76277944D01*
X138451387Y-76278700D01*
X138890772Y-76295140D01*
X138895428Y-76295489D01*
X139351310Y-76346854D01*
X139355935Y-76347552D01*
X139806681Y-76432838D01*
X139811228Y-76433875D01*
X140254367Y-76552614D01*
X140258827Y-76553989D01*
X140691832Y-76705504D01*
X140696207Y-76707221D01*
X141116658Y-76890663D01*
X141120904Y-76892707D01*
X141526473Y-77107057D01*
X141530538Y-77109403D01*
X141736980Y-77239119D01*
X141918956Y-77353463D01*
X141922840Y-77356110D01*
X142175439Y-77542536D01*
X142291931Y-77628511D01*
X142295602Y-77631438D01*
X142576926Y-77873537D01*
X142643312Y-77930667D01*
X142646753Y-77933859D01*
X142971139Y-78258245D01*
X142974332Y-78261687D01*
X143273558Y-78609394D01*
X143276488Y-78613068D01*
X143526626Y-78951994D01*
X143548882Y-78982149D01*
X143551536Y-78986043D01*
X143611748Y-79081869D01*
X143768307Y-79331031D01*
X143795586Y-79374444D01*
X143797942Y-79378526D01*
X144012292Y-79784095D01*
X144014336Y-79788341D01*
X144197778Y-80208792D01*
X144199500Y-80213180D01*
X144351004Y-80646156D01*
X144352388Y-80650643D01*
X144362655Y-80688960D01*
X144464220Y-81068005D01*
X144471118Y-81093746D01*
X144472165Y-81098338D01*
X144495688Y-81222656D01*
X144557444Y-81549045D01*
X144558147Y-81553706D01*
X144609508Y-82009547D01*
X144609860Y-82014247D01*
X144627056Y-82473824D01*
X144627100Y-82476180D01*
X144627100Y-114098818D01*
X144627056Y-114101174D01*
X144609860Y-114560752D01*
X144609508Y-114565452D01*
X144558147Y-115021293D01*
X144557444Y-115025954D01*
X144472166Y-115476658D01*
X144471118Y-115481253D01*
X144352388Y-115924356D01*
X144351001Y-115928851D01*
X144280182Y-116131242D01*
X144199500Y-116361819D01*
X144197778Y-116366207D01*
X144014336Y-116786658D01*
X144012292Y-116790904D01*
X143797942Y-117196473D01*
X143795586Y-117200555D01*
X143551536Y-117588956D01*
X143548882Y-117592850D01*
X143276488Y-117961931D01*
X143273550Y-117965616D01*
X142974332Y-118313312D01*
X142971127Y-118316767D01*
X142646767Y-118641127D01*
X142643312Y-118644332D01*
X142295616Y-118943550D01*
X142291931Y-118946488D01*
X141922850Y-119218882D01*
X141918956Y-119221536D01*
X141530555Y-119465586D01*
X141526473Y-119467942D01*
X141120904Y-119682292D01*
X141116658Y-119684336D01*
X140696207Y-119867778D01*
X140691819Y-119869500D01*
X140461242Y-119950182D01*
X140258851Y-120021001D01*
X140254356Y-120022388D01*
X139811253Y-120141118D01*
X139806658Y-120142166D01*
X139355954Y-120227444D01*
X139351293Y-120228147D01*
X138895452Y-120279508D01*
X138890752Y-120279860D01*
X138431175Y-120297056D01*
X138428819Y-120297100D01*
X107951181Y-120297100D01*
X107948825Y-120297056D01*
X107489247Y-120279860D01*
X107484547Y-120279508D01*
X107028706Y-120228147D01*
X107024045Y-120227444D01*
X106573341Y-120142166D01*
X106568752Y-120141119D01*
X106282746Y-120064484D01*
X106125643Y-120022388D01*
X106121156Y-120021004D01*
X105688181Y-119869500D01*
X105683792Y-119867778D01*
X105263341Y-119684336D01*
X105259095Y-119682292D01*
X104853526Y-119467942D01*
X104849452Y-119465591D01*
X104720544Y-119384592D01*
X104461043Y-119221536D01*
X104457149Y-119218882D01*
X104088068Y-118946488D01*
X104084394Y-118943558D01*
X103736687Y-118644332D01*
X103733245Y-118641139D01*
X103408859Y-118316753D01*
X103405667Y-118313312D01*
X103194127Y-118067499D01*
X103106438Y-117965602D01*
X103103511Y-117961931D01*
X103095003Y-117950403D01*
X102831110Y-117592840D01*
X102828463Y-117588956D01*
X102662223Y-117324388D01*
X102584403Y-117200538D01*
X102582057Y-117196473D01*
X102422879Y-116895294D01*
X105448779Y-116895294D01*
X105463699Y-117005436D01*
X105478438Y-117114252D01*
X105546719Y-117324393D01*
X105651416Y-117518954D01*
X105651425Y-117518968D01*
X105789181Y-117691706D01*
X105789187Y-117691712D01*
X105955577Y-117837084D01*
X106145242Y-117950403D01*
X106145249Y-117950406D01*
X106145255Y-117950410D01*
X106352120Y-118028048D01*
X106352122Y-118028048D01*
X106352124Y-118028049D01*
X106569520Y-118067500D01*
X106569523Y-118067500D01*
X106735127Y-118067500D01*
X106735133Y-118067500D01*
X106889828Y-118053577D01*
X106900066Y-118052656D01*
X106900066Y-118052655D01*
X107113056Y-117993874D01*
X107312129Y-117898006D01*
X107490884Y-117768132D01*
X107643578Y-117608427D01*
X107765301Y-117424025D01*
X107852141Y-117220852D01*
X107901308Y-117005437D01*
X107906255Y-116895294D01*
X138468779Y-116895294D01*
X138483699Y-117005436D01*
X138498438Y-117114252D01*
X138566719Y-117324393D01*
X138671416Y-117518954D01*
X138671425Y-117518968D01*
X138809181Y-117691706D01*
X138809187Y-117691712D01*
X138975577Y-117837084D01*
X139165242Y-117950403D01*
X139165249Y-117950406D01*
X139165255Y-117950410D01*
X139372120Y-118028048D01*
X139372122Y-118028048D01*
X139372124Y-118028049D01*
X139589520Y-118067500D01*
X139589523Y-118067500D01*
X139755127Y-118067500D01*
X139755133Y-118067500D01*
X139909828Y-118053577D01*
X139920066Y-118052656D01*
X139920066Y-118052655D01*
X140133056Y-117993874D01*
X140332129Y-117898006D01*
X140510884Y-117768132D01*
X140663578Y-117608427D01*
X140785301Y-117424025D01*
X140872141Y-117220852D01*
X140921308Y-117005437D01*
X140931221Y-116784706D01*
X140901562Y-116565751D01*
X140833283Y-116355612D01*
X140833280Y-116355606D01*
X140728583Y-116161045D01*
X140728574Y-116161031D01*
X140590818Y-115988293D01*
X140590812Y-115988287D01*
X140424422Y-115842915D01*
X140234757Y-115729596D01*
X140234747Y-115729591D01*
X140234746Y-115729590D01*
X140234745Y-115729590D01*
X140027880Y-115651952D01*
X140027875Y-115651950D01*
X139810480Y-115612500D01*
X139810477Y-115612500D01*
X139644867Y-115612500D01*
X139614157Y-115615263D01*
X139479933Y-115627343D01*
X139479933Y-115627344D01*
X139266952Y-115686123D01*
X139266938Y-115686128D01*
X139067877Y-115781990D01*
X139067870Y-115781994D01*
X138889115Y-115911868D01*
X138889114Y-115911869D01*
X138736421Y-116071573D01*
X138614701Y-116255970D01*
X138527860Y-116459144D01*
X138527857Y-116459152D01*
X138478692Y-116674561D01*
X138478692Y-116674563D01*
X138468779Y-116895294D01*
X107906255Y-116895294D01*
X107911221Y-116784706D01*
X107881562Y-116565751D01*
X107813283Y-116355612D01*
X107813280Y-116355606D01*
X107708583Y-116161045D01*
X107708574Y-116161031D01*
X107570818Y-115988293D01*
X107570812Y-115988287D01*
X107404422Y-115842915D01*
X107214757Y-115729596D01*
X107214747Y-115729591D01*
X107214746Y-115729590D01*
X107214745Y-115729590D01*
X107007880Y-115651952D01*
X107007875Y-115651950D01*
X106790480Y-115612500D01*
X106790477Y-115612500D01*
X106624867Y-115612500D01*
X106594157Y-115615263D01*
X106459933Y-115627343D01*
X106459933Y-115627344D01*
X106246952Y-115686123D01*
X106246938Y-115686128D01*
X106047877Y-115781990D01*
X106047870Y-115781994D01*
X105869115Y-115911868D01*
X105869114Y-115911869D01*
X105716421Y-116071573D01*
X105594701Y-116255970D01*
X105507860Y-116459144D01*
X105507857Y-116459152D01*
X105458692Y-116674561D01*
X105458692Y-116674563D01*
X105448779Y-116895294D01*
X102422879Y-116895294D01*
X102367707Y-116790904D01*
X102365663Y-116786658D01*
X102182221Y-116366207D01*
X102180504Y-116361832D01*
X102028989Y-115928827D01*
X102027611Y-115924356D01*
X101908875Y-115481228D01*
X101907838Y-115476681D01*
X101822552Y-115025935D01*
X101821854Y-115021310D01*
X101770489Y-114565428D01*
X101770140Y-114560772D01*
X101752944Y-114101174D01*
X101752900Y-114098818D01*
X101752900Y-113034606D01*
X121058000Y-113034606D01*
X121068467Y-113167594D01*
X121123794Y-113387167D01*
X121123797Y-113387176D01*
X121217441Y-113593340D01*
X121217444Y-113593346D01*
X121346394Y-113779473D01*
X121346408Y-113779490D01*
X121506509Y-113939591D01*
X121506526Y-113939605D01*
X121692653Y-114068555D01*
X121692659Y-114068558D01*
X121898823Y-114162202D01*
X121898832Y-114162205D01*
X122118405Y-114217532D01*
X122251393Y-114228000D01*
X123062000Y-114228000D01*
X123062000Y-112720000D01*
X123570000Y-112720000D01*
X123570000Y-114228000D01*
X124380607Y-114228000D01*
X124513594Y-114217532D01*
X124733167Y-114162205D01*
X124733176Y-114162202D01*
X124939340Y-114068558D01*
X124939346Y-114068555D01*
X125125473Y-113939605D01*
X125125490Y-113939591D01*
X125285591Y-113779490D01*
X125285605Y-113779473D01*
X125414555Y-113593346D01*
X125414558Y-113593340D01*
X125508202Y-113387176D01*
X125508205Y-113387167D01*
X125563532Y-113167594D01*
X125574000Y-113034606D01*
X125574000Y-112474000D01*
X124747116Y-112474000D01*
X124775493Y-112429844D01*
X124816000Y-112291889D01*
X124816000Y-112148111D01*
X124775493Y-112010156D01*
X124747116Y-111966000D01*
X125574000Y-111966000D01*
X125574000Y-111405393D01*
X125563532Y-111272405D01*
X125508205Y-111052832D01*
X125508202Y-111052823D01*
X125414558Y-110846659D01*
X125414555Y-110846653D01*
X125285605Y-110660526D01*
X125285591Y-110660509D01*
X125125490Y-110500408D01*
X125125473Y-110500394D01*
X124939346Y-110371444D01*
X124939340Y-110371441D01*
X124733176Y-110277797D01*
X124733167Y-110277794D01*
X124513594Y-110222467D01*
X124380607Y-110212000D01*
X123570000Y-110212000D01*
X123570000Y-111720000D01*
X123062000Y-111720000D01*
X123062000Y-110212000D01*
X122251393Y-110212000D01*
X122118405Y-110222467D01*
X121898832Y-110277794D01*
X121898823Y-110277797D01*
X121692659Y-110371441D01*
X121692653Y-110371444D01*
X121506526Y-110500394D01*
X121506509Y-110500408D01*
X121346408Y-110660509D01*
X121346394Y-110660526D01*
X121217444Y-110846653D01*
X121217441Y-110846659D01*
X121123797Y-111052823D01*
X121123794Y-111052832D01*
X121068467Y-111272405D01*
X121058000Y-111405393D01*
X121058000Y-111966000D01*
X121884884Y-111966000D01*
X121856507Y-112010156D01*
X121816000Y-112148111D01*
X121816000Y-112291889D01*
X121856507Y-112429844D01*
X121884884Y-112474000D01*
X121058000Y-112474000D01*
X121058000Y-113034606D01*
X101752900Y-113034606D01*
X101752900Y-107812065D01*
X114940692Y-107812065D01*
X114959849Y-107969841D01*
X114997570Y-108069300D01*
X115016213Y-108118457D01*
X115106502Y-108249263D01*
X115225471Y-108354661D01*
X115225472Y-108354661D01*
X115225474Y-108354663D01*
X115300200Y-108393882D01*
X115366207Y-108428525D01*
X115520529Y-108466562D01*
X115520530Y-108466562D01*
X115679470Y-108466562D01*
X115679471Y-108466562D01*
X115833793Y-108428525D01*
X115974529Y-108354661D01*
X116093498Y-108249263D01*
X116183787Y-108118457D01*
X116230585Y-107995063D01*
X121311500Y-107995063D01*
X121311501Y-107995072D01*
X121326265Y-108069300D01*
X121382516Y-108153484D01*
X121466697Y-108209733D01*
X121466699Y-108209734D01*
X121540933Y-108224500D01*
X125091066Y-108224499D01*
X125091069Y-108224498D01*
X125091072Y-108224498D01*
X125127663Y-108217219D01*
X125165301Y-108209734D01*
X125249484Y-108153484D01*
X125305734Y-108069301D01*
X125320500Y-107995067D01*
X125320500Y-107350562D01*
X125340502Y-107282441D01*
X125394158Y-107235948D01*
X125446500Y-107224562D01*
X126005667Y-107224562D01*
X126073788Y-107244564D01*
X126120281Y-107298220D01*
X126130385Y-107368494D01*
X126101997Y-107431781D01*
X126007785Y-107543521D01*
X125888635Y-107746563D01*
X125805514Y-107966818D01*
X125760810Y-108197963D01*
X125757999Y-108250876D01*
X125758000Y-108966000D01*
X127516000Y-108966000D01*
X127516000Y-109474000D01*
X125758001Y-109474000D01*
X125758001Y-110189123D01*
X125760810Y-110242035D01*
X125760810Y-110242036D01*
X125805514Y-110473181D01*
X125888635Y-110693436D01*
X126007785Y-110896478D01*
X126159535Y-111076464D01*
X126339521Y-111228214D01*
X126542564Y-111347364D01*
X126542563Y-111347364D01*
X126762818Y-111430485D01*
X126993963Y-111475189D01*
X127046876Y-111477999D01*
X127762000Y-111477999D01*
X127762000Y-110651115D01*
X127806156Y-110679493D01*
X127944111Y-110720000D01*
X128087889Y-110720000D01*
X128225844Y-110679493D01*
X128270000Y-110651115D01*
X128270000Y-111477999D01*
X128985123Y-111477999D01*
X129038035Y-111475189D01*
X129038036Y-111475189D01*
X129269181Y-111430485D01*
X129489436Y-111347364D01*
X129692478Y-111228214D01*
X129872464Y-111076464D01*
X130024214Y-110896478D01*
X130143364Y-110693436D01*
X130226485Y-110473181D01*
X130271189Y-110242036D01*
X130274000Y-110189123D01*
X130274000Y-109474000D01*
X128516000Y-109474000D01*
X128516000Y-108966000D01*
X130273999Y-108966000D01*
X130273998Y-108250876D01*
X130271189Y-108197964D01*
X130271189Y-108197963D01*
X130226485Y-107966818D01*
X130143364Y-107746563D01*
X130024214Y-107543521D01*
X129930003Y-107431781D01*
X129901385Y-107366807D01*
X129912437Y-107296676D01*
X129959650Y-107243654D01*
X130026333Y-107224562D01*
X134911707Y-107224562D01*
X134979828Y-107244564D01*
X135000802Y-107261467D01*
X137913595Y-110174260D01*
X137947621Y-110236572D01*
X137950500Y-110263355D01*
X137950500Y-111670063D01*
X137950501Y-111670073D01*
X137965265Y-111744300D01*
X138021516Y-111828484D01*
X138105697Y-111884733D01*
X138105699Y-111884734D01*
X138179933Y-111899500D01*
X140830066Y-111899499D01*
X140830069Y-111899498D01*
X140830073Y-111899498D01*
X140881837Y-111889202D01*
X140904301Y-111884734D01*
X140988484Y-111828484D01*
X141044734Y-111744301D01*
X141059500Y-111670067D01*
X141059499Y-109019934D01*
X141059498Y-109019931D01*
X141059498Y-109019926D01*
X141044734Y-108945699D01*
X140988483Y-108861515D01*
X140904302Y-108805266D01*
X140830069Y-108790500D01*
X140830067Y-108790500D01*
X139423355Y-108790500D01*
X139355234Y-108770498D01*
X139334260Y-108753595D01*
X137797823Y-107217158D01*
X136099876Y-105519210D01*
X136098802Y-105518109D01*
X136037722Y-105453852D01*
X136037721Y-105453851D01*
X136037719Y-105453849D01*
X135987178Y-105418672D01*
X135983366Y-105415797D01*
X135935658Y-105376895D01*
X135905124Y-105360945D01*
X135898298Y-105356809D01*
X135887428Y-105349244D01*
X135870030Y-105337135D01*
X135870025Y-105337133D01*
X135870022Y-105337131D01*
X135813451Y-105312854D01*
X135809140Y-105310807D01*
X135775761Y-105293371D01*
X135754563Y-105282298D01*
X135721443Y-105272821D01*
X135713926Y-105270144D01*
X135701938Y-105265000D01*
X137945693Y-105265000D01*
X137954499Y-105376895D01*
X137964891Y-105508928D01*
X138022010Y-105746850D01*
X138115646Y-105972909D01*
X138243495Y-106181539D01*
X138243496Y-106181541D01*
X138402402Y-106367597D01*
X138588458Y-106526503D01*
X138588462Y-106526506D01*
X138797089Y-106654353D01*
X139023148Y-106747989D01*
X139261071Y-106805109D01*
X139505000Y-106824307D01*
X139748929Y-106805109D01*
X139986852Y-106747989D01*
X140212911Y-106654353D01*
X140421538Y-106526506D01*
X140607597Y-106367597D01*
X140766506Y-106181538D01*
X140894353Y-105972911D01*
X140987989Y-105746852D01*
X141045109Y-105508929D01*
X141064307Y-105265000D01*
X141045109Y-105021071D01*
X140987989Y-104783148D01*
X140894353Y-104557089D01*
X140766506Y-104348462D01*
X140766503Y-104348458D01*
X140607597Y-104162402D01*
X140421541Y-104003496D01*
X140421539Y-104003495D01*
X140421538Y-104003494D01*
X140212911Y-103875647D01*
X139986852Y-103782011D01*
X139986850Y-103782010D01*
X139824093Y-103742936D01*
X139748929Y-103724891D01*
X139505000Y-103705693D01*
X139261071Y-103724891D01*
X139023149Y-103782010D01*
X138797090Y-103875646D01*
X138588460Y-104003495D01*
X138588458Y-104003496D01*
X138402402Y-104162402D01*
X138243496Y-104348458D01*
X138243495Y-104348460D01*
X138115646Y-104557090D01*
X138022010Y-104783149D01*
X137964891Y-105021071D01*
X137945693Y-105265000D01*
X135701938Y-105265000D01*
X135682280Y-105256565D01*
X135621972Y-105244171D01*
X135617322Y-105243029D01*
X135558139Y-105226095D01*
X135558132Y-105226094D01*
X135523789Y-105223478D01*
X135515891Y-105222370D01*
X135495762Y-105218234D01*
X135482155Y-105215438D01*
X135482154Y-105215438D01*
X135420593Y-105215438D01*
X135415811Y-105215256D01*
X135374030Y-105212074D01*
X135354422Y-105210581D01*
X135354414Y-105210581D01*
X135334254Y-105213149D01*
X135320245Y-105214933D01*
X135312287Y-105215438D01*
X125446499Y-105215438D01*
X125378378Y-105195436D01*
X125331885Y-105141780D01*
X125320499Y-105089438D01*
X125320499Y-104444936D01*
X125320498Y-104444927D01*
X125305734Y-104370699D01*
X125305733Y-104370697D01*
X125249484Y-104286516D01*
X125249483Y-104286515D01*
X125165302Y-104230266D01*
X125091067Y-104215500D01*
X121540936Y-104215500D01*
X121540927Y-104215501D01*
X121466699Y-104230265D01*
X121382515Y-104286516D01*
X121326266Y-104370697D01*
X121311500Y-104444930D01*
X121311500Y-107995063D01*
X116230585Y-107995063D01*
X116240149Y-107969844D01*
X116240149Y-107969843D01*
X116240150Y-107969841D01*
X116259307Y-107812065D01*
X116259307Y-107812058D01*
X116240150Y-107654282D01*
X116198143Y-107543521D01*
X116183787Y-107505667D01*
X116093498Y-107374861D01*
X116093496Y-107374859D01*
X116021946Y-107311470D01*
X115984221Y-107251325D01*
X115979500Y-107217158D01*
X115979500Y-104557089D01*
X115979500Y-101794898D01*
X115999501Y-101726781D01*
X116021939Y-101700596D01*
X116093498Y-101637201D01*
X116183787Y-101506395D01*
X116240149Y-101357782D01*
X116240149Y-101357781D01*
X116240150Y-101357779D01*
X116259307Y-101200003D01*
X116259307Y-101199996D01*
X116240150Y-101042220D01*
X116217800Y-100983289D01*
X116183787Y-100893605D01*
X116093498Y-100762799D01*
X115974529Y-100657401D01*
X115974528Y-100657400D01*
X115974525Y-100657398D01*
X115833797Y-100583539D01*
X115833795Y-100583538D01*
X115833793Y-100583537D01*
X115833791Y-100583536D01*
X115833790Y-100583536D01*
X115679472Y-100545500D01*
X115679471Y-100545500D01*
X115520529Y-100545500D01*
X115520527Y-100545500D01*
X115366209Y-100583536D01*
X115366202Y-100583539D01*
X115225474Y-100657398D01*
X115225469Y-100657402D01*
X115106501Y-100762800D01*
X115016215Y-100893601D01*
X115016212Y-100893607D01*
X114959849Y-101042220D01*
X114940692Y-101199996D01*
X114940692Y-101200003D01*
X114959849Y-101357779D01*
X115003548Y-101473000D01*
X115016213Y-101506395D01*
X115106502Y-101637201D01*
X115178053Y-101700591D01*
X115215778Y-101760734D01*
X115220499Y-101794902D01*
X115220499Y-107217159D01*
X115200497Y-107285280D01*
X115178054Y-107311470D01*
X115106500Y-107374862D01*
X115016215Y-107505663D01*
X115016212Y-107505669D01*
X114959849Y-107654282D01*
X114940692Y-107812058D01*
X114940692Y-107812065D01*
X101752900Y-107812065D01*
X101752900Y-99313999D01*
X119419692Y-99313999D01*
X119419693Y-99314000D01*
X120154101Y-99314000D01*
X120098940Y-99373921D01*
X120052018Y-99480892D01*
X120042372Y-99597302D01*
X120071047Y-99710538D01*
X120134936Y-99808327D01*
X120152503Y-99822000D01*
X119419693Y-99822000D01*
X119460223Y-99955610D01*
X119460224Y-99955612D01*
X119553824Y-100130724D01*
X119679790Y-100284213D01*
X119679791Y-100284215D01*
X119708174Y-100307508D01*
X119748142Y-100366185D01*
X119750043Y-100437156D01*
X119734928Y-100471941D01*
X119711919Y-100508560D01*
X119711917Y-100508563D01*
X119659839Y-100657398D01*
X119655763Y-100669046D01*
X119636726Y-100838000D01*
X119655763Y-101006954D01*
X119711917Y-101167436D01*
X119711918Y-101167437D01*
X119711919Y-101167439D01*
X119802375Y-101311399D01*
X119874880Y-101383905D01*
X119908905Y-101446218D01*
X119903839Y-101517033D01*
X119874880Y-101562095D01*
X119802375Y-101634600D01*
X119711919Y-101778560D01*
X119711918Y-101778562D01*
X119655764Y-101939043D01*
X119655763Y-101939046D01*
X119636726Y-102108000D01*
X119655763Y-102276954D01*
X119711917Y-102437437D01*
X119711918Y-102437437D01*
X119711919Y-102437439D01*
X119802375Y-102581399D01*
X119802377Y-102581402D01*
X119922597Y-102701622D01*
X119922600Y-102701624D01*
X120066563Y-102792082D01*
X120227046Y-102848237D01*
X120396000Y-102867274D01*
X120564954Y-102848237D01*
X120725437Y-102792082D01*
X120869400Y-102701624D01*
X120989624Y-102581400D01*
X121080082Y-102437437D01*
X121136237Y-102276954D01*
X121155274Y-102108000D01*
X121136237Y-101939046D01*
X121080082Y-101778563D01*
X120989624Y-101634600D01*
X120989623Y-101634599D01*
X120989622Y-101634597D01*
X120939125Y-101584100D01*
X122015580Y-101584100D01*
X122020015Y-101619682D01*
X122020499Y-101627468D01*
X122020499Y-101631435D01*
X122020501Y-101631449D01*
X122024169Y-101653441D01*
X122024544Y-101656014D01*
X122031247Y-101709781D01*
X122033517Y-101717406D01*
X122036099Y-101724927D01*
X122061875Y-101772556D01*
X122063065Y-101774869D01*
X122079108Y-101807683D01*
X122086874Y-101823568D01*
X122086875Y-101823569D01*
X122091493Y-101830038D01*
X122096376Y-101836312D01*
X122136242Y-101873011D01*
X122138096Y-101874790D01*
X122371305Y-102107999D01*
X122602580Y-102339274D01*
X122618968Y-102359454D01*
X122624930Y-102368579D01*
X122624932Y-102368582D01*
X122653221Y-102390600D01*
X122659078Y-102395773D01*
X122661879Y-102398574D01*
X122661886Y-102398580D01*
X122680037Y-102411539D01*
X122682110Y-102413084D01*
X122700437Y-102427349D01*
X122724880Y-102446375D01*
X122731860Y-102450152D01*
X122739015Y-102453649D01*
X122739020Y-102453653D01*
X122779486Y-102465699D01*
X122790946Y-102469111D01*
X122793428Y-102469907D01*
X122814566Y-102477163D01*
X122844673Y-102487500D01*
X122844680Y-102487500D01*
X122852485Y-102488803D01*
X122860407Y-102489790D01*
X122860409Y-102489791D01*
X122860410Y-102489790D01*
X122860411Y-102489791D01*
X122875546Y-102489165D01*
X122914510Y-102487553D01*
X122917104Y-102487500D01*
X123483737Y-102487500D01*
X123551858Y-102507502D01*
X123590424Y-102546464D01*
X123612375Y-102581400D01*
X123732597Y-102701622D01*
X123732600Y-102701624D01*
X123876563Y-102792082D01*
X124037046Y-102848237D01*
X124206000Y-102867274D01*
X124374954Y-102848237D01*
X124535437Y-102792082D01*
X124679400Y-102701624D01*
X124799624Y-102581400D01*
X124890082Y-102437437D01*
X124946237Y-102276954D01*
X124965274Y-102108000D01*
X124946237Y-101939046D01*
X124890082Y-101778563D01*
X124799624Y-101634600D01*
X124799623Y-101634599D01*
X124799622Y-101634597D01*
X124727120Y-101562095D01*
X124693094Y-101499783D01*
X124698159Y-101428968D01*
X124727120Y-101383905D01*
X124799622Y-101311402D01*
X124799624Y-101311400D01*
X124890082Y-101167437D01*
X124946237Y-101006954D01*
X124965274Y-100838000D01*
X124946237Y-100669046D01*
X124890082Y-100508563D01*
X124867071Y-100471941D01*
X124847766Y-100403622D01*
X124868461Y-100335709D01*
X124893827Y-100307507D01*
X124922212Y-100284212D01*
X125048173Y-100130727D01*
X125048174Y-100130727D01*
X125141775Y-99955612D01*
X125141776Y-99955610D01*
X125182307Y-99822000D01*
X124416059Y-99822000D01*
X124418129Y-99820805D01*
X124491801Y-99733007D01*
X124531000Y-99625306D01*
X124531000Y-99510694D01*
X124491801Y-99402993D01*
X124418129Y-99315195D01*
X124416059Y-99314000D01*
X125182307Y-99314000D01*
X125182307Y-99313999D01*
X125141776Y-99180389D01*
X125141775Y-99180387D01*
X125048175Y-99005275D01*
X124986237Y-98929804D01*
X124958483Y-98864457D01*
X124959900Y-98829225D01*
X124959893Y-98829225D01*
X124959905Y-98829101D01*
X124960058Y-98825285D01*
X124960500Y-98823067D01*
X124960499Y-97772934D01*
X124960498Y-97772930D01*
X124960498Y-97772926D01*
X124945734Y-97698699D01*
X124923735Y-97665776D01*
X124889484Y-97614516D01*
X124889483Y-97614515D01*
X124805302Y-97558266D01*
X124731067Y-97543500D01*
X123680936Y-97543500D01*
X123680926Y-97543501D01*
X123606699Y-97558265D01*
X123522515Y-97614516D01*
X123488264Y-97665776D01*
X123433787Y-97711303D01*
X123363344Y-97720150D01*
X123299300Y-97689509D01*
X123261989Y-97629107D01*
X123257500Y-97595773D01*
X123257500Y-91969981D01*
X123277502Y-91901860D01*
X123294400Y-91880891D01*
X126341587Y-88833703D01*
X126403899Y-88799678D01*
X126430682Y-88796799D01*
X126575769Y-88796799D01*
X126575770Y-88796799D01*
X126730092Y-88758762D01*
X126870828Y-88684898D01*
X126989797Y-88579500D01*
X127080086Y-88448694D01*
X127136448Y-88300081D01*
X127136448Y-88300080D01*
X127136449Y-88300078D01*
X127155606Y-88142302D01*
X127155606Y-88142295D01*
X127136449Y-87984519D01*
X127122837Y-87948630D01*
X127080086Y-87835904D01*
X126989797Y-87705098D01*
X126870828Y-87599700D01*
X126870827Y-87599699D01*
X126865123Y-87594646D01*
X126867052Y-87592467D01*
X126830862Y-87547806D01*
X126823082Y-87477237D01*
X126854689Y-87413664D01*
X126888585Y-87387706D01*
X126974525Y-87342601D01*
X126974524Y-87342601D01*
X126974529Y-87342599D01*
X127093498Y-87237201D01*
X127183787Y-87106395D01*
X127240149Y-86957782D01*
X127240149Y-86957781D01*
X127240150Y-86957779D01*
X127259307Y-86800003D01*
X127259307Y-86799996D01*
X127240150Y-86642220D01*
X127226538Y-86606330D01*
X127183787Y-86493605D01*
X127093498Y-86362799D01*
X126974529Y-86257401D01*
X126974528Y-86257400D01*
X126974525Y-86257398D01*
X126833797Y-86183539D01*
X126833795Y-86183538D01*
X126833793Y-86183537D01*
X126833791Y-86183536D01*
X126833790Y-86183536D01*
X126679472Y-86145500D01*
X126679471Y-86145500D01*
X126520529Y-86145500D01*
X126520527Y-86145500D01*
X126366209Y-86183536D01*
X126366202Y-86183539D01*
X126225474Y-86257398D01*
X126225469Y-86257402D01*
X126106501Y-86362800D01*
X126016215Y-86493601D01*
X126016212Y-86493607D01*
X125959849Y-86642220D01*
X125940693Y-86799996D01*
X125940692Y-86799996D01*
X125946574Y-86848436D01*
X125934927Y-86918471D01*
X125910587Y-86952717D01*
X122168724Y-90694580D01*
X122148551Y-90710964D01*
X122139419Y-90716930D01*
X122139416Y-90716933D01*
X122117394Y-90745227D01*
X122112231Y-90751073D01*
X122111285Y-90752019D01*
X122109414Y-90753891D01*
X122096456Y-90772039D01*
X122094903Y-90774122D01*
X122061628Y-90816876D01*
X122057835Y-90823884D01*
X122054347Y-90831020D01*
X122038888Y-90882942D01*
X122038094Y-90885420D01*
X122020499Y-90936675D01*
X122019194Y-90944495D01*
X122018207Y-90952412D01*
X122020445Y-91006516D01*
X122020499Y-91009119D01*
X122020500Y-101547573D01*
X122017818Y-101573432D01*
X122015580Y-101584100D01*
X120939125Y-101584100D01*
X120917120Y-101562095D01*
X120883094Y-101499783D01*
X120888159Y-101428968D01*
X120917120Y-101383905D01*
X120989622Y-101311402D01*
X120989624Y-101311400D01*
X121080082Y-101167437D01*
X121136237Y-101006954D01*
X121155274Y-100838000D01*
X121136237Y-100669046D01*
X121080082Y-100508563D01*
X121057071Y-100471941D01*
X121037766Y-100403622D01*
X121058461Y-100335709D01*
X121083827Y-100307507D01*
X121112212Y-100284212D01*
X121238173Y-100130727D01*
X121238174Y-100130727D01*
X121331775Y-99955612D01*
X121331776Y-99955610D01*
X121372307Y-99822000D01*
X120637899Y-99822000D01*
X120693060Y-99762079D01*
X120739982Y-99655108D01*
X120749628Y-99538698D01*
X120720953Y-99425462D01*
X120657064Y-99327673D01*
X120639497Y-99314000D01*
X121372307Y-99314000D01*
X121372307Y-99313999D01*
X121331776Y-99180389D01*
X121331775Y-99180387D01*
X121238175Y-99005275D01*
X121176237Y-98929804D01*
X121148483Y-98864457D01*
X121149900Y-98829225D01*
X121149893Y-98829225D01*
X121149905Y-98829101D01*
X121150058Y-98825285D01*
X121150500Y-98823067D01*
X121150499Y-97772934D01*
X121150498Y-97772930D01*
X121150498Y-97772926D01*
X121135734Y-97698699D01*
X121113735Y-97665776D01*
X121079484Y-97614516D01*
X121079483Y-97614515D01*
X120995302Y-97558266D01*
X120921067Y-97543500D01*
X119870936Y-97543500D01*
X119870926Y-97543501D01*
X119796699Y-97558265D01*
X119712515Y-97614516D01*
X119656266Y-97698697D01*
X119641500Y-97772930D01*
X119641500Y-98823063D01*
X119641502Y-98823077D01*
X119641944Y-98825299D01*
X119641837Y-98826484D01*
X119642108Y-98829229D01*
X119641587Y-98829280D01*
X119635610Y-98896012D01*
X119615763Y-98929801D01*
X119553825Y-99005273D01*
X119553823Y-99005277D01*
X119460224Y-99180387D01*
X119460223Y-99180389D01*
X119419692Y-99313999D01*
X101752900Y-99313999D01*
X101752900Y-94925003D01*
X116465692Y-94925003D01*
X116484849Y-95082779D01*
X116533447Y-95210919D01*
X116541213Y-95231395D01*
X116631502Y-95362201D01*
X116750471Y-95467599D01*
X116750472Y-95467599D01*
X116750474Y-95467601D01*
X116825200Y-95506820D01*
X116891207Y-95541463D01*
X117045529Y-95579500D01*
X117045530Y-95579500D01*
X117204470Y-95579500D01*
X117204471Y-95579500D01*
X117358793Y-95541463D01*
X117499529Y-95467599D01*
X117618498Y-95362201D01*
X117708787Y-95231395D01*
X117765149Y-95082782D01*
X117765149Y-95082781D01*
X117765150Y-95082779D01*
X117784307Y-94925003D01*
X117784307Y-94925000D01*
X117784307Y-94924996D01*
X117778425Y-94876562D01*
X117790069Y-94806531D01*
X117814408Y-94772284D01*
X119331276Y-93255416D01*
X119351453Y-93239031D01*
X119360582Y-93233068D01*
X119382611Y-93204762D01*
X119387770Y-93198923D01*
X119390581Y-93196113D01*
X119403558Y-93177936D01*
X119405068Y-93175911D01*
X119438375Y-93133119D01*
X119438376Y-93133113D01*
X119442158Y-93126127D01*
X119445653Y-93118979D01*
X119445652Y-93118979D01*
X119461123Y-93067010D01*
X119461882Y-93064642D01*
X119479500Y-93013327D01*
X119479500Y-93013323D01*
X119480803Y-93005516D01*
X119481790Y-92997594D01*
X119481792Y-92997590D01*
X119479553Y-92943464D01*
X119479500Y-92940871D01*
X119479500Y-86269902D01*
X119499502Y-86201781D01*
X119521942Y-86175593D01*
X119593498Y-86112201D01*
X119683787Y-85981395D01*
X119740149Y-85832782D01*
X119740149Y-85832781D01*
X119740150Y-85832779D01*
X119759307Y-85675003D01*
X119759307Y-85674996D01*
X119740150Y-85517220D01*
X119726538Y-85481331D01*
X119683787Y-85368605D01*
X119593498Y-85237799D01*
X119474529Y-85132401D01*
X119474528Y-85132400D01*
X119474525Y-85132398D01*
X119333797Y-85058539D01*
X119333795Y-85058538D01*
X119333793Y-85058537D01*
X119333791Y-85058536D01*
X119333790Y-85058536D01*
X119179472Y-85020500D01*
X119179471Y-85020500D01*
X119020529Y-85020500D01*
X119020527Y-85020500D01*
X118866209Y-85058536D01*
X118866202Y-85058539D01*
X118725474Y-85132398D01*
X118725469Y-85132402D01*
X118606501Y-85237800D01*
X118516215Y-85368601D01*
X118516212Y-85368607D01*
X118459849Y-85517220D01*
X118440692Y-85674996D01*
X118440692Y-85675003D01*
X118459849Y-85832779D01*
X118508447Y-85960919D01*
X118516213Y-85981395D01*
X118606502Y-86112201D01*
X118644089Y-86145500D01*
X118678053Y-86175590D01*
X118715778Y-86235735D01*
X118720499Y-86269902D01*
X118720500Y-92740615D01*
X118700498Y-92808736D01*
X118683595Y-92829710D01*
X117279710Y-94233595D01*
X117217398Y-94267621D01*
X117190615Y-94270500D01*
X117045527Y-94270500D01*
X116891209Y-94308536D01*
X116891202Y-94308539D01*
X116750474Y-94382398D01*
X116750469Y-94382402D01*
X116631501Y-94487800D01*
X116541215Y-94618601D01*
X116541212Y-94618607D01*
X116484849Y-94767220D01*
X116465692Y-94924996D01*
X116465692Y-94925003D01*
X101752900Y-94925003D01*
X101752900Y-82476180D01*
X101752944Y-82473824D01*
X101762004Y-82231679D01*
X101770140Y-82014225D01*
X101770489Y-82009573D01*
X101821855Y-81553685D01*
X101822551Y-81549068D01*
X101907839Y-81098313D01*
X101908873Y-81093777D01*
X102027616Y-80650624D01*
X102028987Y-80646180D01*
X102180507Y-80213157D01*
X102182221Y-80208792D01*
X102196774Y-80175438D01*
X102244829Y-80065294D01*
X105448779Y-80065294D01*
X105463699Y-80175436D01*
X105478438Y-80284252D01*
X105546719Y-80494393D01*
X105651416Y-80688954D01*
X105651425Y-80688968D01*
X105789181Y-80861706D01*
X105789187Y-80861712D01*
X105955577Y-81007084D01*
X106145242Y-81120403D01*
X106145249Y-81120406D01*
X106145255Y-81120410D01*
X106352120Y-81198048D01*
X106352122Y-81198048D01*
X106352124Y-81198049D01*
X106569520Y-81237500D01*
X106569523Y-81237500D01*
X106735127Y-81237500D01*
X106735133Y-81237500D01*
X106889828Y-81223577D01*
X106900066Y-81222656D01*
X106900066Y-81222655D01*
X107113056Y-81163874D01*
X107312129Y-81068006D01*
X107490884Y-80938132D01*
X107643578Y-80778427D01*
X107765301Y-80594025D01*
X107852141Y-80390852D01*
X107901308Y-80175437D01*
X107911221Y-79954706D01*
X107881562Y-79735751D01*
X107813283Y-79525612D01*
X107764131Y-79434272D01*
X107708583Y-79331045D01*
X107708574Y-79331031D01*
X107570818Y-79158293D01*
X107570812Y-79158287D01*
X107404422Y-79012915D01*
X107214757Y-78899596D01*
X107214747Y-78899591D01*
X107214746Y-78899590D01*
X107214745Y-78899590D01*
X107007880Y-78821952D01*
X107007875Y-78821950D01*
X106790480Y-78782500D01*
X106790477Y-78782500D01*
X106624867Y-78782500D01*
X106594157Y-78785263D01*
X106459933Y-78797343D01*
X106459933Y-78797344D01*
X106246952Y-78856123D01*
X106246938Y-78856128D01*
X106047877Y-78951990D01*
X106047870Y-78951994D01*
X105869115Y-79081868D01*
X105869114Y-79081869D01*
X105716421Y-79241573D01*
X105594701Y-79425970D01*
X105507860Y-79629144D01*
X105507857Y-79629152D01*
X105471524Y-79788341D01*
X105458692Y-79844563D01*
X105448779Y-80065294D01*
X102244829Y-80065294D01*
X102365663Y-79788341D01*
X102367707Y-79784095D01*
X102582057Y-79378526D01*
X102584396Y-79374472D01*
X102828464Y-78986041D01*
X102831101Y-78982171D01*
X103103523Y-78613051D01*
X103106427Y-78609409D01*
X103405679Y-78261673D01*
X103408846Y-78258259D01*
X103733259Y-77933846D01*
X103736673Y-77930679D01*
X104084409Y-77631427D01*
X104088051Y-77628523D01*
X104457171Y-77356101D01*
X104461043Y-77353463D01*
X104849472Y-77109396D01*
X104853526Y-77107057D01*
X105122341Y-76964984D01*
X105259104Y-76892702D01*
X105263341Y-76890663D01*
X105448711Y-76809786D01*
X105683799Y-76707217D01*
X105688157Y-76705507D01*
X106121180Y-76553987D01*
X106125624Y-76552616D01*
X106568777Y-76433873D01*
X106573313Y-76432839D01*
X107024068Y-76347551D01*
X107028685Y-76346855D01*
X107484573Y-76295489D01*
X107489225Y-76295140D01*
X107929508Y-76278666D01*
X107948825Y-76277944D01*
X107951181Y-76277900D01*
X107984898Y-76277900D01*
X116134000Y-76277900D01*
X116202121Y-76297902D01*
G37*
%TD.AperFunction*%
%TD*%
M02*
